<svg xmlns="http://www.w3.org/2000/svg" width="32" height="32" viewBox="0 0 310 310"><path d="M0 155v155h310V0H0v155zm156.9-62c17.4 2 26.2 6.5 30.7 15.6 2.3 4.7 2.6 6.3 2.1 11.1-.9 8.8-6.6 15.8-15.3 18.8-4.3 1.5-4 1.7 4.8 3.4 11.6 2.4 20.6 8.9 25.6 18.6 3.7 7.2 4.3 20.6 1.3 30.3-3.5 11.7-11.1 18.6-25.6 23.3-6.6 2.2-8.8 2.3-42.8 2.7l-35.9.4.4-2.3c.2-1.5 1.4-2.6 3.8-3.4l3.5-1.2.3-55.2.2-55.3-4-1.5c-3.7-1.5-5.1-3.8-3.3-5.6 1-1.1 44.7-.8 54.2.3z"/><path d="M144 118.5V139h2.8c4.3-.1 10.6-3.4 14-7.5 10.5-12.8 2.3-33.5-13.3-33.5H144v20.5zM144 178.5V213h3.8c5.4 0 12.7-2.4 16.7-5.4 5.1-3.9 9.4-13.6 10.4-23.3 2.4-23.3-6.5-36.6-26.6-39.7l-4.3-.6v34.5z"/></svg>
