<svg version="1.0" xmlns="http://www.w3.org/2000/svg" width="32" height="32" viewBox="0 0 262 235"><path d="M109 .9C94.7 3.3 79 11.8 67.5 23.4 59 31.9 54.2 39.1 49.8 50 47.2 56.3 44 69.8 44 74.5c0 1.8-.7 2.5-3.3 3-8.8 2-22.7 11.6-29 20.3C3.4 109 .1 119.2.1 133c0 10 1.6 17.6 5.4 25.1C16.1 179.4 35.6 191 60.8 191h7.8l1.2 3.3c3.9 10.7-2.3 25.9-12.9 31.9-2.1 1.2-3.9 2.5-3.9 2.9 0 2.6 11.1 5.9 20.2 5.9 11.6 0 20.4-3.6 29.2-11.9 7.5-7.1 11.7-15.7 12.4-25.4l.5-6.7h50c54.5 0 57.2-.2 68.7-5.8 7.2-3.4 18.7-15 22.3-22.2 9.6-19.7 6.6-41.8-8-57.9-5.3-6-13.2-11.4-20.3-14-1.9-.8-8-1.6-13.5-2l-10-.6-.6-12c-.7-13.2-2.4-20.4-7.4-31-9.1-19.5-25.2-33.8-46.8-41.7-7.3-2.7-9.7-3-22.2-3.3-7.7-.2-16 0-18.5.4z"/></svg>
