<svg class="graphics graphics-upper-end" xmlns="http://www.w3.org/2000/svg" viewBox="0 0 1333.333 1333.333" height="1333.333" width="1333.333"><defs><clipPath id="a" clipPathUnits="userSpaceOnUse"><path d="M0 1000h1000V0H0z"/></clipPath><clipPath id="b" clipPathUnits="userSpaceOnUse"><path d="M130.961 728.973h805.994V273.152H130.961z"/></clipPath><clipPath id="c" clipPathUnits="userSpaceOnUse"><path d="M0 1000h1000V0H0z"/></clipPath><clipPath id="d" clipPathUnits="userSpaceOnUse"><path d="M232.927 867.207h573.449V284.45H232.927z"/></clipPath><clipPath id="e" clipPathUnits="userSpaceOnUse"><path d="M0 1000h1000V0H0z"/></clipPath><clipPath id="f" clipPathUnits="userSpaceOnUse"><path d="M802.1 597.49h22.205v-22.207H802.1z"/></clipPath><clipPath id="g" clipPathUnits="userSpaceOnUse"><path d="M212.1 567.49h22.206v-22.207H212.1z"/></clipPath><clipPath id="h" clipPathUnits="userSpaceOnUse"><path d="M491.797 828.381h8.881V819.5h-8.881z"/></clipPath><clipPath id="i" clipPathUnits="userSpaceOnUse"><path d="M809.144 257.055h16.963v-16.962h-16.963z"/></clipPath><clipPath id="j" clipPathUnits="userSpaceOnUse"><path d="M197.036 389.796h15.478v-17.503h-15.478z"/></clipPath><clipPath id="k" clipPathUnits="userSpaceOnUse"><path d="M396.646 247.608h18.088v-18.089h-18.088z"/></clipPath><clipPath id="l" clipPathUnits="userSpaceOnUse"><path d="M0 1000h1000V0H0z"/></clipPath><clipPath id="m" clipPathUnits="userSpaceOnUse"><path d="M111.509 259.264h258.58V201.4h-258.58z"/></clipPath><clipPath id="n" clipPathUnits="userSpaceOnUse"><path d="M713.987 271.954h151.569V131.99H713.987z"/></clipPath><clipPath id="o" clipPathUnits="userSpaceOnUse"><path d="M735.677 257.066h41.331v-89.999h-41.331z"/></clipPath><clipPath id="p" clipPathUnits="userSpaceOnUse"><path d="M796.813 456.975h142.142V333.84H796.813z"/></clipPath><clipPath id="q" clipPathUnits="userSpaceOnUse"><path d="M554.882 225.514h129.644v-53.668H554.882z"/></clipPath><clipPath id="r" clipPathUnits="userSpaceOnUse"><path d="M563.882 210.916h79.11v-17.807h-79.11z"/></clipPath><clipPath id="s" clipPathUnits="userSpaceOnUse"><path d="M657.96 226.513h21.395v-18.62H657.96z"/></clipPath></defs><g clip-path="url(#a)" transform="matrix(1.33333 0 0 -1.33333 0 1333.333)"><g clip-path="url(#b)" opacity=".1"><path d="M891.373 728.973H243.73c-25.07 0-45.582-20.512-45.582-45.582s20.512-45.582 45.582-45.582h64.64c25.071 0 45.582-20.512 45.582-45.582s-20.511-45.582-45.582-45.582h-6.172c-25.071 0-45.582-20.512-45.582-45.582s20.511-45.583 45.582-45.583h97.487c25.07 0 45.582-20.512 45.582-45.582 0-25.069-20.511-45.58-45.58-45.582H176.543c-25.07 0-45.582-20.512-45.582-45.582s20.512-45.582 45.582-45.582h659.264c25.07 0 45.582 20.512 45.582 45.582s-20.512 45.582-45.582 45.582h-80.313c-25.069.002-45.579 20.513-45.579 45.582 0 25.07 20.512 45.582 45.582 45.582h17.982c25.07 0 45.582 20.512 45.582 45.582v.001c0 25.07-20.512 45.582-45.582 45.582h-42.433c-25.07 0-45.582 20.512-45.582 45.582s20.512 45.582 45.582 45.582h160.327c25.07 0 45.582 20.512 45.582 45.582s-20.512 45.582-45.582 45.582" fill="#20313f"/></g></g><g clip-path="url(#c)" transform="matrix(1.33333 0 0 -1.33333 0 1333.333)"><g clip-path="url(#d)" opacity=".1"><path d="M281.065 286.065c-8.301.029-15.031 6.806-15.003 15.105l1.083 317.394a14.968 14.968 0 0 0 3.013 8.967 9.713 9.713 0 0 0-3.744 6.103L233.191 842c-1.413 8.037 2.925 16.116 10.38 19.46 4.215 3.763 9.548 5.748 15.473 5.748l521.496-1.779c6.07-.02 11.496-2.113 15.741-6.06a17.925 17.925 0 0 0 9.796-19.386l-34.62-208.009a9.803 9.803 0 0 0-3.79-6.127 14.94 14.94 0 0 0 2.944-9l-1.082-317.394c-.029-8.272-6.78-15.001-15.052-15.001z" fill="#20313f"/></g><path d="M286.065 291.065c-8.301.029-15.031 6.806-15.003 15.105l1.083 317.394a14.968 14.968 0 0 0 3.013 8.967 9.713 9.713 0 0 0-3.744 6.103L238.191 847c-1.413 8.037 2.925 16.116 10.38 19.46 4.215 3.763 9.548 5.748 15.473 5.748l521.496-1.779c6.07-.02 11.496-2.113 15.741-6.06a17.925 17.925 0 0 0 9.796-19.386l-34.62-208.009a9.803 9.803 0 0 0-3.79-6.127 14.94 14.94 0 0 0 2.944-9l-1.082-317.394c-.029-8.272-6.78-15.001-15.052-15.001z" fill="#25353a"/><path d="M759.438 293.45l-473.36 1.615c-6.105.02-11.037 4.987-11.017 11.092l1.083 317.394c.021 6.105 4.987 11.037 11.092 11.016l473.36-1.615c6.105-.02 11.037-4.986 11.016-11.091l-1.082-317.395c-.02-6.105-4.987-11.037-11.092-11.016" fill="#e4e3e5"/><path d="M591.448 404.326l-135.504.462a6.286 6.286 0 0 1-6.307-6.264l-.262-76.606a6.287 6.287 0 0 1 6.265-6.308l135.504-.462a6.286 6.286 0 0 1 6.307 6.265l.262 76.606a6.287 6.287 0 0 1-6.265 6.307" fill="#f7f7f7"/><path d="M455.635 314.353c-4.16.014-7.532 3.409-7.517 7.569l.261 76.606c.014 4.16 3.41 7.532 7.57 7.517l135.503-.462c4.16-.014 7.532-3.41 7.518-7.57l-.262-76.605c-.014-4.16-3.409-7.532-7.569-7.517z" fill="#d7d6d8"/><path d="M591.448 404.326l-135.504.462a6.286 6.286 0 0 1-6.307-6.264l-.262-76.606a6.287 6.287 0 0 1 6.265-6.308l135.504-.462a6.286 6.286 0 0 1 6.307 6.265l.262 76.606a6.287 6.287 0 0 1-6.265 6.307" fill="#f7f7f7"/><path d="M591.143 315.148l-135.504.462a6.286 6.286 0 0 0-6.264 6.308l.052 15.32 148.076-.505-.053-15.32a6.285 6.285 0 0 0-6.307-6.265" fill="#c0bfc4"/><path d="M524.354 315.376l-1.925.007.074 21.606 1.925-.006z" fill="#d3d2d6"/><path d="M308.219 456.946l30.27-.103c1.535-.006 2.774-1.135 2.77-2.524l-.095-27.659c-.004-1.388-1.252-2.51-2.785-2.505l-30.272.104c-1.533.005-2.773 1.135-2.768 2.524l.094 27.658c.005 1.39 1.252 2.51 2.786 2.505M348.21 456.81l30.271-.103c1.534-.006 2.773-1.135 2.77-2.524l-.096-27.66c-.004-1.387-1.252-2.51-2.785-2.504l-30.272.104c-1.533.005-2.773 1.135-2.768 2.524l.094 27.658c.005 1.389 1.252 2.51 2.786 2.505M388.201 456.673l30.271-.103c1.534-.006 2.773-1.135 2.77-2.524l-.096-27.659c-.004-1.388-1.252-2.51-2.785-2.505l-30.272.104c-1.533.005-2.773 1.135-2.768 2.524l.094 27.658c.005 1.39 1.252 2.51 2.786 2.505M549.393 456.123l-4.004.014-4.166.014-35.825.122-4.166.014-35.825.124-37.214.127c-1.534.005-2.781-1.117-2.786-2.505l-.094-27.66c-.005-1.388 1.234-2.518 2.768-2.523l37.214-.127 35.826-.122 4.165-.014 35.826-.122 4.166-.015 4.003-.013 29.045-.1c1.534-.005 2.78 1.117 2.786 2.506l.094 27.658c.005 1.389-1.235 2.519-2.768 2.524zM588.158 455.991l30.27-.103c1.534-.006 2.773-1.135 2.77-2.524l-.095-27.659c-.004-1.388-1.252-2.51-2.785-2.505l-30.272.104c-1.534.005-2.774 1.135-2.769 2.524l.094 27.658c.005 1.39 1.252 2.51 2.786 2.505M628.149 455.855l30.27-.103c1.535-.006 2.774-1.135 2.77-2.524l-.095-27.66c-.004-1.387-1.252-2.51-2.785-2.504l-30.272.104c-1.533.005-2.773 1.135-2.768 2.524l.094 27.658c.005 1.389 1.252 2.51 2.786 2.505M668.14 455.718l30.271-.103c1.534-.006 2.773-1.135 2.769-2.524l-.095-27.659c-.004-1.388-1.252-2.51-2.785-2.505l-30.272.104c-1.533.005-2.773 1.135-2.768 2.524l.094 27.658c.005 1.39 1.252 2.51 2.786 2.505M708.131 455.582l30.271-.103c1.534-.006 2.773-1.135 2.77-2.524l-.096-27.66c-.004-1.387-1.252-2.51-2.785-2.504l-30.272.104c-1.533.005-2.773 1.135-2.768 2.524l.094 27.658c.005 1.389 1.252 2.51 2.786 2.505M368.33 493.2l30.271-.103c1.534-.006 2.773-1.135 2.77-2.524l-.096-27.659c-.004-1.388-1.252-2.51-2.785-2.505l-30.272.104c-1.533.005-2.773 1.135-2.768 2.524l.094 27.658c.005 1.39 1.252 2.51 2.786 2.505M408.321 493.064l30.271-.103c1.534-.006 2.773-1.135 2.77-2.524l-.096-27.659c-.004-1.388-1.252-2.51-2.785-2.505l-30.272.104c-1.533.005-2.773 1.135-2.768 2.524l.094 27.658c.005 1.39 1.252 2.51 2.786 2.505M448.313 492.928l30.27-.103c1.535-.006 2.774-1.135 2.77-2.524l-.095-27.66c-.004-1.387-1.252-2.51-2.785-2.504l-30.272.104c-1.533.005-2.773 1.135-2.768 2.524l.094 27.658c.005 1.389 1.252 2.51 2.786 2.505M488.304 492.791l30.27-.103c1.535-.006 2.774-1.135 2.77-2.524l-.095-27.659c-.004-1.388-1.252-2.51-2.785-2.505l-30.272.104c-1.533.005-2.773 1.135-2.768 2.524l.094 27.658c.005 1.39 1.252 2.51 2.786 2.505M528.295 492.655l30.271-.103c1.534-.006 2.773-1.135 2.77-2.524l-.096-27.66c-.004-1.387-1.252-2.51-2.785-2.504l-30.272.104c-1.533.005-2.773 1.135-2.768 2.524l.094 27.658c.005 1.389 1.252 2.51 2.786 2.505M568.286 492.518l30.271-.103c1.534-.006 2.773-1.135 2.77-2.524l-.096-27.659c-.004-1.388-1.252-2.51-2.785-2.505l-30.272.104c-1.533.005-2.773 1.135-2.768 2.524l.094 27.658c.005 1.39 1.252 2.51 2.786 2.505M608.278 492.382l30.27-.103c1.535-.006 2.774-1.135 2.77-2.524l-.095-27.66c-.004-1.387-1.252-2.51-2.785-2.504l-30.272.104c-1.533.005-2.773 1.135-2.768 2.524l.094 27.658c.005 1.389 1.252 2.51 2.786 2.505M648.269 492.245l30.27-.103c1.535-.006 2.774-1.135 2.77-2.524l-.095-27.659c-.004-1.388-1.252-2.51-2.785-2.505l-30.272.104c-1.533.005-2.773 1.135-2.768 2.524l.094 27.658c.005 1.39 1.252 2.51 2.786 2.505M428.441 529.455l30.271-.103c1.534-.006 2.773-1.136 2.77-2.524l-.096-27.66c-.004-1.387-1.252-2.51-2.785-2.504l-30.272.104c-1.533.005-2.773 1.135-2.768 2.524l.094 27.658c.005 1.389 1.252 2.51 2.786 2.505M388.45 529.591l30.271-.103c1.534-.005 2.773-1.135 2.77-2.524l-.096-27.659c-.004-1.388-1.252-2.51-2.785-2.505l-30.272.104c-1.533.005-2.773 1.135-2.768 2.524l.094 27.658c.005 1.39 1.252 2.51 2.786 2.505M348.459 529.728l30.27-.103c1.535-.006 2.774-1.136 2.77-2.524l-.095-27.66c-.004-1.387-1.252-2.51-2.785-2.504l-30.272.104c-1.533.005-2.773 1.135-2.768 2.524l.094 27.658c.005 1.389 1.252 2.51 2.786 2.505M308.468 529.864l30.27-.103c1.535-.005 2.774-1.135 2.77-2.524l-.095-27.659c-.004-1.388-1.252-2.51-2.785-2.505l-30.272.104c-1.533.005-2.773 1.135-2.768 2.524l.094 27.658c.005 1.39 1.252 2.51 2.786 2.505M468.433 529.318l30.27-.103c1.535-.005 2.774-1.135 2.77-2.524l-.095-27.659c-.004-1.388-1.252-2.51-2.785-2.505l-30.272.104c-1.533.005-2.773 1.135-2.768 2.524l.094 27.658c.005 1.39 1.252 2.51 2.786 2.505M508.424 529.182l30.27-.103c1.535-.006 2.774-1.136 2.77-2.524l-.095-27.66c-.004-1.387-1.252-2.51-2.785-2.504l-30.272.104c-1.533.005-2.773 1.135-2.768 2.524l.094 27.658c.005 1.389 1.252 2.51 2.786 2.505M548.415 529.045l30.271-.103c1.534-.005 2.773-1.135 2.77-2.524l-.096-27.659c-.004-1.388-1.252-2.51-2.785-2.505l-30.272.104c-1.533.005-2.773 1.135-2.768 2.524l.094 27.658c.005 1.39 1.252 2.51 2.786 2.505M588.406 528.909l30.271-.103c1.534-.006 2.773-1.136 2.77-2.524l-.096-27.659c-.004-1.388-1.252-2.51-2.785-2.505l-30.272.104c-1.533.005-2.773 1.135-2.768 2.524l.094 27.658c.005 1.389 1.252 2.51 2.786 2.505M628.398 528.773l30.27-.103c1.535-.006 2.774-1.135 2.77-2.524l-.095-27.66c-.004-1.387-1.252-2.51-2.785-2.504l-30.272.104c-1.533.005-2.773 1.135-2.768 2.524l.094 27.658c.005 1.389 1.252 2.51 2.786 2.505M488.553 565.709l30.27-.103c1.535-.005 2.774-1.135 2.77-2.524l-.095-27.659c-.004-1.388-1.252-2.51-2.785-2.505l-30.272.104c-1.533.005-2.773 1.135-2.768 2.524l.094 27.658c.005 1.389 1.252 2.51 2.786 2.505M448.561 565.846l30.271-.103c1.534-.006 2.773-1.136 2.77-2.524l-.096-27.66c-.004-1.387-1.252-2.51-2.785-2.504l-30.272.104c-1.533.005-2.773 1.135-2.768 2.524l.094 27.658c.005 1.389 1.252 2.51 2.786 2.505M408.57 565.982l30.271-.103c1.534-.005 2.773-1.135 2.77-2.524l-.096-27.66c-.004-1.387-1.252-2.51-2.785-2.504l-30.272.104c-1.533.005-2.773 1.135-2.768 2.524l.094 27.658c.005 1.389 1.252 2.51 2.786 2.505M368.579 566.118l30.27-.103c1.535-.006 2.774-1.136 2.77-2.524l-.095-27.659c-.004-1.388-1.252-2.51-2.785-2.505l-30.272.104c-1.533.005-2.773 1.135-2.768 2.524l.094 27.658c.005 1.39 1.252 2.51 2.786 2.505M528.544 565.573l30.27-.103c1.535-.006 2.774-1.136 2.77-2.524l-.095-27.66c-.004-1.387-1.252-2.51-2.785-2.504l-30.272.104c-1.533.005-2.773 1.135-2.768 2.524l.094 27.658c.005 1.389 1.252 2.51 2.786 2.505M568.535 565.436l30.271-.103c1.534-.005 2.773-1.135 2.77-2.524l-.096-27.659c-.004-1.388-1.252-2.51-2.785-2.505l-30.272.104c-1.533.005-2.773 1.135-2.768 2.524l.094 27.658c.005 1.39 1.252 2.51 2.786 2.505M608.526 565.3l30.271-.103c1.534-.006 2.773-1.136 2.77-2.524l-.096-27.66c-.004-1.387-1.252-2.51-2.785-2.504l-30.272.104c-1.533.005-2.773 1.135-2.768 2.524l.094 27.658c.005 1.389 1.252 2.51 2.786 2.505M648.518 565.163l30.27-.103c1.535-.005 2.774-1.135 2.77-2.524l-.095-27.659c-.004-1.388-1.252-2.51-2.785-2.505l-30.272.104c-1.533.005-2.773 1.135-2.768 2.524l.094 27.658c.005 1.39 1.252 2.51 2.786 2.505M428.69 602.373l30.271-.103c1.534-.005 2.773-1.135 2.77-2.524l-.096-27.66c-.004-1.387-1.252-2.51-2.785-2.504l-30.272.104c-1.533.005-2.773 1.135-2.768 2.524l.094 27.658c.005 1.389 1.252 2.51 2.786 2.505M388.699 602.509l30.27-.103c1.535-.006 2.774-1.136 2.77-2.524l-.095-27.659c-.004-1.388-1.252-2.51-2.785-2.505l-30.272.104c-1.533.005-2.773 1.135-2.768 2.524l.094 27.658c.005 1.389 1.252 2.51 2.786 2.505M348.708 602.645l30.27-.103c1.535-.005 2.774-1.135 2.77-2.524l-.095-27.659c-.004-1.388-1.252-2.51-2.785-2.505l-30.272.104c-1.533.005-2.773 1.135-2.768 2.524l.094 27.658c.005 1.39 1.252 2.51 2.786 2.505M308.716 602.782l30.271-.103c1.534-.006 2.773-1.136 2.77-2.524l-.096-27.66c-.004-1.387-1.252-2.51-2.785-2.504l-30.272.104c-1.533.005-2.773 1.135-2.768 2.524l.094 27.658c.005 1.389 1.252 2.51 2.786 2.505M468.681 602.236l30.271-.103c1.534-.006 2.773-1.136 2.77-2.524l-.096-27.659c-.004-1.388-1.252-2.51-2.785-2.505l-30.272.104c-1.533.005-2.773 1.135-2.768 2.524l.094 27.658c.005 1.39 1.252 2.51 2.786 2.505M508.673 602.1l30.27-.103c1.535-.005 2.774-1.135 2.77-2.524l-.095-27.66c-.004-1.387-1.252-2.51-2.785-2.504l-30.272.104c-1.533.005-2.773 1.135-2.768 2.524l.094 27.658c.005 1.389 1.252 2.51 2.786 2.505M548.664 601.963l30.27-.103c1.535-.006 2.774-1.136 2.77-2.524l-.095-27.659c-.004-1.388-1.252-2.51-2.785-2.505l-30.272.104c-1.533.005-2.773 1.135-2.768 2.524l.094 27.658c.005 1.39 1.252 2.51 2.786 2.505M588.655 601.827l30.271-.103c1.534-.005 2.773-1.135 2.77-2.524l-.096-27.66c-.004-1.387-1.252-2.51-2.785-2.504l-30.272.104c-1.533.005-2.773 1.135-2.768 2.524l.094 27.658c.005 1.389 1.252 2.51 2.786 2.505M628.646 601.69l30.271-.103c1.534-.006 2.773-1.136 2.77-2.524l-.096-27.659c-.004-1.388-1.252-2.51-2.785-2.505l-30.272.104c-1.533.005-2.773 1.135-2.768 2.524l.094 27.658c.005 1.39 1.252 2.51 2.786 2.505M668.638 601.554l30.27-.103c1.535-.005 2.774-1.135 2.77-2.524l-.095-27.66c-.004-1.387-1.252-2.51-2.785-2.504l-30.272.104c-1.533.005-2.773 1.135-2.768 2.524l.094 27.658c.005 1.389 1.252 2.51 2.786 2.505M708.629 601.418l30.27-.103c1.535-.006 2.774-1.136 2.77-2.524l-.095-27.66c-.004-1.387-1.252-2.51-2.785-2.504l-30.272.104c-1.533.005-2.773 1.135-2.768 2.524l.094 27.658c.005 1.389 1.252 2.51 2.786 2.505M688.509 565.027l50.267-.172c1.534-.005 2.773-1.135 2.768-2.523l-.094-27.66c-.005-1.388-1.252-2.51-2.786-2.504l-50.267.172c-1.533.005-2.773 1.135-2.768 2.524l.094 27.658c.005 1.389 1.252 2.51 2.786 2.505M713.518 528.482l-7.915.027-37.214.127c-1.534.005-2.781-1.116-2.786-2.505l-.094-27.658c-.005-1.389 1.235-2.519 2.768-2.524l37.215-.127 7.914-.027 25.134-.086c1.534-.005 2.78 1.116 2.786 2.505l.094 27.658c.005 1.39-1.235 2.52-2.77 2.524zM341.087 566.212l-5.827.02-26.667.091c-1.535.005-2.782-1.116-2.787-2.505l-.095-27.659c-.004-1.388 1.235-2.518 2.77-2.523l26.666-.09 5.827-.02 17.773-.062c1.534-.005 2.781 1.116 2.786 2.505l.094 27.658c.005 1.39-1.235 2.52-2.769 2.524zM358.745 493.233l-50.536.172a2.643 2.643 0 0 1-2.652-2.633l-.093-27.402a2.642 2.642 0 0 1 2.633-2.652l50.536-.172a2.642 2.642 0 0 1 2.652 2.633l.093 27.402a2.642 2.642 0 0 1-2.633 2.652M738.661 491.937l-50.536.172a2.643 2.643 0 0 1-2.652-2.633l-.093-27.402a2.642 2.642 0 0 1 2.633-2.652l50.536-.172a2.642 2.642 0 0 1 2.652 2.633l.094 27.402a2.644 2.644 0 0 1-2.634 2.652" fill="#727272"/><path d="M785.527 866.428l-521.405 1.78c-12.1.04-19.943-9.736-19.984-21.836h2l557.224-1.929h2c.042 12.101-7.734 21.944-19.835 21.985" fill="#e4e3e5"/><path d="M280.976 634.589l485.88-1.658a5.73 5.73 0 0 1 5.656 4.7l34.631 208.07c1.567 8.575-5.002 16.48-13.718 16.51l-537.452 1.834c-8.717.029-15.339-7.83-13.83-16.415l33.21-208.303a5.73 5.73 0 0 1 5.623-4.738" fill="#666"/><path d="M286.74 645.884l-29.719 198.883c-.076.434.03.825.314 1.162.284.338.652.508 1.093.506l532.423-1.816a1.367 1.367 0 0 0 1.09-.514c.28-.34.384-.73.305-1.164l-31.077-198.676z" fill="#fff"/><path d="M671.323 626.27l-294.86 1.006a4.645 4.645 0 0 0-4.63 4.661l.017 4.683a4.644 4.644 0 0 0 4.66 4.63l294.86-1.007a4.644 4.644 0 0 0 4.63-4.66l-.016-4.684a4.645 4.645 0 0 0-4.661-4.629" fill="#3d3d3d"/><path d="M720.697 661.889l-393.564 1.24-23.769 164.315c-.304 2.1 2.776 3.78 6.878 3.748l427.39-3.33c4.005-.031 7.006-1.738 6.705-3.807zm17.1 167.142l-427.72 3.347c-5.38.042-9.417-2.163-9.014-4.916l24.155-165.263 397.35-1.242 24.014 163.08c.4 2.713-3.532 4.953-8.785 4.994" fill="#6d90c6"/><path d="M720.697 661.889l-393.564 1.24-23.769 164.315c-.304 2.1 2.776 3.78 6.878 3.748l427.39-3.33c4.005-.031 7.006-1.738 6.705-3.807z" fill="#f4f4f4"/><path d="M742.999 814.878l-438.288 3.256-.169 1.166 438.624-3.273z" fill="#6d90c6"/><path d="M737.632 827.862l-427.39 3.33c-4.102.032-7.182-1.648-6.878-3.748l1.178-8.145 438.624-3.273 1.171 8.028c.301 2.07-2.7 3.777-6.705 3.808" fill="#fff"/><path d="M323.804 824.902c.192-1.458-1.961-2.62-4.81-2.599-2.847.022-5.32 1.219-5.521 2.678-.202 1.461 1.95 2.63 4.809 2.608 2.858-.022 5.33-1.226 5.522-2.687M338.716 824.788c.177-1.457-1.986-2.619-4.83-2.598-2.847.022-5.306 1.22-5.493 2.677-.187 1.46 1.976 2.628 4.832 2.606 2.855-.022 5.313-1.225 5.491-2.685M353.616 824.675c.163-1.456-2.01-2.618-4.853-2.596-2.843.02-5.288 1.218-5.46 2.675-.174 1.459 2 2.627 4.852 2.605 2.853-.022 5.298-1.225 5.461-2.684" fill="#6d90c6"/><path d="M735.328 762.256l-422.899 2.52-6.462 44.674 435.784-3.133z" fill="#ff9a75"/><path d="M741.696 805.94l-435.673 3.127-1.312 9.067 438.288-3.257z" fill="#666a73"/><path d="M735.07 761.723l-422.746 2.512-.078.542 422.903-2.52z" fill="#ed7e5d"/><path d="M338.6 724.545l-3.814 29.268 106.815-.604 1.647-29.172z" fill="#ffc764"/><path d="M442.154 724.553l-102.55.5-3.656 28.221 104.596-.59z" fill="#ffd779"/><path d="M606.52 723.245l1.707 29.02 105.21-.595-3.81-28.925z" fill="#49525b"/><path d="M708.644 723.257l-101.039.492 1.667 27.982 103.024-.581z" fill="#676b74"/><path d="M532.49 723.604l.19 29.09 60.463-.343-1.405-29.034z" fill="#ed7e5d"/><path d="M590.706 723.83l-57.154.278.204 28.05 58.283-.33z" fill="#ff9a75"/><path d="M458.152 723.965l-1.34 29.158 60.72-.344.114-29.103z" fill="#84bcc7"/><path d="M516.583 724.191l-57.39.279-1.27 28.115 58.528-.33z" fill="#e1f4f6"/><path d="M343.154 689.584l-3.626 27.828 104.121-.485 1.567-27.739z" fill="#ed7e5d"/><path d="M444.15 689.678l-100.014.39-3.477 26.833 101.96-.473z" fill="#ff9a75"/><path d="M604.48 688.57l1.624 27.601 102.595-.477-3.623-27.516z" fill="#84bcc7"/><path d="M704.115 688.664l-98.576.384 1.586 26.616 100.464-.466z" fill="#e1f4f6"/><path d="M532.263 688.85l.18 27.665 58.954-.275-1.336-27.615z" fill="#ffc764"/><path d="M589.053 689.113l-55.753.217.194 26.676 56.827-.264z" fill="#ffd779"/><path d="M459.753 689.131l-1.274 27.727 59.195-.275.11-27.677z" fill="#49525b"/><path d="M516.747 689.395l-55.978.218-1.208 26.736 57.061-.265z" fill="#676b74"/><path d="M676.797 780.875L374.43 782.83l-1.127 11.174 304.648-2.065z" fill="#fff"/><path d="M664.438 785.935c-1.81.97-1.664 2.524.33 3.471 1.999.95 5.088.928 6.897-.046 1.807-.973 1.649-2.526-.347-3.47-1.994-.943-5.072-.923-6.88.045m8.113 3.845c-2.251 1.213-6.098 1.24-8.585.058-2.483-1.18-2.663-3.115-.41-4.32 2.25-1.205 6.079-1.23 8.56-.057 2.485 1.174 2.683 3.108.435 4.32M662.362 785.519l1.198-.641-4.712-2.232-1.198.639zM657.323 783.098c-.221-.165-.202-.385.072-.53.274-.147.71-.17 1.05-.068zM722.506 675.461l-397.36 1.403 1.986-13.735 393.397-1.24z" fill="#666a73"/><path d="M461.743 668.057l-115.834.382-.37 2.84 116.076-.392zM583.97 667.653l-27.288.09.07 2.822 27.344-.092zM546.372 667.778l-27.345.09-.009 2.825 27.402-.092zM663.96 667.39l-69.701.23.147 2.818 69.845-.236z" fill="#fff"/><g><path d="M701.313 667.266l-27.11.09.312 2.811 27.166-.09z" fill="#fff"/></g></g><g clip-path="url(#e)" transform="matrix(1.33333 0 0 -1.33333 0 1333.333)"><path d="M148.177 461.94a5.01 5.01 0 0 1-5.005-5.005 5.01 5.01 0 0 1 5.005-5.005 5.01 5.01 0 0 1 5.004 5.005 5.01 5.01 0 0 1-5.004 5.005m0-14.603c-5.292 0-9.598 4.306-9.598 9.598 0 5.292 4.306 9.598 9.598 9.598 5.292 0 9.597-4.306 9.597-9.598 0-5.292-4.305-9.598-9.597-9.598" fill="#3d90c9"/><g clip-path="url(#f)" opacity=".2"><path d="M813.203 592.176a5.796 5.796 0 0 1-5.79-5.79 5.796 5.796 0 0 1 5.79-5.789 5.795 5.795 0 0 1 5.788 5.79 5.796 5.796 0 0 1-5.788 5.79m0-16.894c-6.122 0-11.103 4.982-11.103 11.103 0 6.122 4.981 11.104 11.103 11.104s11.102-4.982 11.102-11.104c0-6.12-4.98-11.103-11.102-11.103" fill="#20313f"/></g><g clip-path="url(#g)" opacity=".2"><path d="M223.203 562.176a5.796 5.796 0 0 1-5.79-5.79 5.796 5.796 0 0 1 5.79-5.789 5.795 5.795 0 0 1 5.788 5.79 5.796 5.796 0 0 1-5.788 5.79m0-16.894c-6.122 0-11.103 4.982-11.103 11.103 0 6.122 4.981 11.104 11.103 11.104s11.102-4.982 11.102-11.104c0-6.12-4.98-11.103-11.102-11.103" fill="#20313f"/></g><path d="M847.482 787.362a6.037 6.037 0 0 1-8.528 0 6.037 6.037 0 0 1 0-8.528 6.037 6.037 0 0 1 8.527 0 6.037 6.037 0 0 1 0 8.528m-12.44-12.441c-4.508 4.509-4.508 11.846 0 16.354 4.509 4.509 11.846 4.509 16.354 0 4.509-4.508 4.508-11.845-.001-16.353-4.508-4.508-11.844-4.51-16.353-.001M866.845 513.137a6.037 6.037 0 0 1-8.528 0 6.037 6.037 0 0 1 0-8.528 6.037 6.037 0 0 1 8.527.001 6.037 6.037 0 0 1 0 8.527m-12.44-12.44c-4.508 4.508-4.508 11.845 0 16.353 4.509 4.51 11.846 4.51 16.354 0 4.509-4.508 4.508-11.845-.001-16.353-4.508-4.508-11.844-4.509-16.353 0M205.225 671.134h-4.39v3.324a2.417 2.417 0 1 1-4.836 0v-3.324h-4.392a2.418 2.418 0 1 1 0-4.835H196v-3.324a2.418 2.418 0 0 1 4.835 0v3.324h4.391a2.418 2.418 0 0 1 0 4.835M373.303 905.718a4.724 4.724 0 0 1-4.72-4.719 4.724 4.724 0 0 1 4.72-4.718A4.723 4.723 0 0 1 378.02 901a4.723 4.723 0 0 1-4.717 4.72m0-13.769c-4.99 0-9.05 4.06-9.05 9.05 0 4.99 4.06 9.05 9.05 9.05 4.989 0 9.048-4.06 9.048-9.05 0-4.99-4.06-9.05-9.048-9.05M205.95 780.875a4.44 4.44 0 1 0-8.881 0 4.44 4.44 0 0 0 8.88 0" fill="#3d90c9"/><g clip-path="url(#h)" opacity=".2"><path d="M500.678 823.94a4.44 4.44 0 1 0-8.88.001 4.44 4.44 0 0 0 8.88 0" fill="#20313f"/></g><path d="M881.734 264.755v4.848h3.67a2.669 2.669 0 0 1 0 5.337h-3.67v4.849a2.67 2.67 0 0 1-5.338 0v-4.85h-3.67a2.67 2.67 0 0 1 0-5.336h3.67v-4.848a2.67 2.67 0 0 1 5.338 0M581.734 244.755v4.848h3.67a2.669 2.669 0 0 1 0 5.337h-3.67v4.849a2.67 2.67 0 0 1-5.338 0v-4.85h-3.67a2.67 2.67 0 0 1 0-5.336h3.67v-4.848a2.67 2.67 0 0 1 5.338 0" fill="#3d90c9"/><g><g clip-path="url(#i)" opacity=".2"><path d="M822.048 248.574a4.428 4.428 0 0 1-4.423 4.423 4.428 4.428 0 0 1-4.422-4.423 4.427 4.427 0 0 1 4.422-4.422 4.428 4.428 0 0 1 4.423 4.422m-12.904 0c0 4.676 3.805 8.482 8.481 8.482 4.677 0 8.482-3.806 8.482-8.482 0-4.676-3.805-8.481-8.482-8.481-4.676 0-8.48 3.805-8.48 8.48" fill="#20313f"/></g></g><g><g clip-path="url(#j)" opacity=".2"><path d="M202.482 387.503v-4.165h-3.153a2.293 2.293 0 0 1 0-4.586h3.153v-4.166a2.293 2.293 0 0 1 4.586 0v4.166h3.153a2.293 2.293 0 0 1 0 4.586h-3.153v4.165a2.293 2.293 0 0 1-4.586 0" fill="#20313f"/></g></g><g><g clip-path="url(#k)" opacity=".2"><path d="M402.353 235.227a4.723 4.723 0 0 1 6.673 0 4.723 4.723 0 0 1 0 6.673 4.723 4.723 0 0 1-6.672 0 4.723 4.723 0 0 1 0-6.673m9.734 9.735c3.528-3.528 3.528-9.269 0-12.797-3.528-3.528-9.269-3.528-12.797 0-3.528 3.528-3.527 9.268.001 12.796 3.527 3.528 9.268 3.53 12.796.001" fill="#20313f"/></g></g></g><g clip-path="url(#l)" transform="matrix(1.33333 0 0 -1.33333 0 1333.333)"><g clip-path="url(#m)" opacity=".1"><path d="M117.869 235.227a7.576 7.576 0 0 0-5.66 4.31 7.524 7.524 0 0 0-.6 4.395l1.467 8.972a7.53 7.53 0 0 0 3.058 4.929 7.53 7.53 0 0 0 5.647 1.33l206.959-33.827 41.349-19.046-45.261-4.89z" fill="#20313f"/></g><path d="M123.61 239.355a7.576 7.576 0 0 0-5.66 4.31 7.524 7.524 0 0 0-.6 4.395l1.467 8.972a7.53 7.53 0 0 0 3.058 4.929 7.53 7.53 0 0 0 5.647 1.33l206.959-33.827 41.349-19.046-45.261-4.89z" fill="#25353a"/><path d="M126.877 259.343l165.996-27.132 38.734-6.33-2.622-16.042-19.253 3.147-19.481 3.184-165.996 27.132a3.591 3.591 0 0 0-2.957 4.112l1.466 8.972a3.593 3.593 0 0 0 4.113 2.957" fill="#2980b9"/><path d="M331.607 225.88l-2.622-16.04 1.693-.277 30.333 3.277-27.711 12.764z" fill="#f1c40f"/><path d="M354.083 216.03l6.928-3.19-7.583-.82z" fill="#3b3b3b"/><path d="M126.877 259.343l16.329-2.669-2.622-16.04-16.33 2.668a3.592 3.592 0 0 0-2.956 4.112l1.466 8.972a3.593 3.593 0 0 0 4.113 2.957" fill="#d35400"/><path d="M138.89 240.91l3.387-.553 2.622 16.04-3.386.554z" fill="#3b3b3b"/><g clip-path="url(#n)" opacity=".1"><path d="M851.69 131.99c-3.073 0-5.983.985-8.415 2.852l-24.552 18.838a65.432 65.432 0 0 0-30.557-12.38 66.472 66.472 0 0 0-8.641-.57c-32.754 0-60.684 24.528-64.966 57.05-2.287 17.374 2.328 34.599 12.996 48.5 10.668 13.903 26.11 22.819 43.484 25.106a66.45 66.45 0 0 0 8.64.569c32.755 0 60.685-24.526 64.967-57.048a65.725 65.725 0 0 0-7.644-40.33l23.139-17.755c6.06-4.65 7.207-13.363 2.558-19.424-2.638-3.436-6.651-5.408-11.008-5.408z" fill="#20313f"/></g><path d="M856.69 136.99c-3.073 0-5.983.985-8.415 2.852l-24.552 18.838a65.432 65.432 0 0 0-30.557-12.38 66.472 66.472 0 0 0-8.641-.57c-32.754 0-60.684 24.528-64.966 57.05-2.287 17.374 2.328 34.599 12.996 48.5 10.668 13.903 26.11 22.819 43.484 25.106a66.45 66.45 0 0 0 8.64.569c32.755 0 60.685-24.526 64.967-57.048a65.725 65.725 0 0 0-7.644-40.33l23.139-17.755c6.06-4.65 7.207-13.363 2.558-19.424-2.638-3.436-6.651-5.408-11.008-5.408z" fill="#25353a"/><path d="M845.68 219.384c4.44-33.732-19.304-64.678-53.036-69.118-33.733-4.441-64.678 19.304-69.12 53.036-4.44 33.732 19.305 64.677 53.038 69.118 33.732 4.44 64.677-19.304 69.118-53.036" fill="#fffdfc"/><path d="M850.71 143.015l-26.981 20.704c-4.3 3.298-5.117 9.515-1.818 13.814 3.298 4.299 9.515 5.117 13.814 1.818l26.98-20.703c4.3-3.3 5.119-9.515 1.82-13.814-3.3-4.3-9.515-5.118-13.814-1.82" fill="#fffdfc"/><path d="M791.146 161.64c-27.406-3.608-52.638 15.753-56.246 43.16-3.608 27.405 15.753 52.637 43.159 56.245 27.406 3.608 52.638-15.753 56.246-43.159 3.608-27.406-15.753-52.638-43.16-56.246" fill="#3f2608"/><path d="M817.3 190.533c-4.644-9.202-11.394-23.18-21.15-23.647-9.757-.466-13.007 11.787-21.388 16.411-8.38 4.623-13.893-6.329-19.057-1.282-5.165 5.047-13.37 17.5-16.03 25.438-2.66 7.94 5.953 7.597 8.704 17.777 2.751 10.18-.587 18.108 7.652 19.416 5.55.88 14.172 3.82 19.208 5.645a26.523 26.523 0 0 0 9.412 1.604c5.836-.083 14.813-.815 18.466-4.323 5.62-5.396.882-14.61 4.918-22.67 4.036-8.059 17.284-3.042 18.047-11.94.762-8.9-4.138-13.227-8.782-22.429m4.891-2.526a1.8 1.8 0 1 0-.47 3.569 1.8 1.8 0 0 0 .47-3.569m-45.706-22.556a3.712 3.712 0 1 0-.97 7.36 3.712 3.712 0 0 0 .97-7.36m-10.568 6.096a3.004 3.004 0 1 0-.783 5.957 3.004 3.004 0 0 0 .783-5.957m-24.967 51.887a1.774 1.774 0 1 0 .464-3.518 1.774 1.774 0 0 0-.464 3.518m2.374 9.835a3.08 3.08 0 1 0 .804-6.106 3.08 3.08 0 0 0-.804 6.106m28.177 24.035a2.698 2.698 0 1 0 .704-5.352 2.699 2.699 0 1 0-.704 5.352m40.074-30.248a1.652 1.652 0 1 0 .43-3.276 1.652 1.652 0 0 0-.43 3.276m3.32 15.931a4.462 4.462 0 1 0 1.163-8.848 4.462 4.462 0 0 0-1.164 8.848m8.03-16.398a1.36 1.36 0 1 0 .356-2.696 1.36 1.36 0 0 0-.356 2.696m-44.866 34.456c-27.405-3.608-46.766-28.84-43.158-56.246 3.608-27.406 28.84-46.767 56.245-43.159 27.406 3.608 46.768 28.84 43.16 56.246-3.609 27.406-28.84 46.767-56.247 43.16" fill="#663714"/><g clip-path="url(#o)" opacity=".3"><path d="M754.35 232.07c4.804 10.991 12.903 19.533 22.658 24.996-15.957-1.499-30.663-11.38-37.523-27.078-10.05-22.994.482-49.878 23.476-59.927a45.435 45.435 0 0 1 9.702-2.995c-20.372 14.44-28.606 41.451-18.313 65.003" fill="#351d03"/></g><g clip-path="url(#p)" opacity=".1"><path d="M803.055 365.77c-4.694 1.484-7.308 6.508-5.828 11.202l23.28 73.763c1.475 4.669 6.479 7.289 11.154 5.842l94.513-29.83a12.862 12.862 0 0 0 7.742-6.791 12.77 12.77 0 0 0 4.439-14.04l-19.92-63.113c-2.116-6.705-9.302-10.47-16.02-8.391z" fill="#20313f"/></g><path d="M809.31 369.069c-4.694 1.483-7.308 6.507-5.828 11.201l23.28 73.763c1.474 4.669 6.478 7.289 11.153 5.842l94.513-29.829a12.862 12.862 0 0 0 7.742-6.792 12.77 12.77 0 0 0 4.44-14.039l-19.92-63.114c-2.117-6.705-9.303-10.469-16.02-8.391z" fill="#25353a"/><path d="M909.805 341.546l-99.291 31.338a4.928 4.928 0 0 0-3.217 6.183l22.265 70.543a4.928 4.928 0 0 0 6.183 3.217l99.29-31.338a8.824 8.824 0 0 0 5.76-11.07l-19.92-63.114a8.823 8.823 0 0 0-11.07-5.759" fill="#6b4d34"/><path d="M905.993 346.288l-94.464 29.814a4.928 4.928 0 0 0-3.216 6.184l22.264 70.543a4.929 4.929 0 0 0 6.183 3.217l94.464-29.814a8.824 8.824 0 0 0 5.759-11.07l-19.92-63.114a8.823 8.823 0 0 0-11.07-5.76" fill="#937354"/><path d="M840.508 454.863l-3.748 1.183a4.929 4.929 0 0 1-6.183-3.217l-22.264-70.543a4.927 4.927 0 0 1 3.216-6.183l3.748-1.183z" fill="#846145"/><path d="M832.696 454.38l97.682-30.83a6.017 6.017 0 0 0 3.923-7.543l-19.92-63.114a6.018 6.018 0 0 0-7.541-3.923l-97.682 30.83" fill="none" stroke="#aa876a" stroke-width="1.125" stroke-linecap="round" stroke-linejoin="round" stroke-dasharray="2.239,3.358"/><g clip-path="url(#q)" opacity=".1"><path d="M565.996 171.846c-5.18 0-9.569 4.047-9.993 9.212l-1.087 13.23c-.028.35-.039.689-.032 1.022a9.959 9.959 0 0 0 3.037 6.992c.461.449.97.857 1.508 1.209a10.052 10.052 0 0 0 4.667 1.598l62.343 5.122.312-3.795 14.183 1.165 2.185-26.594-14.184-1.165.234-2.842-62.346-5.12a9.989 9.989 0 0 0-.826-.034zM647.304 211.906l10.594 10.52c.89.882 1.93 1.597 3.092 2.126a10.697 10.697 0 0 0 5.468.908 10.658 10.658 0 0 0 6.488-3.09l8.497-8.56c4.132-4.163 4.108-10.913-.054-15.047l-10.596-10.519z" fill="#20313f"/></g><path d="M570.996 176.846c-5.18 0-9.569 4.047-9.993 9.212l-1.087 13.23c-.028.35-.039.689-.032 1.022a9.959 9.959 0 0 0 3.037 6.992c.461.449.97.857 1.508 1.209a10.052 10.052 0 0 0 4.667 1.598l62.343 5.122.312-3.795 14.183 1.165 2.185-26.594-14.184-1.165.234-2.842-62.346-5.12a9.989 9.989 0 0 0-.826-.034zM652.304 216.906l10.594 10.52c.89.882 1.93 1.597 3.092 2.126a10.697 10.697 0 0 0 5.468.908 10.658 10.658 0 0 0 6.488-3.09l8.497-8.56c4.132-4.163 4.108-10.913-.054-15.047l-10.596-10.519z" fill="#25353a"/><path d="M629.855 185.66l-58.36-4.794a6.034 6.034 0 0 0-6.505 5.519l-1.087 13.23a6.033 6.033 0 0 0 5.519 6.508l58.358 4.793z" fill="#494949"/><path d="M643.805 189.666l-14.184-1.165-1.529 18.62 14.184 1.166z" fill="#e4e3e5"/><g><path d="M635.746 200.856l-5.083-.418-.328 3.984 5.084.417z" fill="#b7b7b7"/></g><g><path d="M636.5 191.675l-5.083-.418-.328 3.984 5.084.417z" fill="#b7b7b7"/></g><g><g clip-path="url(#r)" opacity=".1"><path d="M627.78 210.916l-58.359-4.794a6.033 6.033 0 0 1-5.519-6.506l.535-6.507 78.555 6.452-.717 8.726-14.183-1.165z" fill="#fff"/></g></g><g><path d="M683.57 206.602l-7.757-7.7-17.853 17.984 7.756 7.7a6.64 6.64 0 0 0 9.39-.034l8.498-8.561a6.64 6.64 0 0 0-.034-9.39" fill="#494949"/></g><g><g clip-path="url(#s)" opacity=".1"><path d="M665.716 224.586l-7.757-7.7 8.927-8.992 12.47 12.378-4.25 4.28a6.64 6.64 0 0 1-9.39.034" fill="#fff"/></g></g></g></svg>
