<svg xmlns="http://www.w3.org/2000/svg" class="graphics graphics-1" viewBox="0 0 1333.333 1333.333" height="1333.333" width="1333.333"><defs><clipPath id="graphics_2_a" clipPathUnits="userSpaceOnUse"><path d="M0 1000h1000V0H0z"/></clipPath><clipPath id="graphics_2_b" clipPathUnits="userSpaceOnUse"><path d="M130.961 728.973h805.994V273.152H130.961z"/></clipPath><clipPath id="graphics_2_c" clipPathUnits="userSpaceOnUse"><path d="M0 1000h1000V0H0z"/></clipPath><clipPath id="graphics_2_d" clipPathUnits="userSpaceOnUse"><path d="M802.1 597.49h22.205v-22.207H802.1z"/></clipPath><clipPath id="graphics_2_e" clipPathUnits="userSpaceOnUse"><path d="M212.1 567.49h22.206v-22.207H212.1z"/></clipPath><clipPath id="graphics_2_f" clipPathUnits="userSpaceOnUse"><path d="M471.651 793.566h8.881v-8.881h-8.881z"/></clipPath><clipPath id="graphics_2_g" clipPathUnits="userSpaceOnUse"><path d="M809.144 257.055h16.963v-16.962h-16.963z"/></clipPath><clipPath id="graphics_2_h" clipPathUnits="userSpaceOnUse"><path d="M221.253 413.505h15.478v-17.503h-15.478z"/></clipPath><clipPath id="graphics_2_i" clipPathUnits="userSpaceOnUse"><path d="M396.646 247.608h18.088v-18.089h-18.088z"/></clipPath><clipPath id="graphics_2_j" clipPathUnits="userSpaceOnUse"><path d="M0 1000h1000V0H0z"/></clipPath><clipPath id="graphics_2_k" clipPathUnits="userSpaceOnUse"><path d="M693.987 321.954h151.569V181.99H693.987z"/></clipPath><clipPath id="graphics_2_l" clipPathUnits="userSpaceOnUse"><path d="M715.677 307.066h41.331v-89.999h-41.331z"/></clipPath><clipPath id="graphics_2_m" clipPathUnits="userSpaceOnUse"><path d="M305.574 702.027h287.488V404.754H305.574z"/></clipPath><clipPath id="graphics_2_n" clipPathUnits="userSpaceOnUse"><path d="M646.663 593.109h142.016V433.204H646.663z"/></clipPath><clipPath id="graphics_2_o" clipPathUnits="userSpaceOnUse"><path d="M314.574 579.412h279.489v-82.829H314.574z"/></clipPath><clipPath id="graphics_2_p" clipPathUnits="userSpaceOnUse"><path d="M153.713 371.929h302.402V224.791H153.713z"/></clipPath><clipPath id="graphics_2_q" clipPathUnits="userSpaceOnUse"><path d="M288.709 369.095H453.89v-71.772H288.709z"/></clipPath><clipPath id="graphics_2_r" clipPathUnits="userSpaceOnUse"><path d="M162.926 351.686H428.98V237.215H162.926z"/></clipPath><clipPath id="graphics_2_s" clipPathUnits="userSpaceOnUse"><path d="M163.446 363.871h265.891V258.576H163.446z"/></clipPath><clipPath id="graphics_2_t" clipPathUnits="userSpaceOnUse"><path d="M537.121 772.072h78.888v-78.887h-78.888z"/></clipPath><clipPath id="graphics_2_u" clipPathUnits="userSpaceOnUse"><path d="M702.44 696.174h78.887v-78.888H702.44z"/></clipPath></defs><path d="M0 1333.333h1333.333V0H0z" fill="#fff"/><g clip-path="url(#graphics_2_a)" transform="matrix(1.33333 0 0 -1.33333 0 1333.333)"><g clip-path="url(#graphics_2_b)" opacity=".1"><path d="M891.373 728.973H243.73c-25.07 0-45.582-20.512-45.582-45.582s20.512-45.582 45.582-45.582h64.64c25.071 0 45.582-20.512 45.582-45.582s-20.511-45.582-45.582-45.582h-6.172c-25.071 0-45.582-20.512-45.582-45.582s20.511-45.583 45.582-45.583h97.487c25.07 0 45.582-20.512 45.582-45.582 0-25.069-20.511-45.58-45.58-45.582H176.543c-25.07 0-45.582-20.512-45.582-45.582s20.512-45.582 45.582-45.582h659.264c25.07 0 45.582 20.512 45.582 45.582s-20.512 45.582-45.582 45.582h-80.313c-25.069.002-45.579 20.513-45.579 45.582 0 25.07 20.512 45.582 45.582 45.582h17.982c25.07 0 45.582 20.512 45.582 45.582v.001c0 25.07-20.512 45.582-45.582 45.582h-42.433c-25.07 0-45.582 20.512-45.582 45.582s20.512 45.582 45.582 45.582h160.327c25.07 0 45.582 20.512 45.582 45.582s-20.512 45.582-45.582 45.582" fill="#20313f"/></g></g><g clip-path="url(#graphics_2_c)" transform="matrix(1.33333 0 0 -1.33333 0 1333.333)"><path d="M148.177 461.94a5.01 5.01 0 0 1-5.005-5.005 5.01 5.01 0 0 1 5.005-5.005 5.01 5.01 0 0 1 5.004 5.005 5.01 5.01 0 0 1-5.004 5.005m0-14.603c-5.292 0-9.598 4.306-9.598 9.598 0 5.292 4.306 9.598 9.598 9.598 5.292 0 9.597-4.306 9.597-9.598 0-5.292-4.305-9.598-9.597-9.598" fill="#3d90c9"/><g clip-path="url(#graphics_2_d)" opacity=".2"><path d="M813.203 592.176a5.796 5.796 0 0 1-5.79-5.79 5.796 5.796 0 0 1 5.79-5.789 5.795 5.795 0 0 1 5.788 5.79 5.796 5.796 0 0 1-5.788 5.79m0-16.894c-6.122 0-11.103 4.982-11.103 11.103 0 6.122 4.981 11.104 11.103 11.104s11.102-4.982 11.102-11.104c0-6.12-4.98-11.103-11.102-11.103" fill="#20313f"/></g><g clip-path="url(#graphics_2_e)" opacity=".2"><path d="M223.203 562.176a5.796 5.796 0 0 1-5.79-5.79 5.796 5.796 0 0 1 5.79-5.789 5.795 5.795 0 0 1 5.788 5.79 5.796 5.796 0 0 1-5.788 5.79m0-16.894c-6.122 0-11.103 4.982-11.103 11.103 0 6.122 4.981 11.104 11.103 11.104s11.102-4.982 11.102-11.104c0-6.12-4.98-11.103-11.102-11.103" fill="#20313f"/></g><path d="M847.482 787.362a6.037 6.037 0 0 1-8.528 0 6.037 6.037 0 0 1 0-8.528 6.037 6.037 0 0 1 8.527 0 6.037 6.037 0 0 1 0 8.528m-12.44-12.441c-4.508 4.509-4.508 11.846 0 16.354 4.509 4.509 11.846 4.509 16.354 0 4.509-4.508 4.508-11.845-.001-16.353-4.508-4.508-11.844-4.51-16.353-.001M866.845 513.137a6.037 6.037 0 0 1-8.528 0 6.037 6.037 0 0 1 0-8.528 6.037 6.037 0 0 1 8.527.001 6.037 6.037 0 0 1 0 8.527m-12.44-12.44c-4.508 4.508-4.508 11.845 0 16.353 4.509 4.51 11.846 4.51 16.354 0 4.509-4.508 4.508-11.845-.001-16.353-4.508-4.508-11.844-4.509-16.353 0M205.225 671.134h-4.39v3.324a2.417 2.417 0 1 1-4.836 0v-3.324h-4.392a2.418 2.418 0 1 1 0-4.835H196v-3.324a2.418 2.418 0 0 1 4.835 0v3.324h4.391a2.418 2.418 0 0 1 0 4.835M344.101 830.111a4.724 4.724 0 0 1-4.719-4.719 4.724 4.724 0 0 1 4.719-4.718 4.723 4.723 0 0 1 4.717 4.718 4.723 4.723 0 0 1-4.717 4.72m0-13.769c-4.989 0-9.049 4.06-9.049 9.05 0 4.99 4.06 9.05 9.049 9.05s9.048-4.06 9.048-9.05c0-4.99-4.059-9.05-9.048-9.05M205.95 780.875a4.44 4.44 0 1 0-8.881 0 4.44 4.44 0 0 0 8.88 0" fill="#3d90c9"/><g clip-path="url(#graphics_2_f)" opacity=".2"><path d="M480.532 789.125a4.44 4.44 0 1 0-8.88.001 4.44 4.44 0 0 0 8.88 0" fill="#20313f"/></g><path d="M881.734 264.755v4.848h3.67a2.669 2.669 0 0 1 0 5.337h-3.67v4.849a2.67 2.67 0 0 1-5.338 0v-4.85h-3.67a2.67 2.67 0 0 1 0-5.336h3.67v-4.848a2.67 2.67 0 0 1 5.338 0M581.734 244.755v4.848h3.67a2.669 2.669 0 0 1 0 5.337h-3.67v4.849a2.67 2.67 0 0 1-5.338 0v-4.85h-3.67a2.67 2.67 0 0 1 0-5.336h3.67v-4.848a2.67 2.67 0 0 1 5.338 0" fill="#3d90c9"/><g clip-path="url(#graphics_2_g)" opacity=".2"><path d="M822.048 248.574a4.428 4.428 0 0 1-4.423 4.423 4.428 4.428 0 0 1-4.422-4.423 4.427 4.427 0 0 1 4.422-4.422 4.428 4.428 0 0 1 4.423 4.422m-12.904 0c0 4.676 3.805 8.482 8.481 8.482 4.677 0 8.482-3.806 8.482-8.482 0-4.676-3.805-8.481-8.482-8.481-4.676 0-8.48 3.805-8.48 8.48" fill="#20313f"/></g><g><g clip-path="url(#graphics_2_h)" opacity=".2"><path d="M226.699 411.212v-4.165h-3.153a2.293 2.293 0 0 1 0-4.586h3.153v-4.166a2.293 2.293 0 0 1 4.586 0v4.166h3.153a2.293 2.293 0 0 1 0 4.586h-3.153v4.165a2.293 2.293 0 0 1-4.586 0" fill="#20313f"/></g></g><g><g clip-path="url(#graphics_2_i)" opacity=".2"><path d="M402.353 235.227a4.723 4.723 0 0 1 6.673 0 4.723 4.723 0 0 1 0 6.673 4.723 4.723 0 0 1-6.672 0 4.723 4.723 0 0 1 0-6.673m9.734 9.735c3.528-3.528 3.528-9.269 0-12.797-3.528-3.528-9.269-3.528-12.797 0-3.528 3.528-3.527 9.268.001 12.796 3.527 3.528 9.268 3.53 12.796.001" fill="#20313f"/></g></g><g><path d="M675.734 795.755v4.848h3.67a2.669 2.669 0 0 1 0 5.337h-3.67v4.849a2.67 2.67 0 0 1-5.338 0v-4.85h-3.67a2.67 2.67 0 0 1 0-5.336h3.67v-4.848a2.67 2.67 0 0 1 5.338 0" fill="#3d90c9"/></g></g><g clip-path="url(#graphics_2_j)" transform="matrix(1.33333 0 0 -1.33333 0 1333.333)"><g clip-path="url(#graphics_2_k)" opacity=".1"><path d="M831.69 181.99c-3.073 0-5.983.985-8.415 2.852l-24.552 18.838a65.432 65.432 0 0 0-30.557-12.38 66.472 66.472 0 0 0-8.641-.57c-32.754 0-60.684 24.528-64.966 57.05-2.287 17.374 2.328 34.599 12.996 48.5 10.668 13.903 26.11 22.819 43.484 25.106a66.45 66.45 0 0 0 8.64.569c32.755 0 60.685-24.526 64.967-57.048a65.725 65.725 0 0 0-7.644-40.33l23.139-17.755c6.06-4.65 7.207-13.363 2.558-19.424-2.638-3.436-6.651-5.408-11.008-5.408z" fill="#20313f"/></g><path d="M836.69 186.99c-3.073 0-5.983.985-8.415 2.852l-24.552 18.838a65.432 65.432 0 0 0-30.557-12.38 66.472 66.472 0 0 0-8.641-.57c-32.754 0-60.684 24.528-64.966 57.05-2.287 17.374 2.328 34.599 12.996 48.5 10.668 13.903 26.11 22.819 43.484 25.106a66.45 66.45 0 0 0 8.64.569c32.755 0 60.685-24.526 64.967-57.048a65.725 65.725 0 0 0-7.644-40.33l23.139-17.755c6.06-4.65 7.207-13.363 2.558-19.424-2.638-3.436-6.651-5.408-11.008-5.408z" fill="#25353a"/><path d="M825.68 269.384c4.44-33.732-19.304-64.678-53.036-69.118-33.733-4.441-64.678 19.304-69.12 53.036-4.44 33.732 19.305 64.677 53.038 69.118 33.732 4.44 64.677-19.304 69.118-53.036" fill="#fffdfc"/><path d="M830.71 193.015l-26.981 20.704c-4.3 3.298-5.117 9.515-1.818 13.814 3.298 4.299 9.515 5.117 13.814 1.818l26.98-20.703c4.3-3.3 5.119-9.515 1.82-13.814-3.3-4.3-9.515-5.118-13.814-1.82" fill="#fffdfc"/><path d="M771.146 211.64c-27.406-3.608-52.638 15.753-56.246 43.16-3.608 27.405 15.753 52.637 43.159 56.245 27.406 3.608 52.638-15.753 56.246-43.159 3.608-27.406-15.753-52.638-43.16-56.246" fill="#3f2608"/><path d="M797.3 240.533c-4.644-9.202-11.394-23.18-21.15-23.647-9.757-.466-13.007 11.787-21.388 16.411-8.38 4.623-13.893-6.329-19.057-1.282-5.165 5.047-13.37 17.5-16.03 25.438-2.66 7.94 5.953 7.597 8.704 17.777 2.751 10.18-.587 18.108 7.652 19.416 5.55.88 14.172 3.82 19.208 5.645a26.523 26.523 0 0 0 9.412 1.604c5.836-.083 14.813-.815 18.466-4.323 5.62-5.396.882-14.61 4.918-22.67 4.036-8.059 17.284-3.042 18.047-11.94.762-8.9-4.138-13.227-8.782-22.429m4.891-2.526a1.8 1.8 0 1 0-.47 3.569 1.8 1.8 0 0 0 .47-3.569m-45.706-22.556a3.712 3.712 0 1 0-.97 7.36 3.712 3.712 0 0 0 .97-7.36m-10.568 6.096a3.004 3.004 0 1 0-.783 5.957 3.004 3.004 0 0 0 .783-5.957m-24.967 51.887a1.774 1.774 0 1 0 .464-3.518 1.774 1.774 0 0 0-.464 3.518m2.374 9.835a3.08 3.08 0 1 0 .804-6.106 3.08 3.08 0 0 0-.804 6.106m28.177 24.035a2.698 2.698 0 1 0 .704-5.352 2.699 2.699 0 1 0-.704 5.352m40.074-30.248a1.652 1.652 0 1 0 .43-3.276 1.652 1.652 0 0 0-.43 3.276m3.32 15.931a4.462 4.462 0 1 0 1.163-8.848 4.462 4.462 0 0 0-1.164 8.848m8.03-16.398a1.36 1.36 0 1 0 .356-2.696 1.36 1.36 0 0 0-.356 2.696m-44.866 34.456c-27.405-3.608-46.766-28.84-43.158-56.246 3.608-27.406 28.84-46.767 56.245-43.159 27.406 3.608 46.768 28.84 43.16 56.246-3.609 27.406-28.84 46.767-56.247 43.16" fill="#663714"/><g clip-path="url(#graphics_2_l)" opacity=".3"><path d="M734.35 282.07c4.804 10.991 12.903 19.533 22.658 24.996-15.957-1.499-30.663-11.38-37.523-27.078-10.05-22.994.482-49.878 23.476-59.927a45.435 45.435 0 0 1 9.702-2.995c-20.372 14.44-28.606 41.451-18.313 65.003" fill="#351d03"/></g><g clip-path="url(#graphics_2_m)" opacity=".1"><path d="M449.318 687.919a9.91 9.91 0 0 1-6.369-2.322l-45.858-38.57 40.436 2.343 52.722 7.158-34.562 29.069a9.91 9.91 0 0 1-6.369 2.322M305.573 404.754v168.68l1.8 6.933a44.52 44.52 0 0 0 5.04 11.168l-4.133 30.44c-.649 4.788 2.308 9.249 6.78 10.633a9.687 9.687 0 0 0 2.464 6.943 9.692 9.692 0 0 0 6.717 3.257l49.311 2.856 60.316 50.73a24.041 24.041 0 0 0 15.45 5.633c5.644 0 11.13-2.001 15.45-5.633l44.352-37.303 46.421 6.302c.433.059.875.089 1.311.089 4.86 0 9.017-3.63 9.67-8.444l.044-.33c4.675-.51 8.396-4.34 8.673-9.135l2.686-46.36a44.123 44.123 0 0 0 13.342-20.843l1.795-6.936v-168.68z" fill="#20313f"/></g><path d="M454.318 692.919a9.91 9.91 0 0 1-6.369-2.322l-45.858-38.57 40.436 2.343 52.722 7.158-34.562 29.069a9.91 9.91 0 0 1-6.369 2.322M310.573 409.754v168.68l1.8 6.933a44.52 44.52 0 0 0 5.04 11.168l-4.133 30.44c-.649 4.788 2.308 9.249 6.78 10.633a9.687 9.687 0 0 0 2.464 6.943 9.692 9.692 0 0 0 6.717 3.257l49.311 2.856 60.316 50.73a24.041 24.041 0 0 0 15.45 5.633c5.644 0 11.13-2.001 15.45-5.633l44.352-37.303 46.421 6.302c.433.059.875.089 1.311.089 4.86 0 9.017-3.63 9.67-8.444l.044-.33c4.675-.51 8.396-4.34 8.673-9.135l2.686-46.36a44.123 44.123 0 0 0 13.342-20.843l1.795-6.936v-168.68z" fill="#25353a"/><g clip-path="url(#graphics_2_n)" opacity=".1"><path d="M705.334 434.182c-8.173-3.017-17.277 1.18-20.295 9.354l-37.4 101.358c-3.005 8.14 1.164 17.234 9.293 20.272l73.076 26.965c8.173 3.016 17.277-1.18 20.294-9.353l37.401-101.359c3.005-8.14-1.164-17.234-9.29-20.27-.002-.002-73.079-26.967-73.079-26.967" fill="#20313f"/></g><path d="M441.443 698.333L328.88 603.66a40.15 40.15 0 0 1-14.306-30.726v-159.18h279.49v159.18a40.15 40.15 0 0 1-14.307 30.726l-112.564 94.672c-7.442 6.259-18.308 6.259-25.75 0" fill="#f2a100"/><path d="M587.955 419.863H320.682v153.072a33.964 33.964 0 0 0 12.13 26.05l112.563 94.673a13.916 13.916 0 0 0 8.944 3.262c3.267 0 6.443-1.16 8.943-3.261l112.563-94.673a33.964 33.964 0 0 0 12.13-26.051zm-8.198 183.798l-112.563 94.672c-7.443 6.259-18.308 6.259-25.751 0L328.88 603.66a40.15 40.15 0 0 1-14.306-30.726v-159.18h279.489v159.18a40.15 40.15 0 0 1-14.306 30.726" fill="#ffae1f"/><path d="M579.126 503.08l-240.693-13.944c-3.162-.183-5.898 2.253-6.08 5.415l-8.295 143.183c-.183 3.161 2.253 5.897 5.414 6.08l240.694 13.943c3.161.183 5.897-2.254 6.08-5.415l8.294-143.183c.184-3.16-2.253-5.897-5.414-6.08" fill="#fff"/><path d="M581.925 512.901L343.02 480.464c-3.138-.426-6.053 1.792-6.48 4.93l-19.295 142.12c-.426 3.137 1.792 6.052 4.93 6.478L561.08 666.43c3.137.426 6.053-1.793 6.479-4.93l19.296-142.12c.426-3.137-1.792-6.053-4.93-6.479" fill="#fff"/><path d="M557.842 612.62l-213.034-28.924-.482 3.55L557.36 616.17z" fill="#85cce8"/><path d="M342.337 608.972l2.193.298 1.335-9.828-2.195-.298zM353.823 610.532l2.193.298 1.335-9.828-2.194-.298-5.518 5.523.837-6.16-2.194-.297-1.334 9.828 2.052.279 5.682-5.672zM362.912 605.394l1.653 6.596 2.376.323-2.616-10.364-1.856-.252-5.285 9.29 2.376.324zM376.065 608.604c-.119.876-.502 1.586-1.148 2.128-.646.543-1.38.758-2.2.647-.82-.112-1.469-.515-1.948-1.21-.478-.695-.658-1.48-.539-2.357.12-.877.501-1.584 1.147-2.12.646-.539 1.38-.752 2.2-.64.82.111 1.47.512 1.948 1.202.48.69.66 1.474.54 2.35m1.236-3.512c-.862-1.105-2.019-1.756-3.472-1.954-1.453-.197-2.742.122-3.868.957-1.125.836-1.785 1.975-1.98 3.418-.197 1.444.135 2.718.997 3.823s2.02 1.757 3.473 1.954c1.452.197 2.741-.122 3.867-.957 1.125-.836 1.786-1.975 1.982-3.418.196-1.444-.137-2.718-.999-3.823M379.497 614.018l2.193.298 1.335-9.828-2.194-.298zM389.693 607.369c1.078.146 1.901.692 2.469 1.638l1.603-1.257c-.945-1.407-2.174-2.214-3.688-2.42-1.514-.205-2.825.104-3.935.927-1.109.823-1.762 1.963-1.96 3.42-.198 1.458.136 2.742 1.001 3.853.866 1.11 2.021 1.763 3.465 1.959 1.612.219 3.045-.212 4.299-1.292l-1.154-1.732c-.811.768-1.731 1.083-2.762.943-.825-.112-1.494-.477-2.007-1.096-.512-.62-.707-1.385-.583-2.3.124-.913.5-1.61 1.129-2.086a2.758 2.758 0 0 1 2.123-.557M401.487 617.003l.265-1.954-4.893-.665.275-2.024 4.401.597.254-1.87-4.4-.597.276-2.039 5.047.685.264-1.94-7.24-.983-1.335 9.828z" fill="#2282a8"/><path d="M423.714 563.171l-71.956-9.77a2.811 2.811 0 0 0-.757 5.57l71.957 9.77a2.81 2.81 0 0 0 .756-5.57M412.424 537.772l-57.484-7.805a2.81 2.81 0 0 0-.757 5.57l57.485 7.805a2.81 2.81 0 0 0 .756-5.57M389.785 546.631l-36.437-4.947a2.81 2.81 0 0 0-.756 5.57l36.437 4.947a2.81 2.81 0 0 0 .756-5.57M451.538 555.016l-51.322-6.968a2.81 2.81 0 1 0-.756 5.57l51.322 6.968a2.81 2.81 0 0 0 .756-5.57" fill="#aad8e8"/><path d="M594.063 579.412l-279.49-165.657h279.49z" fill="#ffb636"/><path d="M314.574 579.412l279.489-165.657h-279.49z" fill="#ffbf3e"/><g clip-path="url(#graphics_2_o)" opacity=".05"><path d="M594.063 579.412l-139.745-71.945-139.744 71.945 139.744-82.83z"/></g><path d="M708.268 440.616c-8.173-3.017-17.277 1.18-20.295 9.354l-37.401 101.358c-3.004 8.14 1.165 17.234 9.294 20.272l73.076 26.965c8.173 3.016 17.277-1.18 20.294-9.354l37.4-101.358c3.006-8.14-1.163-17.234-9.29-20.27-.001-.002-73.078-26.967-73.078-26.967" fill="#25353a"/><path d="M779.898 471.311l-73.015-26.943c-6.09-2.247-12.911.897-15.158 6.987l-37.4 101.358c-2.247 6.09.896 12.91 6.986 15.157l73.015 26.943c6.09 2.247 12.91-.897 15.157-6.987l37.4-101.358c2.248-6.089-.895-12.91-6.985-15.157" fill="#454747"/><path d="M743.616 569.174l-72.715-26.832a4.203 4.203 0 0 0-5.382 2.481l-3.47 9.404a4.202 4.202 0 0 0 2.481 5.382l72.715 26.832a4.203 4.203 0 0 0 5.382-2.481l3.47-9.404a4.203 4.203 0 0 0-2.48-5.382" fill="#539cc4"/><path d="M691.141 520.439l-11.279-4.162a3.586 3.586 0 0 0-4.59 2.116l-4.163 11.279a3.585 3.585 0 0 0 2.116 4.59l11.28 4.163a3.584 3.584 0 0 0 4.59-2.116l4.162-11.28a3.585 3.585 0 0 0-2.116-4.59M711.968 528.124l-11.28-4.162a3.586 3.586 0 0 0-4.59 2.116l-4.162 11.279a3.585 3.585 0 0 0 2.116 4.59l11.279 4.162a3.584 3.584 0 0 0 4.59-2.116l4.163-11.279a3.585 3.585 0 0 0-2.116-4.59M732.794 535.808l-11.28-4.162a3.585 3.585 0 0 0-4.59 2.116l-4.162 11.28a3.585 3.585 0 0 0 2.116 4.59l11.279 4.162a3.585 3.585 0 0 0 4.59-2.116l4.163-11.279a3.585 3.585 0 0 0-2.116-4.59" fill="#bdc3c7"/><path d="M753.62 543.493l-11.28-4.162a3.586 3.586 0 0 0-4.59 2.116l-4.162 11.28a3.585 3.585 0 0 0 2.116 4.59l11.279 4.162a3.584 3.584 0 0 0 4.59-2.116l4.163-11.279a3.585 3.585 0 0 0-2.116-4.59" fill="#d35400"/><path d="M698.787 499.719l-11.279-4.162a3.586 3.586 0 0 0-4.59 2.116l-4.163 11.279a3.585 3.585 0 0 0 2.116 4.59l11.28 4.163a3.584 3.584 0 0 0 4.59-2.116l4.162-11.28a3.585 3.585 0 0 0-2.116-4.59M719.613 507.403l-11.279-4.162a3.586 3.586 0 0 0-4.59 2.116l-4.163 11.28a3.585 3.585 0 0 0 2.116 4.59l11.28 4.162a3.584 3.584 0 0 0 4.59-2.116l4.162-11.279a3.585 3.585 0 0 0-2.116-4.59M740.44 515.088l-11.28-4.162a3.586 3.586 0 0 0-4.59 2.116l-4.163 11.28a3.585 3.585 0 0 0 2.116 4.59l11.28 4.162a3.584 3.584 0 0 0 4.59-2.116l4.162-11.279a3.585 3.585 0 0 0-2.116-4.59" fill="#bdc3c7"/><path d="M761.265 522.773l-11.279-4.162a3.585 3.585 0 0 0-4.59 2.116l-4.162 11.28a3.585 3.585 0 0 0 2.115 4.59l11.28 4.162a3.585 3.585 0 0 0 4.59-2.116l4.162-11.279a3.585 3.585 0 0 0-2.116-4.59" fill="#d35400"/><path d="M706.433 478.999l-11.28-4.162a3.586 3.586 0 0 0-4.59 2.116l-4.162 11.279a3.585 3.585 0 0 0 2.116 4.59l11.279 4.163a3.584 3.584 0 0 0 4.59-2.116l4.163-11.28a3.585 3.585 0 0 0-2.116-4.59M727.259 486.683l-11.279-4.162a3.586 3.586 0 0 0-4.591 2.116l-4.162 11.28a3.585 3.585 0 0 0 2.116 4.59l11.279 4.162a3.584 3.584 0 0 0 4.591-2.116l4.162-11.279a3.585 3.585 0 0 0-2.116-4.59M748.085 494.368l-11.279-4.162a3.586 3.586 0 0 0-4.59 2.116l-4.163 11.28a3.585 3.585 0 0 0 2.116 4.59l11.28 4.162a3.584 3.584 0 0 0 4.59-2.116l4.162-11.279a3.585 3.585 0 0 0-2.116-4.59" fill="#bdc3c7"/><path d="M768.911 502.053l-11.279-4.162a3.586 3.586 0 0 0-4.59 2.116l-4.163 11.279a3.585 3.585 0 0 0 2.116 4.591l11.28 4.162a3.584 3.584 0 0 0 4.59-2.116l4.162-11.279a3.585 3.585 0 0 0-2.116-4.591" fill="#d35400"/><path d="M755.73 473.648l-11.278-4.162a3.586 3.586 0 0 0-4.591 2.116l-4.162 11.28a3.585 3.585 0 0 0 2.116 4.59l11.279 4.162a3.584 3.584 0 0 0 4.59-2.116l4.163-11.279a3.585 3.585 0 0 0-2.116-4.59" fill="#bdc3c7"/><path d="M776.557 481.333l-11.28-4.162a3.586 3.586 0 0 0-4.59 2.116l-4.162 11.279a3.585 3.585 0 0 0 2.116 4.59l11.279 4.163a3.584 3.584 0 0 0 4.59-2.116l4.163-11.28a3.585 3.585 0 0 0-2.116-4.59" fill="#d35400"/><path d="M753.434 543.997l-11.279-4.162a3.585 3.585 0 0 0-4.591 2.116l-4.162 11.279a3.585 3.585 0 0 0 2.116 4.59l11.279 4.163a3.585 3.585 0 0 0 4.591-2.116l4.162-11.28a3.585 3.585 0 0 0-2.116-4.59M761.08 523.277l-11.28-4.162a3.585 3.585 0 0 0-4.59 2.116l-4.162 11.279a3.585 3.585 0 0 0 2.116 4.59l11.279 4.163a3.584 3.584 0 0 0 4.59-2.116l4.163-11.28a3.585 3.585 0 0 0-2.116-4.59M768.725 502.557l-11.279-4.162a3.586 3.586 0 0 0-4.59 2.116l-4.163 11.279a3.585 3.585 0 0 0 2.116 4.59l11.28 4.163a3.584 3.584 0 0 0 4.59-2.116l4.162-11.28a3.585 3.585 0 0 0-2.116-4.59M776.371 481.837l-11.279-4.162a3.586 3.586 0 0 0-4.591 2.116l-4.162 11.279a3.585 3.585 0 0 0 2.116 4.59l11.279 4.162a3.584 3.584 0 0 0 4.591-2.116l4.162-11.279a3.585 3.585 0 0 0-2.116-4.59" fill="#e67e22"/><path d="M728.268 483.95l-5.078-1.874-6.201-2.289-9.547-3.523-3.89-1.435-7.39-2.727a3.585 3.585 0 0 1-2.115-4.59l4.162-11.28a3.586 3.586 0 0 1 4.59-2.116l7.39 2.727 3.89 1.435 9.547 3.523 6.2 2.288 5.079 1.874a3.585 3.585 0 0 1 2.116 4.591l-4.162 11.28a3.585 3.585 0 0 1-4.591 2.116" fill="#bdc3c7"/><path d="M690.956 520.942l-11.28-4.162a3.586 3.586 0 0 0-4.59 2.116l-4.162 11.28a3.585 3.585 0 0 0 2.116 4.59l11.279 4.162a3.584 3.584 0 0 0 4.59-2.116l4.163-11.279a3.585 3.585 0 0 0-2.116-4.59M711.782 528.627l-11.28-4.162a3.586 3.586 0 0 0-4.59 2.116l-4.162 11.28a3.585 3.585 0 0 0 2.116 4.59l11.279 4.162a3.584 3.584 0 0 0 4.59-2.116l4.163-11.279a3.585 3.585 0 0 0-2.116-4.59M732.608 536.312l-11.28-4.162a3.586 3.586 0 0 0-4.59 2.116l-4.162 11.279a3.585 3.585 0 0 0 2.116 4.591l11.279 4.162a3.584 3.584 0 0 0 4.59-2.116l4.163-11.279a3.585 3.585 0 0 0-2.116-4.591M698.601 500.222l-11.279-4.162a3.586 3.586 0 0 0-4.59 2.116l-4.163 11.28a3.585 3.585 0 0 0 2.116 4.59l11.28 4.162a3.584 3.584 0 0 0 4.59-2.116l4.162-11.279a3.585 3.585 0 0 0-2.116-4.59M719.428 507.907l-11.28-4.162a3.586 3.586 0 0 0-4.59 2.116l-4.162 11.28a3.585 3.585 0 0 0 2.116 4.59l11.279 4.162a3.584 3.584 0 0 0 4.59-2.116l4.162-11.279a3.585 3.585 0 0 0-2.116-4.59M740.254 515.592l-11.28-4.162a3.586 3.586 0 0 0-4.59 2.116l-4.162 11.279a3.585 3.585 0 0 0 2.116 4.59l11.279 4.163a3.584 3.584 0 0 0 4.59-2.116l4.162-11.28a3.585 3.585 0 0 0-2.116-4.59M706.247 479.502l-11.279-4.162a3.586 3.586 0 0 0-4.591 2.116l-4.162 11.28a3.585 3.585 0 0 0 2.116 4.59l11.279 4.162a3.584 3.584 0 0 0 4.591-2.116l4.162-11.279a3.585 3.585 0 0 0-2.116-4.59M727.073 487.187l-11.279-4.162a3.586 3.586 0 0 0-4.59 2.116l-4.163 11.279a3.585 3.585 0 0 0 2.116 4.591l11.28 4.162a3.584 3.584 0 0 0 4.59-2.116l4.162-11.279a3.585 3.585 0 0 0-2.116-4.591M747.9 494.872l-11.28-4.162a3.586 3.586 0 0 0-4.59 2.116l-4.163 11.279a3.585 3.585 0 0 0 2.116 4.59l11.28 4.163a3.584 3.584 0 0 0 4.59-2.116l4.162-11.28a3.585 3.585 0 0 0-2.116-4.59M755.545 474.152l-11.28-4.162a3.586 3.586 0 0 0-4.59 2.116l-4.162 11.279a3.585 3.585 0 0 0 2.116 4.59l11.279 4.163a3.584 3.584 0 0 0 4.59-2.116l4.163-11.28a3.585 3.585 0 0 0-2.116-4.59M728.082 484.453l-5.078-1.874-6.201-2.288-9.547-3.523-3.89-1.435-7.39-2.727a3.585 3.585 0 0 1-2.115-4.59l4.162-11.28a3.586 3.586 0 0 1 4.59-2.116l7.39 2.727 3.89 1.435 9.547 3.523 6.2 2.288 5.079 1.874a3.585 3.585 0 0 1 2.116 4.591l-4.162 11.28a3.585 3.585 0 0 1-4.591 2.115" fill="#fff"/><path d="M291.142 262.403c-36.333-15.349-62.18-25.109-76.824-29.007-10.375-2.761-13.724-2.247-15.797-1.281-15.549 7.249-38.857 24.081-39.842 24.794-1.512 1.094-2.352 2.734-2.304 4.497.05 1.764.978 3.356 2.55 4.366l25.623 16.47c.953.613 2.527 1.594 3.498 2.18l24.231 14.643c.372.225.792.436 1.25.629 1.452.614 3.127.992 4.48 1.012l23.986.349c.583.009 1.814.267 2.351.494l161.931 68.407c2.41 1.017 5.495.558 7.503-1.117l7.452-6.219 37.545 15.861-.575-6.615c-1.746-20.11-5.504-22.253-6.738-22.957-.683-.39-.94-.771-1.034-.968l.37-2.854-2.83-.502-16.085-6.794-.56-6.833c-.08-.995-.412-2.022-.95-2.971-.559-2.159-2.116-4.116-4.067-5.033-.725-.34-73.112-34.337-135.164-60.551" fill="#25353a"/><g clip-path="url(#graphics_2_p)" opacity=".1"><path d="M288.482 255.851c-36.333-15.349-62.18-25.109-76.824-29.007-10.375-2.76-13.724-2.247-15.797-1.28-15.549 7.248-38.857 24.08-39.842 24.793-1.512 1.094-2.352 2.734-2.304 4.497.049 1.764.978 3.356 2.549 4.366l25.624 16.47c.953.613 2.527 1.594 3.498 2.18l24.231 14.643c.372.225.793.436 1.249.63 1.453.613 3.128.991 4.48 1.011l23.987.35c.583.008 1.814.266 2.351.493l161.931 68.407c2.409 1.017 5.495.558 7.503-1.117l7.452-6.219 37.545 15.861-.575-6.615c-1.746-20.11-5.504-22.253-6.738-22.957-.683-.39-.941-.77-1.034-.968l.369-2.854-2.83-.502-16.084-6.794-.56-6.833c-.081-.995-.412-2.022-.951-2.97-.558-2.16-2.115-4.117-4.066-5.034-.725-.34-73.112-34.337-135.164-60.55" fill="#20313f"/></g><path d="M449.48 352.383c3.17 1.808 4.735 19.83 4.735 19.83l-27.107-11.453-9.536-4.028-136.697-57.747 7.4-17.518 136.363 57.605 9.87 4.17 11.903 5.028s.102 2.42 3.07 4.113" fill="#dce9f1"/><path d="M438.139 364.768l-5.664-21.733M425.05 359.24l-5.663-21.733" fill="none" stroke="#b4ccd8" stroke-width="1.375" stroke-miterlimit="10"/><path d="M411.73 354.264l-5.198-22.84M398.641 348.735l-5.197-22.84M385.554 343.206l-5.197-22.84M372.466 337.677l-5.197-22.84M359.378 332.149l-5.197-22.84M346.29 326.62l-5.197-22.84M333.202 321.09l-5.197-22.84M320.115 315.562l-5.197-22.84M307.027 310.033l-5.197-22.84M293.939 304.504l-5.197-22.84" fill="none" stroke="#b4ccd8" stroke-width="1.421" stroke-miterlimit="10"/><g clip-path="url(#graphics_2_q)" opacity=".2"><path d="M453.58 366.617c.12.899.224 1.736.31 2.478l-165.181-69.78.84-1.991z" fill="#fff"/></g><path d="M193.857 283.26l-3.745-2.263c-.943-.57-2.473-1.524-3.401-2.12l-25.623-16.47c-.927-.596-.955-1.612-.063-2.259 0 0 23.805-17.237 39.187-24.408 1.86-.866 6.446-.244 13.077 1.521z" fill="#afd33d"/><path d="M293.417 284.291l-6.983 16.53 104.849 44.293a4.813 4.813 0 0 0 6.307-2.56l3.237-7.663a4.813 4.813 0 0 0-2.561-6.307zm131.186 42.282c.998.47 1.888 1.752 1.978 2.85l1.641 20.016c.09 1.098-.528 2.575-1.375 3.281l-15.631 13.047c-.846.706-2.369.933-3.384.504l-161.931-68.407c-1.015-.429-2.748-.793-3.85-.809l-23.986-.349c-1.102-.016-2.776-.495-3.719-1.065l-20.489-12.38 19.432-46c49.214 13.103 211.314 89.312 211.314 89.312" fill="#5ea2cc"/><g clip-path="url(#graphics_2_r)" opacity=".2"><path d="M425.36 328.435c.996.47 1.886 1.751 1.976 2.85l1.642 20.015c.01.121-.019.258-.026.386l-1.413-17.23c-.09-1.099-.98-2.382-1.977-2.85 0 0-162.1-76.21-211.315-89.313-6.63-1.766-11.217-2.388-13.076-1.52-13.938 6.497-32.994 20.073-36.787 22.79l-.744-.479c-.927-.596-.955-1.613-.063-2.259 0 0 22.008-16.052 37.391-23.223 1.86-.867 6.445-.245 13.076 1.521 49.214 13.103 211.315 89.312 211.315 89.312"/></g><g clip-path="url(#graphics_2_s)" opacity=".1"><path d="M187.614 273.09c.927.595 2.458 1.55 3.401 2.12l3.745 2.262 20.49 12.381c.942.57 2.615 1.05 3.717 1.065l23.987.35c1.102.015 2.834.38 3.85.808l161.93 68.407c1.016.43 2.54.202 3.385-.504l15.631-13.047c.753-.628 1.296-1.856 1.35-2.896l.228 2.785c.09 1.1-.529 2.575-1.375 3.282l-15.63 13.046c-.847.706-2.37.933-3.386.504l-161.93-68.406c-1.016-.429-2.748-.793-3.85-.809l-23.987-.349c-1.102-.016-2.775-.496-3.718-1.066l-20.489-12.38-3.745-2.264c-.943-.57-2.474-1.524-3.4-2.12l-23.657-14.99c-.928-.597-.956-1.613-.063-2.259 0 0 .21-.153.603-.434z" fill="#fff"/></g><path d="M217.552 251.662l46.919 19.82 12.617 5.33c1.013.428.838 3.128-.388 6.029l-2.96 7.007c-1.225 2.902-3.04 4.909-4.051 4.48l-59.537-25.15z" fill="#e5954b"/><path d="M274.876 272.327a5.705 5.705 0 0 0-7.475 3.035l-5.55 13.137a5.705 5.705 0 0 0 3.036 7.475l17.515 7.4a5.705 5.705 0 0 0 7.475-3.036l5.55-13.137a5.706 5.706 0 0 0-3.035-7.475zM212.08 249.35l-7.352 17.408 9.699 4.097 7.353-17.408z" fill="#e8d756"/><path d="M289.282 282.321l-7.187 17.014 1.308.553 7.188-17.014zM284.047 280.11l-7.187 17.014 1.308.553 7.188-17.014zM278.812 277.898l-7.188 17.014 1.309.553 7.188-17.014zM273.577 275.687L266.39 292.7l1.308.553 7.188-17.014z" fill="#d3c248"/><g clip-path="url(#graphics_2_t)" opacity=".1"><path d="M576.565 693.184c-21.75 0-39.444 17.694-39.444 39.443 0 21.75 17.694 39.444 39.444 39.444 21.75 0 39.444-17.694 39.444-39.444 0-21.749-17.694-39.443-39.444-39.443" fill="#20313f"/></g><g><path d="M581.565 698.184c-21.75 0-39.444 17.694-39.444 39.443 0 21.75 17.694 39.444 39.444 39.444 21.75 0 39.444-17.694 39.444-39.444 0-21.749-17.694-39.443-39.444-39.443" fill="#25353a"/></g><g><path d="M617.009 737.628c0-19.575-15.87-35.444-35.444-35.444-19.575 0-35.444 15.869-35.444 35.444 0 19.575 15.869 35.444 35.444 35.444 19.575 0 35.444-15.87 35.444-35.444" fill="#ffd066"/></g><g><path d="M581.565 708.694c-15.954 0-28.934 12.98-28.934 28.934s12.98 28.933 28.934 28.933 28.934-12.979 28.934-28.933-12.98-28.934-28.934-28.934m0 60.037c-17.178 0-31.104-13.925-31.104-31.103 0-17.179 13.926-31.104 31.104-31.104 17.178 0 31.104 13.925 31.104 31.104 0 17.178-13.926 31.103-31.104 31.103" fill="#ebab06"/></g><g><path d="M580.12 723.657c-2.33.16-4.46.857-6.388 2.089l1.929 4.68c2.062-1.446 4.09-2.17 6.086-2.17 3.066 0 4.6 1.058 4.6 3.174 0 1.058-.392 2.052-1.175 2.983-.784.93-2.27 1.945-4.46 3.043s-3.68 2.009-4.47 2.732a7.305 7.305 0 0 0-1.817 2.59c-.421 1.005-.632 2.124-.632 3.356 0 1.82.572 3.428 1.717 4.82 1.145 1.393 2.682 2.324 4.61 2.792v3.636h4.6l-.02-3.434c2.463-.241 4.298-.844 5.504-1.808l-1.587-4.5c-1.835 1.313-3.77 1.969-5.805 1.969-1.205 0-2.14-.325-2.803-.975-.662-.65-.994-1.47-.994-2.46 0-1.687 1.868-3.442 5.604-5.263 1.969-.964 3.388-1.851 4.259-2.661a8.186 8.186 0 0 0 1.988-2.832c.456-1.078.683-2.281.683-3.606 0-1.875-.602-3.512-1.807-4.911-1.206-1.4-2.88-2.36-5.022-2.882v-4.621h-4.6z" fill="#ebab06"/></g><g><g clip-path="url(#graphics_2_u)" opacity=".1"><path d="M741.883 617.286c-21.75 0-39.444 17.694-39.444 39.443 0 21.75 17.694 39.444 39.444 39.444 21.75 0 39.444-17.694 39.444-39.444 0-21.749-17.694-39.443-39.444-39.443" fill="#20313f"/></g></g><g><path d="M746.883 622.286c-21.75 0-39.444 17.694-39.444 39.443 0 21.75 17.694 39.444 39.444 39.444 21.75 0 39.444-17.694 39.444-39.444 0-21.749-17.694-39.443-39.444-39.443" fill="#25353a"/></g><g><path d="M782.327 661.73c0-19.575-15.869-35.444-35.444-35.444-19.575 0-35.444 15.869-35.444 35.444 0 19.575 15.87 35.444 35.444 35.444 19.575 0 35.444-15.87 35.444-35.444" fill="#ffd066"/></g><g><path d="M746.883 632.796c-15.954 0-28.934 12.98-28.934 28.934s12.98 28.933 28.934 28.933 28.934-12.979 28.934-28.933-12.98-28.934-28.934-28.934m0 60.037c-17.178 0-31.104-13.925-31.104-31.103 0-17.179 13.926-31.104 31.104-31.104 17.178 0 31.104 13.925 31.104 31.104 0 17.178-13.926 31.103-31.104 31.103" fill="#ebab06"/></g><g><path d="M745.438 647.758c-2.33.16-4.459.857-6.388 2.09l1.93 4.68c2.061-1.447 4.09-2.17 6.085-2.17 3.066 0 4.6 1.057 4.6 3.173 0 1.058-.392 2.052-1.175 2.983-.784.931-2.27 1.945-4.459 3.043-2.19 1.098-3.68 2.01-4.47 2.732a7.305 7.305 0 0 0-1.818 2.591c-.42 1.004-.632 2.123-.632 3.355 0 1.821.572 3.428 1.717 4.821 1.145 1.392 2.682 2.323 4.61 2.791v3.636h4.6l-.02-3.434c2.463-.24 4.298-.844 5.504-1.808l-1.587-4.5c-1.835 1.313-3.77 1.97-5.805 1.97-1.205 0-2.14-.326-2.803-.976-.662-.649-.994-1.469-.994-2.46 0-1.687 1.868-3.442 5.604-5.263 1.97-.964 3.388-1.85 4.26-2.66a8.186 8.186 0 0 0 1.987-2.833c.456-1.078.683-2.28.683-3.606 0-1.875-.602-3.512-1.807-4.91-1.206-1.4-2.88-2.36-5.022-2.883v-4.62h-4.6z" fill="#ebab06"/></g></g></svg>
