<svg class="graphics graphics-2" xmlns="http://www.w3.org/2000/svg" viewBox="0 0 1333.333 1333.333" height="1333.333" width="1333.333"><defs><clipPath id="a" clipPathUnits="userSpaceOnUse"><path d="M0 1000h1000V0H0z"/></clipPath><clipPath id="b" clipPathUnits="userSpaceOnUse"><path d="M130.961 728.973h805.994V273.152H130.961z"/></clipPath><clipPath id="c" clipPathUnits="userSpaceOnUse"><path d="M0 1000h1000V0H0z"/></clipPath><clipPath id="d" clipPathUnits="userSpaceOnUse"><path d="M748.735 631.714h22.206v-22.207h-22.206z"/></clipPath><clipPath id="e" clipPathUnits="userSpaceOnUse"><path d="M513.384 902.203h8.881v-8.881h-8.881z"/></clipPath><clipPath id="f" clipPathUnits="userSpaceOnUse"><path d="M809.144 257.055h16.963v-16.962h-16.963z"/></clipPath><clipPath id="g" clipPathUnits="userSpaceOnUse"><path d="M197.036 389.796h15.478v-17.503h-15.478z"/></clipPath><clipPath id="h" clipPathUnits="userSpaceOnUse"><path d="M414.391 182.626h18.089v-18.089h-18.089z"/></clipPath><clipPath id="i" clipPathUnits="userSpaceOnUse"><path d="M0 1000h1000V0H0z"/></clipPath><clipPath id="j" clipPathUnits="userSpaceOnUse"><path d="M337.31 783.874h364.089V296.037H337.31z"/></clipPath><clipPath id="k" clipPathUnits="userSpaceOnUse"><path d="M350.477 780.707h356.089V300.87H350.477z"/></clipPath><clipPath id="l" clipPathUnits="userSpaceOnUse"><path d="M202.228 863.334h258.58V805.47h-258.58z"/></clipPath><clipPath id="m" clipPathUnits="userSpaceOnUse"><path d="M743.785 590.366h37.616V274.081h-37.616z"/></clipPath><clipPath id="n" clipPathUnits="userSpaceOnUse"><path d="M109.341 732.769h285.308V516.525H109.341z"/></clipPath><clipPath id="o" clipPathUnits="userSpaceOnUse"><path d="M757.379 540.002h6.758V299.111h-6.758z"/></clipPath><clipPath id="p" clipPathUnits="userSpaceOnUse"><path d="M774.428 540.002h5.068V299.111h-5.068z"/></clipPath><clipPath id="q" clipPathUnits="userSpaceOnUse"><path d="M760.395 552.172h3.21v-14.497h-3.21z"/></clipPath><clipPath id="r" clipPathUnits="userSpaceOnUse"><path d="M772.581 552.172h2.436v-14.497h-2.436z"/></clipPath><clipPath id="s" clipPathUnits="userSpaceOnUse"><path d="M228.345 493.878h78.888V414.99h-78.888z"/></clipPath><clipPath id="t" clipPathUnits="userSpaceOnUse"><path d="M142.945 337.029h242.941V123.354H142.945z"/></clipPath><clipPath id="u" clipPathUnits="userSpaceOnUse"><path d="M651.029 743.781h78.888v-78.888h-78.888z"/></clipPath></defs><g clip-path="url(#a)" transform="matrix(1.33333 0 0 -1.33333 0 1333.333)"><g clip-path="url(#b)" opacity=".1"><path d="M891.373 728.973H243.73c-25.07 0-45.582-20.512-45.582-45.582s20.512-45.582 45.582-45.582h64.64c25.071 0 45.582-20.512 45.582-45.582s-20.511-45.582-45.582-45.582h-6.172c-25.071 0-45.582-20.512-45.582-45.582s20.511-45.583 45.582-45.583h97.487c25.07 0 45.582-20.512 45.582-45.582 0-25.069-20.511-45.58-45.58-45.582H176.543c-25.07 0-45.582-20.512-45.582-45.582s20.512-45.582 45.582-45.582h659.264c25.07 0 45.582 20.512 45.582 45.582s-20.512 45.582-45.582 45.582h-80.313c-25.069.002-45.579 20.513-45.579 45.582 0 25.07 20.512 45.582 45.582 45.582h17.982c25.07 0 45.582 20.512 45.582 45.582v.001c0 25.07-20.512 45.582-45.582 45.582h-42.433c-25.07 0-45.582 20.512-45.582 45.582s20.512 45.582 45.582 45.582h160.327c25.07 0 45.582 20.512 45.582 45.582s-20.512 45.582-45.582 45.582" fill="#20313f"/></g></g><g clip-path="url(#c)" transform="matrix(1.33333 0 0 -1.33333 0 1333.333)"><path d="M148.177 461.94a5.01 5.01 0 0 1-5.005-5.005 5.01 5.01 0 0 1 5.005-5.005 5.01 5.01 0 0 1 5.004 5.005 5.01 5.01 0 0 1-5.004 5.005m0-14.603c-5.292 0-9.598 4.306-9.598 9.598 0 5.292 4.306 9.598 9.598 9.598 5.292 0 9.597-4.306 9.597-9.598 0-5.292-4.305-9.598-9.597-9.598" fill="#3d90c9"/><g clip-path="url(#d)" opacity=".2"><path d="M759.839 626.4a5.796 5.796 0 0 1-5.79-5.79 5.796 5.796 0 0 1 5.79-5.789 5.795 5.795 0 0 1 5.788 5.79 5.796 5.796 0 0 1-5.788 5.79m0-16.894c-6.122 0-11.103 4.981-11.103 11.103s4.98 11.104 11.103 11.104c6.122 0 11.102-4.982 11.102-11.104 0-6.122-4.98-11.103-11.102-11.103" fill="#20313f"/></g><path d="M776.845 793.137a6.037 6.037 0 0 1-8.528 0 6.037 6.037 0 0 1 0-8.528 6.037 6.037 0 0 1 8.527.001 6.037 6.037 0 0 1 0 8.527m-12.44-12.44c-4.508 4.508-4.508 11.845 0 16.353 4.509 4.51 11.846 4.51 16.354 0 4.509-4.508 4.508-11.845-.001-16.353-4.508-4.508-11.844-4.509-16.353 0M632.792 847.12h-4.39v3.325a2.417 2.417 0 1 1-4.836 0v-3.324h-4.392a2.418 2.418 0 1 1 0-4.835h4.392v-3.324a2.418 2.418 0 0 1 4.835 0v3.324h4.391a2.418 2.418 0 0 1 0 4.835M410.556 929.004a4.724 4.724 0 0 1-4.719-4.72 4.724 4.724 0 0 1 4.72-4.717 4.723 4.723 0 0 1 4.716 4.718 4.723 4.723 0 0 1-4.717 4.719m0-13.768c-4.989 0-9.049 4.06-9.049 9.049 0 4.99 4.06 9.05 9.05 9.05 4.988 0 9.047-4.06 9.047-9.05 0-4.99-4.059-9.05-9.048-9.05M247.734 775.93a4.441 4.441 0 1 0-8.882 0 4.441 4.441 0 0 0 8.882 0" fill="#3d90c9"/><g clip-path="url(#e)" opacity=".2"><path d="M522.265 897.762a4.44 4.44 0 1 0-8.88 0 4.44 4.44 0 0 0 8.88 0" fill="#20313f"/></g><path d="M881.734 264.755v4.848h3.67a2.669 2.669 0 0 1 0 5.337h-3.67v4.849a2.67 2.67 0 0 1-5.338 0v-4.85h-3.67a2.67 2.67 0 0 1 0-5.336h3.67v-4.848a2.67 2.67 0 0 1 5.338 0M581.734 244.755v4.848h3.67a2.669 2.669 0 0 1 0 5.337h-3.67v4.849a2.67 2.67 0 0 1-5.338 0v-4.85h-3.67a2.67 2.67 0 0 1 0-5.336h3.67v-4.848a2.67 2.67 0 0 1 5.338 0" fill="#3d90c9"/><g clip-path="url(#f)" opacity=".2"><path d="M822.048 248.574a4.428 4.428 0 0 1-4.423 4.423 4.428 4.428 0 0 1-4.422-4.423 4.427 4.427 0 0 1 4.422-4.422 4.428 4.428 0 0 1 4.423 4.422m-12.904 0c0 4.676 3.805 8.482 8.481 8.482 4.677 0 8.482-3.806 8.482-8.482 0-4.676-3.805-8.481-8.482-8.481-4.676 0-8.48 3.805-8.48 8.48" fill="#20313f"/></g><g><g clip-path="url(#g)" opacity=".2"><path d="M202.482 387.503v-4.165h-3.153a2.293 2.293 0 0 1 0-4.586h3.153v-4.166a2.293 2.293 0 0 1 4.586 0v4.166h3.153a2.293 2.293 0 0 1 0 4.586h-3.153v4.165a2.293 2.293 0 0 1-4.586 0" fill="#20313f"/></g></g><g><g clip-path="url(#h)" opacity=".2"><path d="M420.099 170.245a4.723 4.723 0 0 1 6.673 0 4.723 4.723 0 0 1 0 6.673 4.723 4.723 0 0 1-6.672 0 4.723 4.723 0 0 1-.001-6.673m9.735 9.735c3.528-3.528 3.528-9.269 0-12.797-3.528-3.528-9.27-3.528-12.797 0-3.528 3.528-3.527 9.268 0 12.796 3.528 3.528 9.269 3.53 12.797.001" fill="#20313f"/></g></g></g><g clip-path="url(#i)" transform="matrix(1.33333 0 0 -1.33333 0 1333.333)"><g clip-path="url(#j)" opacity=".1"><path d="M351.31 296.037c-7.72 0-14 6.281-14 14.001v459.834c0 7.721 6.28 14.001 14 14.001H687.4c7.72 0 14-6.28 14-14V310.037c0-7.72-6.28-14-14-14z" fill="#20313f"/></g><g clip-path="url(#k)" opacity=".5"><path d="M694.065 300.87H362.978c-6.876 0-12.5 5.625-12.5 12.5v454.836c0 6.875 5.624 12.5 12.5 12.5h331.087c6.876 0 12.501-5.625 12.501-12.5V313.37c0-6.876-5.625-12.501-12.5-12.501" fill="#231f20"/></g><path d="M356.31 301.037c-7.72 0-14 6.281-14 14.001v459.834c0 7.721 6.28 14.001 14 14.001H692.4c7.72 0 14-6.28 14-14V315.037c0-7.72-6.28-14-14-14z" fill="#25353a"/><path d="M692.399 305.037H356.31c-5.5 0-10 4.5-10 10v459.836c0 5.5 4.5 10 10 10H692.4c5.5 0 10-4.5 10-10V315.038c0-5.501-4.5-10.001-10-10.001" fill="#fff"/><path d="M463.168 747.096h4.873v-21.832h-4.873zM488.685 747.096h4.873v-21.832h-4.873l-10.4 13.68v-13.68h-4.873v21.832h4.56l10.713-14.055zM506.986 733.198l5.56 13.898h5.278l-8.776-21.831h-4.124l-8.775 21.83h5.277zM536.626 736.306c0 1.946-.624 3.607-1.874 4.98-1.249 1.376-2.785 2.063-4.607 2.063s-3.357-.687-4.606-2.062c-1.25-1.374-1.875-3.035-1.875-4.981 0-1.947.625-3.603 1.875-4.966 1.25-1.364 2.784-2.046 4.606-2.046s3.358.682 4.607 2.046c1.25 1.363 1.874 3.019 1.874 4.966m1.655-8.027c-2.207-2.155-4.924-3.232-8.15-3.232-3.228 0-5.945 1.077-8.152 3.232-2.208 2.155-3.312 4.836-3.312 8.042 0 3.207 1.104 5.888 3.311 8.043 2.207 2.155 4.924 3.232 8.152 3.232 3.227 0 5.944-1.077 8.151-3.232 2.208-2.155 3.311-4.836 3.311-8.043 0-3.206-1.103-5.887-3.31-8.042M545.714 747.096h4.873v-21.832h-4.873zM565.984 729.575c2.394 0 4.352.947 5.872 2.842l3.123-3.217c-2.478-2.791-5.399-4.185-8.76-4.185-3.364 0-6.133 1.062-8.309 3.186-2.176 2.124-3.263 4.804-3.263 8.042 0 3.238 1.108 5.939 3.326 8.105 2.217 2.165 4.93 3.248 8.136 3.248 3.581 0 6.58-1.364 8.995-4.091l-3.03-3.436c-1.54 1.915-3.456 2.873-5.747 2.873-1.832 0-3.399-.598-4.7-1.795-1.302-1.198-1.952-2.812-1.952-4.841 0-2.03.614-3.66 1.842-4.888 1.23-1.229 2.718-1.843 4.467-1.843M594.563 747.096v-4.34h-10.87v-4.499h9.776v-4.154h-9.776v-4.528h11.212v-4.31H578.82v21.831z" fill="#2282a8"/><path d="M579.703 698.913H477.34a3.962 3.962 0 0 0 0 7.924h102.363a3.962 3.962 0 0 0 0-7.924M569.41 665.577h-81.776a3.962 3.962 0 0 0 0 7.924h81.775a3.962 3.962 0 0 0 0-7.924M565.026 682.245h-73.009a3.962 3.962 0 0 0 0 7.924h73.01a3.962 3.962 0 0 0 0-7.924M675.882 452.767H372.448v190.791h303.434z" fill="#aad8e8"/><path d="M376.615 619.013h295.1V456.934h-295.1z" fill="#fff"/><path d="M480.387 591.53h-81.775a3.962 3.962 0 0 0 0 7.925h81.775a3.962 3.962 0 0 0 0-7.924M647.067 591.53h-29.826a3.961 3.961 0 0 0 0 7.925h29.826a3.962 3.962 0 0 0 0-7.924M647.067 566.529h-29.826a3.961 3.961 0 1 0 0 7.924h29.826a3.962 3.962 0 0 0 0-7.924M647.067 541.527h-29.826a3.961 3.961 0 0 0 0 7.924h29.826a3.962 3.962 0 0 0 0-7.924M647.067 516.525h-29.826a3.961 3.961 0 0 0 0 7.924h29.826a3.962 3.962 0 0 0 0-7.924M647.067 491.523h-29.826a3.961 3.961 0 0 0 0 7.924h29.826a3.962 3.962 0 0 0 0-7.924M495.616 566.529h-97.004a3.962 3.962 0 0 0 0 7.924h97.004a3.962 3.962 0 0 0 0-7.924M447.76 516.525h-49.149a3.962 3.962 0 0 0 0 7.924h49.15a3.962 3.962 0 0 0 0-7.924M499.073 491.523H398.611a3.962 3.962 0 0 0 0 7.924h100.462a3.962 3.962 0 0 0 0-7.924M463.439 541.527h-64.827a3.962 3.962 0 0 0 0 7.924h64.827a3.962 3.962 0 0 0 0-7.924M526.619 541.527h-47.167a3.962 3.962 0 1 0 0 7.924h47.167a3.962 3.962 0 0 0 0-7.924M647.067 428.868h-55.83a3.962 3.962 0 0 0 0 7.924h55.83a3.962 3.962 0 0 0 0-7.924M647.067 412.2h-81.522a3.962 3.962 0 0 0 0 7.923h81.522a3.962 3.962 0 0 0 0-7.923M432.24 356.73h-55.83a3.962 3.962 0 0 0 0 7.924h55.83a3.962 3.962 0 0 0 0-7.924M457.932 339.317H376.41a3.962 3.962 0 0 0 0 7.924h81.522a3.962 3.962 0 0 0 0-7.924M575.394 428.868h-27.623a3.962 3.962 0 0 0 0 7.923h27.623a3.962 3.962 0 0 0 0-7.923" fill="#aad8e8"/><path d="M630.348 352.866c-16.315 0-29.587 13.273-29.587 29.587 0 16.315 13.272 29.588 29.587 29.588 16.315 0 29.588-13.273 29.588-29.588 0-16.314-13.273-29.587-29.588-29.587m0 61.907c-17.821 0-32.32-14.499-32.32-32.32 0-17.82 14.499-32.318 32.32-32.318 17.82 0 32.319 14.498 32.319 32.318 0 17.821-14.498 32.32-32.32 32.32" fill="#85cce8"/><path d="M630.348 348.252c-18.86 0-34.202 15.343-34.202 34.202 0 18.86 15.343 34.202 34.202 34.202 18.859 0 34.202-15.343 34.202-34.202 0-18.859-15.343-34.202-34.202-34.202m0 70.39c-19.954 0-36.188-16.234-36.188-36.188s16.234-36.188 36.188-36.188 36.188 16.234 36.188 36.188-16.234 36.188-36.188 36.188" fill="#85cce8"/><path d="M656.522 382.454c0-14.455-11.718-26.174-26.174-26.174-14.455 0-26.173 11.719-26.173 26.174s11.718 26.174 26.173 26.174c14.456 0 26.174-11.719 26.174-26.174M625.469 417.528l4.879 6.197 4.879-6.197z" fill="#85cce8"/><path d="M616.557 415.07l3.11 7.25 6.316-4.723z" fill="#85cce8"/><path d="M608.585 410.39l1.127 7.807 7.324-2.928z" fill="#85cce8"/><path d="M602.097 403.805l-.932 7.832 7.832-.932z" fill="#85cce8"/><path d="M597.533 395.766l-2.927 7.324 7.806 1.127z" fill="#85cce8"/><path d="M595.206 386.82l-4.723 6.316 7.249 3.11z" fill="#85cce8"/><path d="M595.274 377.575l-6.197 4.879 6.197 4.879z" fill="#85cce8"/><path d="M597.732 368.663l-7.25 3.11 4.724 6.316z" fill="#85cce8"/><path d="M602.412 360.692l-7.807 1.127 2.928 7.324z" fill="#85cce8"/><path d="M608.997 354.203l-7.832-.932.932 7.832z" fill="#85cce8"/><path d="M617.036 349.64l-7.324-2.928-1.127 7.806z" fill="#85cce8"/><path d="M625.983 347.312l-6.317-4.723-3.11 7.249z" fill="#85cce8"/><path d="M635.227 347.38l-4.879-6.197-4.879 6.197z" fill="#85cce8"/><path d="M644.139 349.838l-3.11-7.25-6.316 4.724z" fill="#85cce8"/><path d="M652.11 354.518l-1.126-7.807-7.324 2.928z" fill="#85cce8"/><path d="M658.6 361.103l.931-7.832-7.832.932z" fill="#85cce8"/><path d="M663.163 369.142l2.927-7.324-7.806-1.127z" fill="#85cce8"/><path d="M665.49 378.089l4.723-6.317-7.249-3.11z" fill="#85cce8"/><path d="M665.422 387.333l6.197-4.879-6.197-4.879z" fill="#85cce8"/><path d="M662.965 396.245l7.249-3.11-4.723-6.316z" fill="#85cce8"/><path d="M658.284 404.217l7.807-1.127-2.928-7.324z" fill="#85cce8"/><path d="M651.7 410.705l7.831.932-.932-7.832z" fill="#85cce8"/><path d="M643.66 415.269l7.324 2.927 1.127-7.806z" fill="#85cce8"/><path d="M634.713 417.596l6.317 4.723 3.11-7.249z" fill="#85cce8"/><g clip-path="url(#l)" opacity=".1"><path d="M208.588 839.297a7.576 7.576 0 0 0-5.66 4.31 7.524 7.524 0 0 0-.6 4.395l1.467 8.972a7.53 7.53 0 0 0 3.058 4.929 7.53 7.53 0 0 0 5.647 1.33l206.959-33.827 41.349-19.046-45.261-4.89z" fill="#20313f"/></g><g clip-path="url(#m)" opacity=".1"><path d="M762.593 274.081c-8.918 0-16.308 6.67-17.442 15.282h-.14l-.006 1.835c-.004.158-.006.317-.006.476l.004.505-.004 6.68h.051l.691 98.981a6.74 6.74 0 0 0-1.957 4.767 6.79 6.79 0 0 0 2.025 4.813l.908 129.892h1.987v7.168c0 2.3 1.166 4.331 2.937 5.537l-3.135 15.472 2.06 1.513c.014.012 2.597 1.955 4.704 5.02 1.225 1.782 2.754 8.833 3.47 14.344l3.965 4 3.967-4c.717-5.514 2.246-12.566 3.468-14.343 2.108-3.065 4.691-5.009 4.718-5.029l2.032-1.516-.492-2.493-2.627-12.968a6.694 6.694 0 0 0 2.936-5.537v-6.34l.027-.828h1.735l.907-129.892a6.783 6.783 0 0 0 2.025-4.813 6.74 6.74 0 0 0-1.957-4.767l.692-98.982h.027l.023-4v-5.495h-.155c-1.143-8.624-8.528-15.282-17.438-15.282" fill="#20313f"/></g><path d="M504.122 402.241c-.726-4.585-5.072-7.742-9.657-7.015L389.058 411.93c-4.585.726-7.742 5.072-7.015 9.657l4.976 31.403c.726 4.585 5.072 7.741 9.657 7.015l105.407-16.703c4.585-.726 7.742-5.072 7.015-9.657zm-1.618 43.716L397.096 462.66c-6.06.961-11.772-3.189-12.733-9.25l-4.976-31.403c-.96-6.06 3.19-11.774 9.25-12.734l105.407-16.703c6.061-.96 11.773 3.19 12.734 9.25l4.976 31.403c.96 6.061-3.189 11.774-9.25 12.734" fill="#ff8e39"/><path d="M418.551 433.197c.811.666 1.334 1.742 1.57 3.229.236 1.488-.045 2.617-.842 3.387-.799.769-2.145 1.303-4.038 1.603l-3.283.52-1.374-8.667 3.873-.614c1.92-.304 3.283-.123 4.094.542m5.83 9.474c1.565-1.824 2.094-4.326 1.59-7.511-.505-3.185-1.803-5.367-3.894-6.548-2.09-1.182-5.04-1.471-8.85-.867l-3.432.544-1.14-7.192-5.753.912 4.085 25.78 9.11-1.442c3.96-.628 6.72-1.854 8.284-3.676M439.815 434.724l-4.433-6.972 6.455-1.023zm4.912-19.342l-1.514 5.949-10.807 1.712-3.28-5.19-6.123.97 15.225 24.017 5.568-.883 7.054-27.546zM457.924 439.718l5.753-.912-4.085-25.78-5.754.911zM482.53 416.65c1.624 1.104 2.638 2.922 3.04 5.455.4 2.532 0 4.594-1.196 6.182-1.199 1.59-3.26 2.615-6.186 3.08l-3.209.507-2.484-15.675 3.652-.579c2.63-.417 4.758-.074 6.382 1.03m6.652 14.656c2.103-2.639 2.837-5.963 2.201-9.97-.635-4.009-2.337-6.992-5.104-8.947-2.767-1.956-6.61-2.545-11.529-1.765l-8.815 1.397 4.086 25.781 9.11-1.444c4.599-.729 7.95-2.412 10.052-5.052" fill="#ff8e39"/><g clip-path="url(#n)" opacity=".1"><path d="M109.341 635.688l236.364 97.081 48.944-119.163-236.364-97.082z" fill="#20313f"/></g><path d="M214.329 843.425a7.576 7.576 0 0 0-5.66 4.31 7.524 7.524 0 0 0-.6 4.395l1.467 8.972a7.53 7.53 0 0 0 3.058 4.929 7.53 7.53 0 0 0 5.647 1.33L425.2 833.534l41.349-19.046-45.261-4.89zM767.593 279.081c-8.918 0-16.308 6.67-17.442 15.282h-.14l-.006 1.835c-.004.158-.006.317-.006.476l.004.505-.004 6.68h.051l.691 98.981a6.74 6.74 0 0 0-1.957 4.767 6.79 6.79 0 0 0 2.025 4.813l.908 129.892h1.987v7.168c0 2.3 1.166 4.331 2.937 5.537l-3.135 15.472 2.06 1.513c.014.012 2.597 1.955 4.704 5.02 1.225 1.782 2.754 8.833 3.47 14.344l3.965 4 3.967-4c.717-5.514 2.246-12.566 3.468-14.343 2.108-3.065 4.691-5.009 4.718-5.029l2.032-1.516-.492-2.493-2.627-12.968a6.694 6.694 0 0 0 2.936-5.537v-6.34l.027-.828h1.735l.907-129.892a6.783 6.783 0 0 0 2.025-4.813 6.74 6.74 0 0 0-1.957-4.767l.692-98.982h.027l.023-4v-5.495h-.155c-1.143-8.624-8.528-15.282-17.438-15.282" fill="#25353a"/><path d="M760.395 552.172h14.622a2.69 2.69 0 0 0 2.69-2.691v-11.805h-20.003v11.805a2.691 2.691 0 0 0 2.691 2.69" fill="#f39c12"/><path d="M761.428 551.535h12.555l3.494 17.244s-3.079 2.264-5.633 5.978c-2.529 3.679-4.138 16.095-4.138 16.095s-1.61-12.416-4.139-16.095c-2.553-3.714-5.633-5.978-5.633-5.978z" fill="#f1c40f"/><path d="M766.097 568.09a1.61 1.61 0 1 0 3.218 0 1.61 1.61 0 0 0-3.218 0" fill="#3b3b3b"/><path d="M767.62 589.162h.171V567.38h-.171zM779.496 538.312H755.69L754 296.674c0-7.507 6.086-13.593 13.593-13.593 7.508 0 13.594 6.086 13.594 13.593z" fill="#3b3b3b"/><path d="M754 298.364h27.186v1.494H754z" fill="#f1c40f"/><path d="M766.614 373.248h2.185c.857 0 1.552-.695 1.552-1.552v-73.332h-5.29v73.332c0 .857.696 1.552 1.553 1.552M755.573 404.818h24.04a2.79 2.79 0 0 1 0 5.578h-24.04a2.79 2.79 0 0 1 0-5.578" fill="#f1c40f"/><g clip-path="url(#o)" opacity=".1"><path d="M759.069 540.002l-1.69-240.891h5.069l1.69 240.89z" fill="#fff"/></g><g clip-path="url(#p)" opacity=".2"><path d="M777.807 540.002h-3.38l1.69-240.891h3.38z"/></g><g clip-path="url(#q)" opacity=".1"><path d="M763.605 537.675h-3.209v14.496h3.209z" fill="#fff"/></g><g clip-path="url(#r)" opacity=".2"><path d="M772.581 537.675h2.436v14.496h-2.436z"/></g><path d="M217.596 863.413l165.996-27.132 38.734-6.33-2.622-16.041-19.253 3.147-19.481 3.184-165.996 27.132a3.591 3.591 0 0 0-2.957 4.111l1.466 8.972a3.593 3.593 0 0 0 4.113 2.957" fill="#2980b9"/><path d="M422.326 829.95l-2.622-16.04 1.693-.277 30.333 3.277-27.711 12.764z" fill="#f1c40f"/><path d="M444.802 820.1l6.928-3.19-7.583-.82z" fill="#3b3b3b"/><path d="M217.596 863.413l16.329-2.669-2.622-16.04-16.33 2.669a3.592 3.592 0 0 0-2.956 4.111l1.466 8.972a3.593 3.593 0 0 0 4.113 2.957" fill="#d35400"/><path d="M229.61 844.98l3.386-.553 2.622 16.041-3.386.553z" fill="#3b3b3b"/><path d="M112.078 642.208l236.364 97.081 48.944-119.163-236.364-97.082z" fill="#25353a"/><path d="M392.166 622.306l-228.964-94.042-45.905 111.764 228.964 94.042z" fill="#89b748"/><path d="M166.194 535.424l-41.736 101.613L343.27 726.91l41.736-101.614z" fill="#d6e595"/><path d="M138.392 603.112c.087.035.176.057.264.093 18.743 7.698 27.696 29.134 19.998 47.877l-34.196-14.045zM152.26 569.348c.087.036.166.083.253.12 18.743 7.697 40.178-1.256 47.877-19.999l-34.196-14.046zM357.204 692.985c-.087-.036-.166-.083-.253-.119-18.743-7.698-40.178 1.255-47.877 19.998l34.196 14.046zM371.072 659.221c-.087-.035-.176-.057-.264-.093-18.743-7.698-27.696-29.134-19.998-47.877l34.196 14.045zM293.923 647.264c8.89-21.645-1.45-46.399-23.094-55.289-21.645-8.89-46.399 1.45-55.289 23.095s1.45 46.398 23.095 55.288c21.645 8.891 46.399-1.449 55.289-23.094" fill="#89b748"/><path d="M272.56 619.773c-1.007-2.74-2.99-5.11-5.95-7.111l3.622-8.82-6.367-2.615-3.486 8.486c-5.08-1.606-9.838-1.518-14.27.273l2.505 6.77c3.703-1.393 7.304-1.371 10.803.066 1.824.75 3.09 1.747 3.795 2.996.705 1.245.77 2.575.19 3.99-.383.93-.889 1.626-1.513 2.087-.624.462-1.523.745-2.698.85-1.173.106-2.789.063-4.84-.128-4.632-.38-8.178-.031-10.642 1.045-2.464 1.077-4.268 3.009-5.416 5.802-1.146 2.79-1.139 5.525.025 8.199 1.164 2.673 3.23 4.903 6.191 6.688l-3.37 8.205 6.367 2.615 3.394-8.262c3.853.887 7.563.647 11.124-.717l-2.103-6.474c-3.314 1.074-6.44 1.006-9.38-.201-1.564-.642-2.66-1.461-3.296-2.46-.632-1.001-.712-2.077-.237-3.232.336-.817.805-1.41 1.41-1.77.605-.36 1.504-.566 2.702-.62 1.195-.052 2.93.02 5.2.213 4.246.352 7.641.005 10.181-1.04 2.54-1.046 4.465-3.168 5.78-6.368 1.192-2.904 1.286-5.728.28-8.467" fill="#d6e595"/><g clip-path="url(#s)" opacity=".1"><path d="M267.79 414.99c-21.75 0-39.445 17.694-39.445 39.443 0 21.75 17.694 39.444 39.444 39.444 21.75 0 39.444-17.694 39.444-39.444 0-21.749-17.694-39.443-39.444-39.443" fill="#20313f"/></g><path d="M154.89 229.838a10.675 10.675 0 0 0-4.788 6.686 10.68 10.68 0 0 0 1.327 8.115l55.269 88.999c3.096 4.986 9.696 6.563 14.71 3.516L387.682 233.9c5.034-3.128 6.586-9.767 3.46-14.801l-55.268-89c-3.097-4.986-9.695-6.563-14.71-3.516z" fill="#25353a"/><g clip-path="url(#t)" opacity=".1"><path d="M148.02 228.16a10.675 10.675 0 0 0-4.788 6.686 10.68 10.68 0 0 0 1.327 8.115l55.27 88.999c3.095 4.986 9.695 6.563 14.71 3.516l166.273-103.253c5.034-3.128 6.586-9.767 3.46-14.801l-55.268-89c-3.097-4.986-9.695-6.563-14.71-3.516z" fill="#20313f"/></g><path d="M323.181 130.037l-166.18 103.198c-3.154 1.958-4.132 6.14-2.174 9.293l55.27 89c1.957 3.153 6.138 4.131 9.291 2.173L385.57 230.502c3.153-1.958 4.131-6.14 2.172-9.293l-55.268-88.999c-1.958-3.153-6.14-4.13-9.293-2.173" fill="#e5b855"/><path d="M366.13 186.405l-177.648 110.32 13.3 21.414L379.427 207.82z" fill="#2e302b"/><path d="M254.21 215.782l-76.198 47.32 11.962 19.26 76.198-47.318z" fill="#fffeff"/><g><path d="M329.883 164.292l-39.375 24.452a3.962 3.962 0 0 0 4.18 6.731l39.375-24.452a3.961 3.961 0 1 0-4.18-6.73" fill="#c19e61"/></g><g><path d="M322.251 152.002l-57.374 35.63a3.962 3.962 0 0 0 4.18 6.731l57.374-35.63a3.961 3.961 0 1 0-4.18-6.73" fill="#c19e61"/></g><g><path d="M272.79 419.99c-21.75 0-39.445 17.694-39.445 39.443 0 21.75 17.694 39.444 39.444 39.444 21.75 0 39.444-17.694 39.444-39.444 0-21.749-17.694-39.443-39.444-39.443" fill="#25353a"/></g><g><path d="M308.233 459.434c0-19.575-15.87-35.444-35.444-35.444-19.575 0-35.444 15.869-35.444 35.444 0 19.575 15.869 35.444 35.444 35.444 19.575 0 35.444-15.87 35.444-35.444" fill="#ffd066"/></g><g><path d="M272.789 430.5c-15.954 0-28.934 12.98-28.934 28.934s12.98 28.933 28.934 28.933 28.934-12.979 28.934-28.933-12.98-28.934-28.934-28.934m0 60.037c-17.178 0-31.104-13.925-31.104-31.103 0-17.179 13.926-31.104 31.104-31.104 17.178 0 31.104 13.925 31.104 31.104 0 17.178-13.926 31.103-31.104 31.103" fill="#ebab06"/></g><g><path d="M271.344 445.462c-2.33.16-4.46.857-6.388 2.09l1.929 4.68c2.062-1.447 4.09-2.17 6.086-2.17 3.066 0 4.6 1.058 4.6 3.173 0 1.058-.392 2.052-1.175 2.983-.784.931-2.27 1.945-4.46 3.043s-3.68 2.01-4.47 2.732a7.305 7.305 0 0 0-1.817 2.591c-.421 1.004-.632 2.123-.632 3.355 0 1.821.572 3.428 1.717 4.821 1.145 1.393 2.682 2.324 4.61 2.792v3.636h4.6l-.02-3.434c2.463-.241 4.298-.844 5.504-1.808l-1.587-4.5c-1.835 1.313-3.77 1.969-5.805 1.969-1.205 0-2.14-.325-2.803-.975-.662-.65-.994-1.47-.994-2.46 0-1.687 1.868-3.442 5.604-5.263 1.969-.964 3.388-1.851 4.259-2.661a8.186 8.186 0 0 0 1.988-2.832c.456-1.078.683-2.281.683-3.606 0-1.875-.602-3.512-1.807-4.911-1.206-1.4-2.88-2.36-5.022-2.882v-4.621h-4.6z" fill="#ebab06"/></g><g><g clip-path="url(#u)" opacity=".1"><path d="M690.473 664.893c-21.75 0-39.444 17.694-39.444 39.443 0 21.75 17.694 39.444 39.444 39.444 21.75 0 39.444-17.694 39.444-39.444 0-21.749-17.694-39.443-39.444-39.443" fill="#20313f"/></g></g><g><path d="M695.473 669.893c-21.75 0-39.444 17.694-39.444 39.443 0 21.75 17.694 39.444 39.444 39.444 21.75 0 39.444-17.694 39.444-39.444 0-21.749-17.694-39.443-39.444-39.443" fill="#25353a"/></g><g><path d="M730.916 709.337c0-19.575-15.869-35.444-35.444-35.444-19.575 0-35.444 15.869-35.444 35.444 0 19.575 15.87 35.444 35.444 35.444 19.575 0 35.444-15.87 35.444-35.444" fill="#ffd066"/></g><g><path d="M695.472 680.403c-15.954 0-28.934 12.98-28.934 28.934s12.98 28.933 28.934 28.933 28.934-12.979 28.934-28.933-12.98-28.934-28.934-28.934m0 60.037c-17.178 0-31.104-13.925-31.104-31.103 0-17.179 13.926-31.104 31.104-31.104 17.178 0 31.104 13.925 31.104 31.104 0 17.178-13.926 31.103-31.104 31.103" fill="#ebab06"/></g><g><path d="M694.028 695.365c-2.33.16-4.46.857-6.388 2.09l1.929 4.68c2.062-1.447 4.09-2.17 6.086-2.17 3.066 0 4.6 1.058 4.6 3.173 0 1.058-.392 2.052-1.175 2.983-.784.931-2.27 1.945-4.46 3.043s-3.68 2.01-4.47 2.732a7.305 7.305 0 0 0-1.817 2.591c-.421 1.005-.632 2.123-.632 3.355 0 1.821.572 3.428 1.717 4.821 1.145 1.392 2.682 2.323 4.61 2.791v3.636h4.6l-.02-3.434c2.463-.24 4.298-.844 5.504-1.808l-1.587-4.5c-1.835 1.313-3.77 1.97-5.805 1.97-1.205 0-2.14-.326-2.803-.976-.662-.649-.994-1.469-.994-2.46 0-1.687 1.868-3.442 5.604-5.263 1.969-.964 3.388-1.85 4.259-2.66a8.186 8.186 0 0 0 1.988-2.833c.456-1.078.683-2.28.683-3.606 0-1.875-.602-3.512-1.807-4.91-1.206-1.4-2.88-2.36-5.022-2.883v-4.62h-4.6z" fill="#ebab06"/></g></g></svg>
