<?xml version="1.0" standalone="no"?>
<!DOCTYPE svg PUBLIC "-//W3C//DTD SVG 1.1//EN" "http://www.w3.org/Graphics/SVG/1.1/DTD/svg11.dtd" >
<svg xmlns="http://www.w3.org/2000/svg" xmlns:xlink="http://www.w3.org/1999/xlink" version="1.1">
<metadata>
Created by FontForge 20170731 at Wed Nov 15 12:05:23 2017
 By Aleksey,,,
(c)2009 Commercial Type.
</metadata>
<defs>
<font id="graphikregular" horiz-adv-x="600" >
  <font-face 
    font-family="graphikregular"
    font-weight="400"
    font-stretch="normal"
    units-per-em="1000"
    panose-1="0 0 0 0 0 0 0 0 0 0"
    ascent="818"
    descent="-182"
    x-height="523"
    cap-height="715"
    bbox="-230 -220 1092 1113"
    underline-thickness="50"
    underline-position="-200"
    unicode-range="U+000D-FB02"
  />
<missing-glyph horiz-adv-x="500" 
 />
    <glyph glyph-name=".notdef" horiz-adv-x="500" 
 />
    <glyph glyph-name=".null" horiz-adv-x="0" 
 />
    <glyph glyph-name="nonmarkingreturn" unicode="&#xd;" horiz-adv-x="333" 
 />
    <glyph glyph-name="NULL" horiz-adv-x="0" 
 />
    <glyph glyph-name="NULL" horiz-adv-x="0" 
 />
    <glyph glyph-name="space" unicode=" " horiz-adv-x="265" 
 />
    <glyph glyph-name="exclam" unicode="!" horiz-adv-x="286" 
d="M188 13q-19 -18 -45 -18t-45 18q-19 19 -19 46t19 45q19 19 45 19t45 -19q19 -18 19 -45t-19 -46zM112 202l-14 513h92l-14 -513h-64z" />
    <glyph glyph-name="quotedbl" unicode="&#x22;" horiz-adv-x="375" 
d="M76 470l-15 245h90l-15 -245h-60zM239 470l-15 245h90l-15 -245h-60z" />
    <glyph glyph-name="numbersign" unicode="#" horiz-adv-x="503" 
d="M252 99l26 183h-97l-26 -183h-68l26 183h-83v70h94l19 132h-85v70h95l24 161h68l-24 -161h97l24 161h68l-24 -161h87v-70h-97l-19 -132h88v-70h-99l-26 -183h-68zM211 484l-19 -132h97l19 132h-97z" />
    <glyph glyph-name="dollar" unicode="$" horiz-adv-x="627" 
d="M285 -135v127q-218 15 -240 226h84q9 -69 41 -110q31 -40 115 -48v278q-106 20 -158.5 63.5t-52.5 128.5q0 78 59 132q58 55 152 61v90h59v-91q91 -8 144.5 -57.5t63.5 -137.5h-78q-11 58 -42 88.5t-88 38.5v-250q116 -21 169 -65q54 -44 54 -137q0 -87 -63 -145
q-64 -59 -160 -65v-127h-59zM484 196q0 57 -30 86q-31 30 -110 46v-268q30 3 56 14.5t44.5 29.5t29 41.5t10.5 50.5zM153 538q0 -51 26 -80q26 -27 106 -44v241q-63 -5 -97.5 -37t-34.5 -80z" />
    <glyph glyph-name="percent" unicode="%" horiz-adv-x="784" 
d="M286 552q0 48 -23 76t-65 28q-40 0 -64 -28q-24 -27 -24 -77q0 -51 23 -77t65 -26t65 26.5t23 77.5zM34 550q0 72 48 122q49 49 116 49q68 0 116 -49q48 -48 48 -120t-49 -121q-50 -48 -115 -48q-66 0 -115 48t-49 119zM135 0l437 715h76l-437 -715h-76zM674 161
q0 48 -23 76t-65 28q-40 0 -64 -28q-24 -27 -24 -77q0 -51 23 -77t65 -26t65 26.5t23 77.5zM422 159q0 72 48 122q49 49 116 49q68 0 116 -49q48 -48 48 -120t-49 -121q-50 -48 -115 -48q-66 0 -115 48t-49 119z" />
    <glyph glyph-name="ampersand" unicode="&#x26;" horiz-adv-x="686" 
d="M644 369l-117 -223l120 -146h-101l-71 86q-80 -93 -198 -93q-99 0 -163 54q-63 54 -63 142q0 78 42.5 127t121.5 88q-63 81 -63 151q0 76 51 120q53 44 124 44q66 0 111 -42t45 -105q0 -119 -153 -185l150 -183l87 165h77zM280 61q87 0 152 78l-178 217q-59 -28 -89 -64
t-30 -95q0 -64 38 -100t107 -36zM232 554q0 -42 62 -121q61 27 86 58.5t25 82.5q0 35 -22.5 57.5t-58.5 22.5q-40 0 -66 -24.5t-26 -75.5z" />
    <glyph glyph-name="quotesingle" unicode="'" horiz-adv-x="212" 
d="M76 470l-15 245h90l-15 -245h-60z" />
    <glyph glyph-name="parenleft" unicode="(" horiz-adv-x="322" 
d="M219 -148q-166 194 -166 460q0 267 166 461h83q-162 -203 -162 -461t162 -460h-83z" />
    <glyph glyph-name="parenright" unicode=")" horiz-adv-x="322" 
d="M20 -145q162 202 162 461q0 257 -162 460h83q166 -194 166 -460q0 -267 -166 -461h-83z" />
    <glyph glyph-name="asterisk" unicode="*" horiz-adv-x="422" 
d="M139 409l-57 41l83 111l-123 29l22 67l118 -48l-7 134h73l-7 -134l117 48l22 -67l-124 -29l83 -111l-56 -41l-74 120z" />
    <glyph glyph-name="plus" unicode="+" horiz-adv-x="519" 
d="M223 105v202h-187v70h187v202h73v-202h187v-70h-187v-202h-73z" />
    <glyph glyph-name="comma" unicode="," horiz-adv-x="282" 
d="M90 -123l-54 28l96 219l81 -38z" />
    <glyph glyph-name="hyphen" unicode="-" horiz-adv-x="334" 
d="M60 236v78h214v-78h-214z" />
    <glyph glyph-name="period" unicode="." horiz-adv-x="282" 
d="M186 13q-19 -18 -45 -18t-45 18q-19 19 -19 46t19 45q19 19 45 19t45 -19q19 -18 19 -45t-19 -46z" />
    <glyph glyph-name="slash" unicode="/" horiz-adv-x="403" 
d="M6 -148l291 924h76l-291 -924h-76z" />
    <glyph glyph-name="zero" unicode="0" horiz-adv-x="681" 
d="M344 63q94 0 141.5 70t47.5 207v40q0 63 -13 113.5t-37.5 86.5t-60 55t-80.5 19q-91 0 -142 -72t-51 -204v-40q0 -134 52 -204.5t143 -70.5zM344 -9q-128 0 -206 95q-78 94 -78 251v40q0 158 75 253q76 94 207 94q130 0 204 -95q75 -95 75 -250v-40q0 -158 -74 -253
t-203 -95z" />
    <glyph glyph-name="one" unicode="1" horiz-adv-x="399" 
d="M193 0v629l-160 -115v81l166 120h81v-715h-87z" />
    <glyph glyph-name="two" unicode="2" horiz-adv-x="554" 
d="M19 0v20l284 299q103 109 103 207q0 60 -33.5 94t-94.5 34q-132 0 -151 -159h-81q4 53 22 95.5t47.5 72t70.5 45.5t92 16q49 0 89 -14t68.5 -40.5t43.5 -63.5t15 -83q0 -119 -144 -260l-197 -192h345v-71h-479z" />
    <glyph glyph-name="three" unicode="3" horiz-adv-x="604" 
d="M290 -9q-111 0 -179 62q-66 61 -71 158h80q6 -69 48.5 -109.5t123.5 -40.5q82 0 122.5 36t40.5 102q0 139 -151 139h-54v73h50q134 0 134 122q0 54 -33.5 87t-96.5 33q-66 0 -108.5 -37t-49.5 -98h-76q5 88 69 146q64 60 165 60q97 0 156 -56t59 -133q0 -109 -113 -156
q66 -17 102 -62.5t36 -117.5q0 -96 -71 -152t-183 -56z" />
    <glyph glyph-name="four" unicode="4" horiz-adv-x="617" 
d="M397 0v150h-358v28l327 537h116v-494h99v-71h-99v-150h-85zM149 221h248v428z" />
    <glyph glyph-name="five" unicode="5" horiz-adv-x="587" 
d="M281 -9q-111 0 -170.5 55t-67.5 147h83q6 -33 16.5 -57.5t28.5 -41t44.5 -25t64.5 -8.5q73 0 115 46t42 127q0 76 -40.5 121.5t-109.5 45.5q-108 0 -169 -69h-32v383h402v-75h-330v-218q52 49 146 49q98 0 160 -65t62 -172q0 -110 -70 -177q-71 -66 -175 -66z" />
    <glyph glyph-name="six" unicode="6" horiz-adv-x="619" 
d="M317 -9q-73 0 -122.5 25.5t-79.5 70t-42.5 103.5t-12.5 126v17q0 189 76 289q76 102 204 102q85 0 140 -44t69 -129h-83q-12 52 -43 77t-89 25q-84 0 -134.5 -73.5t-53.5 -212.5q26 45 74.5 71t109.5 26q105 0 169 -67q65 -68 65 -167q0 -108 -67 -174q-68 -65 -180 -65z
M317 59q36 0 65 12t49.5 34t32 52.5t11.5 68.5q0 78 -43 124t-116 46q-71 0 -118 -44q-46 -43 -46 -114q0 -85 45 -132t120 -47z" />
    <glyph glyph-name="seven" unicode="7" horiz-adv-x="525" 
d="M146 0l249 645h-363v70h471v-12l-268 -703h-89z" />
    <glyph glyph-name="eight" unicode="8" horiz-adv-x="607" 
d="M304 -9q-62 0 -116 22q-27 12 -51 30.5t-42 43t-28 54t-10 62.5q0 69 37 116t98 69q-51 20 -79.5 59t-28.5 91q0 83 66 134q67 52 154 52q88 0 153 -52q66 -51 66 -132q0 -103 -110 -151q137 -50 137 -184q0 -101 -74 -158q-74 -56 -172 -56zM304 62q69 0 113 38.5
t44 107.5q0 34 -11.5 60.5t-32.5 44.5t-49.5 27.5t-61.5 9.5q-34 0 -63.5 -9.5t-51 -28t-33.5 -45.5t-12 -61q0 -67 46 -106q47 -38 112 -38zM307 419q58 0 93 31.5t35 88.5q0 25 -10 46.5t-27.5 37.5t-41.5 24.5t-52 8.5q-57 0 -94.5 -32.5t-37.5 -86.5q0 -27 10.5 -49
t28.5 -37t42.5 -23.5t53.5 -8.5z" />
    <glyph glyph-name="nine" unicode="9" horiz-adv-x="620" 
d="M290 -8q-99 0 -157.5 48t-72.5 136h84q13 -57 47.5 -85t100.5 -28q88 0 135 71t48 213q-26 -45 -75 -70t-110 -25q-104 0 -170 66q-65 67 -65 168q0 109 67 173q67 66 180 66q127 0 192 -82t65 -238v-45q0 -178 -69.5 -273t-199.5 -95zM303 320q36 0 66 11.5t52 31.5
t34 48.5t12 63.5q0 87 -45 134.5t-120 47.5q-36 0 -65 -12t-49.5 -34t-32 -53t-11.5 -68q0 -78 43 -124t116 -46z" />
    <glyph glyph-name="colon" unicode=":" horiz-adv-x="292" 
d="M191 13q-19 -18 -45 -18t-45 18q-19 19 -19 46t19 45q19 19 45 19t45 -19q19 -18 19 -45t-19 -46zM191 310q-19 -18 -45 -18t-45 18q-19 19 -19 46t19 45q19 19 45 19t45 -19q19 -18 19 -45t-19 -46z" />
    <glyph glyph-name="semicolon" unicode=";" horiz-adv-x="292" 
d="M75 -123l-54 28l96 219l81 -38zM200 310q-19 -18 -45 -18t-45 18q-19 19 -19 46t19 45q19 19 45 19t45 -19q19 -18 19 -45t-19 -46z" />
    <glyph glyph-name="less" unicode="&#x3c;" horiz-adv-x="504" 
d="M437 95l-384 217v20l384 217v-80l-263 -147l263 -147v-80z" />
    <glyph glyph-name="equal" unicode="=" horiz-adv-x="484" 
d="M40 196v72h404v-72h-404zM40 376v72h404v-72h-404z" />
    <glyph glyph-name="greater" unicode="&#x3e;" horiz-adv-x="504" 
d="M67 95v80l263 147l-263 147v80l384 -217v-20z" />
    <glyph glyph-name="question" unicode="?" horiz-adv-x="489" 
d="M179 202v50q0 38 18 74q19 37 34 54q8 9 21 22l30 30q12 12 21 21.5t16 17.5q13 16 24.5 38.5t11.5 45.5q0 46 -26.5 73t-80.5 27q-57 0 -92.5 -35t-40.5 -95h-78q4 88 63 144q58 55 149 55q48 0 83.5 -13t59 -35.5t35.5 -52.5t12 -65q0 -32 -17 -68q-8 -17 -15.5 -30
t-16.5 -21l-49 -48q-14 -14 -25 -25.5t-19 -19.5q-15 -16 -29.5 -44t-14.5 -57v-43h-74zM259 13q-19 -18 -45 -18t-45 18q-19 19 -19 46t19 45q19 19 45 19t45 -19q19 -18 19 -45t-19 -46z" />
    <glyph glyph-name="at" unicode="@" horiz-adv-x="915" 
d="M459 -147q-97 0 -177 33.5t-131 90.5t-78.5 129.5t-27.5 153.5q0 181 125 304q125 124 302 124q176 0 287 -105t111 -261q0 -67 -18 -118.5t-47 -80.5q-56 -56 -123 -56q-57 0 -82.5 22t-32.5 64q-23 -40 -63.5 -66.5t-85.5 -26.5q-73 0 -117 46.5t-44 127.5
q0 100 57 166t140 66q92 0 121 -68l7 60h83l-30 -252q-9 -79 48 -79q24 0 44.5 12.5t36.5 36.5t25 60t9 84q0 136 -87 219q-88 83 -239 83q-152 0 -251 -101t-99 -259q0 -68 21.5 -130.5t63.5 -109.5t105 -75t147 -28q79 0 133 19.5t103 61.5h77q-39 -65 -123 -106
q-85 -41 -190 -41zM436 124q50 0 89 44q39 43 39 119q0 57 -26.5 85t-77.5 28q-24 0 -45.5 -11.5t-37.5 -33t-25.5 -52t-9.5 -68.5q0 -51 26 -81t68 -30z" />
    <glyph glyph-name="A" unicode="A" horiz-adv-x="674" 
d="M36 0l246 715h114l242 -715h-86l-70 206h-295l-69 -206h-82zM335 643l-124 -368h248z" />
    <glyph glyph-name="B" unicode="B" horiz-adv-x="622" 
d="M90 0v715h215q230 0 230 -185v-4q0 -114 -108 -151q78 -18 110.5 -58.5t32.5 -112.5v-4q0 -100 -62 -150t-173 -50h-245zM175 68h158q152 0 152 133v4q0 67 -39.5 98.5t-124.5 31.5h-146v-267zM175 403h130q78 0 111.5 29.5t33.5 96.5v4q0 60 -35.5 87t-111.5 27h-128
v-244z" />
    <glyph glyph-name="C" unicode="C" horiz-adv-x="730" 
d="M389 -9q-155 0 -245 98q-89 98 -89 264v8q0 158 95 262q94 103 241 103q118 0 198 -61q82 -62 92 -173h-86q-27 165 -203 165q-112 0 -179 -81q-68 -80 -68 -214v-8q0 -69 17 -123t48.5 -91.5t77.5 -57.5t103 -20q90 0 146.5 44t69.5 131h81q-18 -121 -96.5 -183.5
t-202.5 -62.5z" />
    <glyph glyph-name="D" unicode="D" horiz-adv-x="696" 
d="M177 71h98q136 0 206 75t70 210v8q0 131 -67.5 206t-209.5 75h-97v-574zM90 0v715h189q178 0 269 -97q93 -98 93 -254v-9q0 -157 -93 -256q-92 -99 -271 -99h-187z" />
    <glyph glyph-name="E" unicode="E" horiz-adv-x="566" 
d="M90 0v715h417v-71h-330v-243h266v-71h-266v-259h348v-71h-435z" />
    <glyph glyph-name="F" unicode="F" horiz-adv-x="546" 
d="M90 0v715h418v-71h-331v-253h258v-71h-258v-320h-87z" />
    <glyph glyph-name="G" unicode="G" horiz-adv-x="767" 
d="M401 -9q-161 0 -254 100q-92 101 -92 262v8q0 157 96 261q98 104 250 104q115 0 195 -57q79 -55 96 -170h-87q-29 158 -202 158q-121 0 -190 -81q-68 -80 -68 -214v-8q0 -68 17 -122t49.5 -92t80 -58.5t109.5 -20.5q55 0 97 16.5t70 46.5t42.5 72t15.5 93h-209v72h294
v-53q0 -153 -85 -235q-83 -82 -225 -82z" />
    <glyph glyph-name="H" unicode="H" horiz-adv-x="730" 
d="M90 0v715h87v-324h376v324h87v-715h-87v318h-376v-318h-87z" />
    <glyph glyph-name="I" unicode="I" horiz-adv-x="277" 
d="M95 0v715h87v-715h-87z" />
    <glyph glyph-name="J" unicode="J" horiz-adv-x="420" 
d="M138 -9q-65 0 -100 19v72q48 -20 95 -20q116 0 116 136v517h87v-521q0 -51 -14.5 -89t-40.5 -63.5t-62.5 -38t-80.5 -12.5z" />
    <glyph glyph-name="K" unicode="K" horiz-adv-x="616" 
d="M90 0v715h87v-344l311 345h97l-318 -348l334 -368h-105l-319 349v-349h-87z" />
    <glyph glyph-name="L" unicode="L" horiz-adv-x="535" 
d="M90 0v715h87v-644h327v-71h-414z" />
    <glyph glyph-name="M" unicode="M" horiz-adv-x="856" 
d="M90 0v715h121l221 -557l214 557h120v-715h-87v602l-237 -602h-27l-245 602v-602h-80z" />
    <glyph glyph-name="N" unicode="N" horiz-adv-x="724" 
d="M90 0v715h113l348 -591v591h83v-715h-100l-361 613v-613h-83z" />
    <glyph glyph-name="O" unicode="O" horiz-adv-x="811" 
d="M409 63q118 0 187 81q70 80 70 212v8q0 125 -70 207q-69 83 -189 83q-122 0 -192 -81q-70 -80 -70 -211v-8q0 -129 75 -210t189 -81zM409 -9q-156 0 -255 104q-99 105 -99 258v8q0 155 98 259q99 104 254 104q154 0 252 -104q97 -103 97 -257v-8q0 -155 -97 -259
q-98 -105 -250 -105z" />
    <glyph glyph-name="P" unicode="P" horiz-adv-x="581" 
d="M90 0v715h203q110 0 180 -52t70 -157v-4q0 -108 -70 -160q-69 -51 -180 -51h-116v-291h-87zM177 360h122q76 0 116.5 36.5t40.5 105.5v4q0 139 -157 139h-122v-285z" />
    <glyph glyph-name="Q" unicode="Q" horiz-adv-x="811" 
d="M659 -89l-100 112q-69 -32 -150 -32q-156 0 -255 104q-99 105 -99 258v8q0 155 98 259q99 104 254 104q154 0 252 -104q97 -103 97 -257v-8q0 -91 -35.5 -166.5t-98.5 -126.5l90 -100zM409 63q54 0 98 18l-80 90l53 51l91 -103q95 81 95 237v8q0 125 -70 207
q-69 83 -189 83q-122 0 -192 -81q-70 -80 -70 -211v-8q0 -129 75 -210t189 -81z" />
    <glyph glyph-name="R" unicode="R" horiz-adv-x="628" 
d="M90 0v715h215q112 0 180 -49q70 -49 70 -150v-4q0 -84 -48 -132t-129 -63l219 -317h-97l-213 311h-110v-311h-87zM177 380h134q157 0 157 132v4q0 70 -39.5 99.5t-117.5 29.5h-134v-265z" />
    <glyph glyph-name="S" unicode="S" horiz-adv-x="627" 
d="M321 -9q-133 0 -198 62q-65 63 -75 165h84q4 -32 14 -60.5t30.5 -50t55.5 -34t89 -12.5q70 0 116 37q47 38 47 98q0 62 -36 91q-37 31 -137 46q-60 9 -105 24.5t-75 38.5t-44.5 56t-14.5 78q0 82 65 138t165 56q109 0 172.5 -50.5t73.5 -146.5h-78q-13 67 -53 97t-115 30
q-72 0 -110.5 -32t-38.5 -84q0 -56 34 -84q33 -27 138 -44q125 -19 184 -66q59 -45 59 -142q0 -89 -71 -151q-71 -60 -176 -60z" />
    <glyph glyph-name="T" unicode="T" horiz-adv-x="561" 
d="M237 0v644h-208v71h503v-71h-208v-644h-87z" />
    <glyph glyph-name="U" unicode="U" horiz-adv-x="696" 
d="M341 -9q-124 0 -190.5 69.5t-66.5 200.5v454h87v-444q0 -111 41 -159.5t131 -48.5q92 0 137 48t45 173v431h87v-443q0 -135 -67.5 -208t-203.5 -73z" />
    <glyph glyph-name="V" unicode="V" horiz-adv-x="654" 
d="M273 0l-243 715h86l213 -631l213 631h82l-247 -715h-104z" />
    <glyph glyph-name="W" unicode="W" horiz-adv-x="928" 
d="M220 0l-186 715h89l145 -577l168 577h62l168 -579l147 579h81l-186 -715h-80l-162 565l-167 -565h-79z" />
    <glyph glyph-name="X" unicode="X" horiz-adv-x="657" 
d="M45 0l236 367l-220 348h96l178 -281l177 281h89l-222 -348l233 -367h-98l-191 301l-191 -301h-87z" />
    <glyph glyph-name="Y" unicode="Y" horiz-adv-x="598" 
d="M262 0v312l-239 403h98l187 -332l180 332h87l-226 -404v-311h-87z" />
    <glyph glyph-name="Z" unicode="Z" horiz-adv-x="595" 
d="M28 0v14l405 630h-369v71h489v-13l-394 -628h388v-74h-519z" />
    <glyph glyph-name="bracketleft" unicode="[" horiz-adv-x="356" 
d="M88 -148v924h224v-66h-141v-792h141v-66h-224z" />
    <glyph glyph-name="backslash" unicode="\" horiz-adv-x="403" 
d="M321 -148l-291 924h76l291 -924h-76z" />
    <glyph glyph-name="bracketright" unicode="]" horiz-adv-x="356" 
d="M44 -148v66h141v792h-141v66h224v-924h-224z" />
    <glyph glyph-name="asciicircum" unicode="^" horiz-adv-x="507" 
d="M44 408l167 307h85l167 -307h-84l-127 236l-126 -236h-82z" />
    <glyph glyph-name="underscore" unicode="_" horiz-adv-x="394" 
d="M-1 -158v66h396v-66h-396z" />
    <glyph glyph-name="grave" unicode="`" horiz-adv-x="400" 
d="M177 613l-104 147h104l62 -147h-62z" />
    <glyph glyph-name="a" unicode="a" horiz-adv-x="540" 
d="M215 -9q-77 0 -125.5 38.5t-48.5 115.5q0 84 74 123q75 39 188 39h75v38q0 63 -26 90.5t-86 27.5q-108 0 -120 -94h-83q4 42 21.5 72.5t44.5 51t63 30t78 9.5q191 0 191 -187v-345h-83v66q-60 -75 -163 -75zM223 57q69 0 112 33t43 93v65h-72q-182 0 -182 -103
q0 -88 99 -88z" />
    <glyph glyph-name="b" unicode="b" horiz-adv-x="627" 
d="M344 -9q-61 0 -107 26.5t-70 68.5v-86h-83v773h83v-338q12 20 31 37.5t42 31t50 21t54 7.5q103 0 171 -72q67 -72 67 -191v-8q0 -121 -66 -196q-65 -74 -172 -74zM336 60q78 0 119 50.5t41 146.5v8q0 96 -45.5 147t-115.5 51q-76 0 -123.5 -50.5t-47.5 -147.5v-8
q0 -97 46.5 -147t125.5 -50z" />
    <glyph glyph-name="c" unicode="c" horiz-adv-x="570" 
d="M301 -9q-112 0 -184 72t-72 193v8q0 119 73 193q73 75 181 75q90 0 153 -45q64 -44 74 -138h-82q-18 114 -145 114q-73 0 -121 -55q-47 -55 -47 -144v-8q0 -94 46.5 -145t124.5 -51q30 0 56 8.5t46 25t32.5 40.5t15.5 54h77q-8 -87 -72 -142q-62 -55 -156 -55z" />
    <glyph glyph-name="d" unicode="d" horiz-adv-x="627" 
d="M281 -9q-105 0 -171 70q-65 71 -65 190v8q0 119 68 196t176 77q115 0 171 -93v334h83v-773h-83v90q-23 -39 -74 -70q-50 -29 -105 -29zM290 60q78 0 125.5 50.5t47.5 147.5v8q0 99 -43.5 148t-122.5 49q-78 0 -122 -52t-44 -148v-8q0 -96 44.5 -145.5t114.5 -49.5z" />
    <glyph glyph-name="e" unicode="e" horiz-adv-x="568" 
d="M298 -9q-113 0 -183 72q-70 73 -70 193v8q0 117 68 193q69 75 177 75q99 0 167 -65t68 -195v-27h-394q3 -91 45 -138t123 -47q123 0 139 91h83q-13 -78 -72.5 -119t-150.5 -41zM440 312q-10 151 -150 151q-63 0 -104 -40.5t-52 -110.5h306z" />
    <glyph glyph-name="f" unicode="f" horiz-adv-x="346" 
d="M102 0v453h-75v70h75v85q0 81 39 124.5t117 43.5q33 0 62 -10v-70q-30 11 -59 11q-76 0 -76 -90v-94h128v-70h-128v-453h-83z" />
    <glyph glyph-name="g" unicode="g" horiz-adv-x="627" 
d="M293 -191q-109 0 -167.5 44.5t-69.5 116.5h85q18 -91 151 -91q81 0 124.5 39.5t43.5 121.5v76q-25 -42 -73 -70q-50 -29 -104 -29q-104 0 -171 70t-67 178v7q0 109 69 184q69 76 175 76q115 0 171 -93v84h83v-488q0 -56 -18 -98t-50.5 -70.5t-78.5 -43t-103 -14.5z
M292 86q37 0 68.5 12.5t54.5 36.5t35.5 58.5t12.5 77.5v7q0 88 -44 136.5t-122 48.5q-39 0 -69.5 -13.5t-52 -38t-33 -59t-11.5 -76.5v-8q0 -84 46 -133t115 -49z" />
    <glyph glyph-name="h" unicode="h" horiz-adv-x="598" 
d="M84 0v773h83v-333q19 40 63 66t105 26q87 0 135.5 -51t48.5 -160v-321h-83v327q0 69 -30 101t-93 32q-30 0 -57 -10t-46.5 -28.5t-31 -45t-11.5 -59.5v-317h-83z" />
    <glyph glyph-name="i" unicode="i" horiz-adv-x="255" 
d="M86 0v523h83v-523h-83zM164 648q-16 -16 -38 -16.5t-39 16.5q-16 16 -16 39t16 39q17 17 39 16.5t38 -16.5q17 -17 17 -39t-17 -39z" />
    <glyph glyph-name="j" unicode="j" horiz-adv-x="255" 
d="M9 -121q42 4 59.5 24t17.5 57v563h83v-556q0 -78 -37.5 -116.5t-122.5 -41.5v70zM164 648q-16 -16 -38 -16.5t-39 16.5q-16 16 -16 39t16 39q17 17 39 16.5t38 -16.5q17 -17 17 -39t-17 -39z" />
    <glyph glyph-name="k" unicode="k" horiz-adv-x="516" 
d="M84 0v773h83v-491l217 241h97l-224 -243l243 -280h-101l-232 271v-271h-83z" />
    <glyph glyph-name="l" unicode="l" horiz-adv-x="256" 
d="M86 0v773h84v-773h-84z" />
    <glyph glyph-name="m" unicode="m" horiz-adv-x="910" 
d="M84 0v523h83v-80q19 39 60.5 64t95.5 25q115 0 153 -98q12 24 31.5 42.5t43.5 30.5t50.5 18.5t53.5 6.5q39 0 71 -12.5t55.5 -38t36.5 -64.5t13 -93v-324h-83v330q0 130 -111 130q-57 0 -97 -37q-41 -38 -41 -103v-320h-83v330q0 130 -111 130q-57 0 -97 -37
q-41 -38 -41 -103v-320h-83z" />
    <glyph glyph-name="n" unicode="n" horiz-adv-x="598" 
d="M84 0v523h83v-83q19 40 63 66t105 26q87 0 135.5 -51t48.5 -160v-321h-83v327q0 69 -30 101t-93 32q-30 0 -57 -10t-46.5 -28.5t-31 -45t-11.5 -59.5v-317h-83z" />
    <glyph glyph-name="o" unicode="o" horiz-adv-x="604" 
d="M302 60q39 0 70.5 14t54 40t34.5 62t12 81v7q0 45 -12 82t-34.5 63t-54 40t-70.5 14t-71 -14t-54 -40t-34 -62.5t-12 -81.5v-8q0 -90 46 -143.5t125 -53.5zM301 -9q-112 0 -184 75t-72 191v8q0 117 72 192q73 75 185 75q110 0 184 -75q73 -75 73 -191v-8q0 -119 -73 -193
q-74 -74 -185 -74z" />
    <glyph glyph-name="p" unicode="p" horiz-adv-x="627" 
d="M84 -182v705h83v-88q12 20 31 37.5t42 31t50 21t54 7.5q103 0 171 -72q67 -72 67 -191v-8q0 -121 -66 -196q-65 -74 -172 -74q-61 0 -107 26.5t-70 68.5v-268h-83zM336 60q78 0 119 50.5t41 146.5v8q0 96 -45.5 147t-115.5 51q-76 0 -123.5 -50.5t-47.5 -147.5v-8
q0 -97 46.5 -147t125.5 -50z" />
    <glyph glyph-name="q" unicode="q" horiz-adv-x="627" 
d="M460 -182v272q-23 -39 -74 -70q-50 -29 -105 -29q-105 0 -171 70q-65 71 -65 190v8q0 119 68 196t176 77q115 0 171 -93v84h83v-705h-83zM290 60q78 0 125.5 50.5t47.5 147.5v8q0 99 -43.5 148t-122.5 49q-78 0 -122 -52t-44 -148v-8q0 -96 44.5 -145.5t114.5 -49.5z" />
    <glyph glyph-name="r" unicode="r" horiz-adv-x="376" 
d="M84 0v523h83v-94q27 49 66.5 75t105.5 28v-78q-43 -2 -75.5 -11.5t-54 -29t-32 -50.5t-10.5 -76v-287h-83z" />
    <glyph glyph-name="s" unicode="s" horiz-adv-x="480" 
d="M246 -9q-94 0 -147.5 44.5t-57.5 125.5h81q11 -101 123 -101q114 0 114 83q0 39 -28 57.5t-94 30.5q-102 20 -142 52q-40 34 -40 102t54 107q55 40 123 40q170 0 189 -151h-80q-9 43 -35 62.5t-75 19.5q-45 0 -72 -20.5t-27 -54.5q0 -18 5.5 -31t19.5 -22.5t37.5 -16.5
t59.5 -13q47 -9 75.5 -17.5t55.5 -25.5q28 -17 40.5 -44.5t12.5 -67.5q0 -73 -49 -116t-143 -43z" />
    <glyph glyph-name="t" unicode="t" horiz-adv-x="355" 
d="M243 -7q-69 0 -105 37t-36 101v322h-75v70h75v119h83v-119h122v-70h-122v-314q0 -76 65 -76q34 0 64 11v-70q-33 -11 -71 -11z" />
    <glyph glyph-name="u" unicode="u" horiz-adv-x="594" 
d="M261 -9q-84 0 -133 49t-49 152v331h83v-327q0 -69 29 -101t92 -32q58 0 101 38q43 37 43 105v317h83v-523h-83v83q-19 -40 -62.5 -66t-103.5 -26z" />
    <glyph glyph-name="v" unicode="v" horiz-adv-x="534" 
d="M215 0l-190 523h90l155 -439l153 439h86l-188 -523h-106z" />
    <glyph glyph-name="w" unicode="w" horiz-adv-x="794" 
d="M189 0l-161 523h90l122 -421l127 421h72l119 -421l123 421h85l-163 -523h-92l-109 392l-122 -392h-91z" />
    <glyph glyph-name="x" unicode="x" horiz-adv-x="528" 
d="M28 0l187 269l-175 254h97l128 -190l127 190h90l-173 -248l191 -275h-98l-141 211l-144 -211h-89z" />
    <glyph glyph-name="y" unicode="y" horiz-adv-x="529" 
d="M131 -182l99 236l-205 469h89l160 -375l145 375h85l-289 -705h-84z" />
    <glyph glyph-name="z" unicode="z" horiz-adv-x="483" 
d="M21 0v12l309 441h-279v70h407v-15l-302 -435h298v-73h-433z" />
    <glyph glyph-name="braceleft" unicode="{" horiz-adv-x="381" 
d="M337 -147q-115 0 -166.5 48.5t-31.5 159.5l19 104q4 25 -0.5 47t-18.5 38t-38.5 25.5t-60.5 9.5v62q36 0 60.5 9.5t38.5 25.5t18.5 38t0.5 47l-19 104q-20 111 31.5 159.5t166.5 48.5v-63q-38 0 -64 -7.5t-40.5 -24.5t-18 -45t3.5 -70l19 -115q9 -54 -17.5 -89.5
t-80.5 -48.5q54 -13 80.5 -48.5t17.5 -89.5l-19 -115q-7 -42 -3.5 -70t18 -45t40.5 -24.5t64 -7.5v-63z" />
    <glyph glyph-name="bar" unicode="|" horiz-adv-x="253" 
d="M93 -148v924h67v-924h-67z" />
    <glyph glyph-name="braceright" unicode="}" horiz-adv-x="381" 
d="M44 -84q38 0 64 7.5t40.5 24.5t18 45t-3.5 70l-19 115q-9 54 17.5 89.5t80.5 48.5q-54 13 -80.5 48.5t-17.5 89.5l19 115q7 42 3.5 70t-18 45t-40.5 24.5t-64 7.5v63q115 0 166.5 -48.5t31.5 -159.5l-19 -104q-5 -25 0 -47t19 -38t38.5 -25.5t60.5 -9.5v-62
q-36 0 -60.5 -9.5t-38.5 -25.5t-19 -38t0 -47l19 -104q20 -111 -31.5 -159.5t-166.5 -48.5v63z" />
    <glyph glyph-name="asciitilde" unicode="~" horiz-adv-x="445" 
d="M44 223q5 63 35.5 95.5t70.5 32.5q36 0 82 -26q46 -25 58 -25q17 0 30 13.5t15 39.5h66q-4 -63 -34 -95.5t-69 -32.5t-85 25q-47 26 -57 26q-17 0 -29.5 -14t-16.5 -39h-66z" />
    <glyph glyph-name="uni00A0" unicode="&#xa0;" horiz-adv-x="280" 
 />
    <glyph glyph-name="exclamdown" unicode="&#xa1;" horiz-adv-x="288" 
d="M97 -117l14 513h64l14 -513h-92zM189 493q-19 -18 -45 -18t-45 18q-19 19 -19 46t19 45q19 19 45 19t45 -19q19 -18 19 -45t-19 -46z" />
    <glyph glyph-name="cent" unicode="&#xa2;" horiz-adv-x="565" 
d="M267 -135v128q-100 11 -161 81t-61 182v8q0 108 62 182q63 74 160 84v99h59v-99q80 -7 134.5 -51t65.5 -130h-82q-15 99 -118 112v-399q51 7 85.5 39.5t40.5 86.5h77q-7 -77 -64 -134q-55 -53 -139 -61v-128h-59zM131 256q0 -85 36 -134t100 -60v398q-61 -11 -98.5 -63
t-37.5 -133v-8z" />
    <glyph glyph-name="sterling" unicode="&#xa3;" horiz-adv-x="596" 
d="M48 315v62h65q-18 76 -18 141q0 89 63 148q62 58 157 58q96 0 151.5 -50.5t62.5 -138.5h-84q-11 60 -40.5 89t-89.5 29q-57 0 -95 -38q-37 -37 -37 -98t17 -140h213v-62h-199q15 -75 15 -132q0 -35 -13 -65q14 -4 35.5 -12t51.5 -19q59 -23 85 -23q86 0 91 86h73
q-5 -72 -45 -115.5t-109 -43.5q-49 0 -123 31q-75 32 -99 32q-30 0 -46 -16t-19 -38h-73q2 20 9.5 40t20.5 36.5t31 28.5t42 17q12 28 12 62q0 44 -23 131h-82z" />
    <glyph glyph-name="yen" unicode="&#xa5;" horiz-adv-x="576" 
d="M84 281v58h156l-212 376h94l175 -324l167 324h84l-200 -376h157v-58h-168v-78h168v-58h-168v-145h-85v145h-168v58h168v78h-168z" />
    <glyph glyph-name="brokenbar" unicode="&#xa6;" horiz-adv-x="260" 
d="M93 -148v445h67v-445h-67zM93 367v409h67v-409h-67z" />
    <glyph glyph-name="section" unicode="&#xa7;" horiz-adv-x="539" 
d="M266 -137q-85 0 -136 42.5t-52 120.5h85q7 -93 101 -93q51 0 76.5 25t25.5 65t-29 63q-30 23 -112 44q-91 23 -137 61t-46 108q0 49 29.5 84.5t83.5 50.5q-61 43 -61 127q0 69 53 116q55 47 125 47q84 0 132.5 -41t50.5 -116h-84q-3 43 -25 65t-72 22q-49 0 -75 -26
q-25 -25 -25 -65t26 -63q27 -23 108 -42q48 -12 83.5 -26.5t59 -34t35 -47t11.5 -64.5q0 -45 -29.5 -81.5t-80.5 -52.5q59 -44 59 -127q0 -68 -53 -115t-127 -47zM326 185q89 23 89 94q0 41 -29.5 62.5t-95.5 38.5l-79 21q-40 -8 -63.5 -33.5t-23.5 -61.5q0 -38 30 -59.5
t97 -40.5z" />
    <glyph glyph-name="dieresis" unicode="&#xa8;" horiz-adv-x="400" 
d="M143 649q-15 -15 -37 -15.5t-38 15.5t-15.5 38t15.5 37q16 16 37.5 16t37.5 -16t16 -37.5t-16 -37.5zM331 649q-15 -15 -37 -15.5t-38 15.5t-15.5 38t15.5 37q16 16 37.5 16t37.5 -16t16 -37.5t-16 -37.5z" />
    <glyph glyph-name="copyright" unicode="&#xa9;" horiz-adv-x="844" 
d="M423 155q-91 0 -141.5 53.5t-50.5 144.5v8q0 88 54 144q54 55 138 55q70 0 116.5 -35.5t52.5 -102.5h-76q-12 78 -93 78q-52 0 -82.5 -36.5t-30.5 -102.5v-7q0 -66 29.5 -102t83.5 -36q89 0 101 83h72q-7 -70 -53.5 -107t-119.5 -37zM421 33q130 0 225 92q95 93 95 234
q0 139 -93 231q-94 92 -225 92q-133 0 -227 -92q-93 -92 -93 -233q0 -142 94 -233t224 -91zM421 -9q-154 0 -260 105q-106 106 -106 261q0 153 107 260t261 107q155 0 260 -106q106 -106 106 -259q0 -155 -107 -262q-106 -106 -261 -106z" />
    <glyph glyph-name="ordfeminine" unicode="&#xaa;" horiz-adv-x="419" 
d="M170 290q-63 0 -101.5 31.5t-38.5 92.5q0 34 15.5 59t44 41t67 23.5t85.5 7.5h58v26q0 48 -20 69t-65 21q-79 0 -90 -68h-77q6 66 53.5 98.5t117.5 32.5q159 0 159 -152v-274h-78v52q-47 -60 -130 -60zM184 351q51 0 83.5 24.5t32.5 69.5v46h-56q-135 0 -135 -75
q0 -65 75 -65z" />
    <glyph glyph-name="guillemotleft" unicode="&#xab;" horiz-adv-x="500" 
d="M189 83l-130 178l130 178h82l-125 -178l125 -178h-82zM367 83l-130 178l130 178h82l-125 -178l125 -178h-82z" />
    <glyph glyph-name="registered" unicode="&#xae;" horiz-adv-x="514" 
d="M181 396v219h77q84 0 84 -66v-1q0 -46 -45 -59l58 -93h-50l-53 85h-23v-85h-48zM229 514h28q38 0 38 32v1q0 31 -38 31h-28v-64zM439 503q0 82 -51 133q-51 52 -131 52t-131 -52q-51 -53 -51 -134t52 -133q52 -51 130 -51t130 52t52 133zM35 502q0 93 64 157
q65 65 158 65q94 0 158 -64t64 -157q0 -92 -65 -157q-64 -64 -157 -64q-94 0 -158 63q-64 64 -64 157z" />
    <glyph glyph-name="macron" unicode="&#xaf;" horiz-adv-x="400" 
d="M69 648v64h262v-64h-262z" />
    <glyph glyph-name="degree" unicode="&#xb0;" horiz-adv-x="427" 
d="M214 464q39 0 64 28.5t25 71.5q0 45 -25 73.5t-64 28.5q-40 0 -66.5 -28.5t-26.5 -73.5q0 -42 26.5 -71t66.5 -29zM214 406q-69 0 -116 46q-48 46 -48 112t48 113q49 47 116 47q66 0 115 -47q48 -47 48 -113t-48 -112q-47 -46 -115 -46z" />
    <glyph glyph-name="plusminus" unicode="&#xb1;" horiz-adv-x="519" 
d="M223 145v182h-187v70h187v182h73v-182h187v-70h-187v-182h-73zM36 0v70h447v-70h-447z" />
    <glyph glyph-name="twosuperior" unicode="&#xb2;" horiz-adv-x="286" 
d="M8 373v11l128 136q54 59 54 97q0 23 -13 36.5t-37 13.5q-53 0 -60 -66h-61q3 57 35.5 87.5t87.5 30.5q54 0 84 -27.5t30 -73.5q0 -58 -66 -122l-73 -72h142v-51h-251z" />
    <glyph glyph-name="threesuperior" unicode="&#xb3;" horiz-adv-x="311" 
d="M152 368q-61 0 -95 30t-36 81h61q7 -61 68 -61q63 0 63 54t-60 54h-26v47h25q56 0 56 49q0 21 -13.5 34t-38.5 13q-26 0 -42.5 -14.5t-19.5 -40.5h-61q3 48 36.5 76.5t87.5 28.5t84.5 -26t30.5 -66q0 -55 -57 -74q67 -15 67 -82q0 -48 -35 -75.5t-95 -27.5z" />
    <glyph glyph-name="acute" unicode="&#xb4;" horiz-adv-x="400" 
d="M161 613l62 147h104l-104 -147h-62z" />
    <glyph glyph-name="paragraph" unicode="&#xb6;" horiz-adv-x="588" 
d="M276 -100v446h-14q-99 0 -158 46.5t-59 134.5q0 46 16 81t44.5 59t68.5 36t88 12h232v-815h-69v758h-81v-758h-68z" />
    <glyph glyph-name="periodcentered" unicode="&#xb7;" horiz-adv-x="282" 
d="M186 281q-19 -18 -45 -18t-45 18q-19 19 -19 46t19 45q19 19 45 19t45 -19q19 -18 19 -45t-19 -46z" />
    <glyph glyph-name="cedilla" unicode="&#xb8;" horiz-adv-x="400" 
d="M162 -130q7 -34 43 -36q20 -1 29.5 10.5t10 25.5t-8.5 25t-27 9q-14 0 -28 -8l-32 28l42 76h53l-29 -53q37 5 65.5 -16.5t28.5 -64.5q0 -39 -29 -59.5t-72 -20.5t-70 23t-30 61h54z" />
    <glyph glyph-name="onesuperior" unicode="&#xb9;" horiz-adv-x="231" 
d="M105 373v276l-81 -54v59l89 61h60v-342h-68z" />
    <glyph glyph-name="ordmasculine" unicode="&#xba;" horiz-adv-x="493" 
d="M247 354q60 0 93.5 40.5t33.5 109.5v6q0 69 -34.5 109.5t-92.5 40.5q-60 0 -94 -40.5t-34 -109.5v-6q0 -69 34 -109.5t94 -40.5zM246 290q-92 0 -150 60q-59 61 -59 153v6q0 94 59 155q60 60 151 60t150 -60q59 -59 59 -153v-6q0 -95 -59 -156q-59 -59 -151 -59z" />
    <glyph glyph-name="guillemotright" unicode="&#xbb;" horiz-adv-x="500" 
d="M51 83l125 178l-125 178h82l130 -178l-130 -178h-82zM229 83l125 178l-125 178h82l130 -178l-130 -178h-82z" />
    <glyph glyph-name="onequarter" unicode="&#xbc;" horiz-adv-x="678" 
d="M108 373v276l-81 -54v59l89 61h60v-342h-68zM49 0l507 715h66l-507 -715h-66zM546 0v69h-172v24l153 249h83v-224h45v-49h-45v-69h-64zM446 118h101v173z" />
    <glyph glyph-name="onehalf" unicode="&#xbd;" horiz-adv-x="677" 
d="M108 373v276l-81 -54v59l89 61h60v-342h-68zM36 0l507 715h66l-507 -715h-66zM395 0v11l128 136q54 59 54 97q0 23 -13 36.5t-37 13.5q-53 0 -60 -66h-61q3 57 35.5 87.5t87.5 30.5q54 0 84 -27.5t30 -73.5q0 -58 -66 -122l-73 -72h142v-51h-251z" />
    <glyph glyph-name="threequarters" unicode="&#xbe;" horiz-adv-x="681" 
d="M155 368q-61 0 -95 30t-36 81h61q7 -61 68 -61q63 0 63 54t-60 54h-26v47h25q56 0 56 49q0 21 -13.5 34t-38.5 13q-26 0 -42.5 -14.5t-19.5 -40.5h-61q3 48 36.5 76.5t87.5 28.5t84.5 -26t30.5 -66q0 -55 -57 -74q67 -15 67 -82q0 -48 -35 -75.5t-95 -27.5zM85 0l507 715
h66l-507 -715h-66zM546 0v69h-172v24l153 249h83v-224h45v-49h-45v-69h-64zM446 118h101v173z" />
    <glyph glyph-name="questiondown" unicode="&#xbf;" horiz-adv-x="489" 
d="M310 396v-50q0 -38 -18 -74q-19 -37 -34 -54q-8 -9 -21 -22l-30 -30q-24 -24 -37 -40q-13 -15 -24.5 -37.5t-11.5 -45.5q0 -46 26.5 -73t80.5 -27q57 0 92.5 35t40.5 95h78q-5 -89 -63 -144t-149 -55q-48 0 -83.5 13t-59 35.5t-35.5 52.5t-12 65t16 67q16 34 33 51
q16 18 49 49l25 25l19 19q15 17 29.5 45t14.5 57v43h74zM230 584q19 19 45 19t45 -19q19 -18 19 -45t-19 -46q-19 -18 -45 -18t-45 18q-19 19 -19 46t19 45z" />
    <glyph glyph-name="Agrave" unicode="&#xc0;" horiz-adv-x="674" 
d="M36 0l246 715h114l242 -715h-86l-70 206h-295l-69 -206h-82zM335 643l-124 -368h248zM312 771l-98 127h104l56 -127h-62z" />
    <glyph glyph-name="Aacute" unicode="&#xc1;" horiz-adv-x="674" 
d="M36 0l246 715h114l242 -715h-86l-70 206h-295l-69 -206h-82zM335 643l-124 -368h248zM300 771l56 127h104l-98 -127h-62z" />
    <glyph glyph-name="Acircumflex" unicode="&#xc2;" horiz-adv-x="674" 
d="M36 0l246 715h114l242 -715h-86l-70 206h-295l-69 -206h-82zM335 643l-124 -368h248zM192 771l108 127h75l107 -127h-61l-85 58l-85 -58h-59z" />
    <glyph glyph-name="Atilde" unicode="&#xc3;" horiz-adv-x="674" 
d="M36 0l246 715h114l242 -715h-86l-70 206h-295l-69 -206h-82zM335 643l-124 -368h248zM391 774q-23 0 -59 21q-35 22 -49 22t-25 -12.5t-15 -32.5h-60q6 54 34 85t67 31q22 0 58 -22q34 -21 49 -21q14 0 25 12.5t15 32.5h60q-6 -54 -33.5 -85t-66.5 -31z" />
    <glyph glyph-name="Adieresis" unicode="&#xc4;" horiz-adv-x="674" 
d="M36 0l246 715h114l242 -715h-86l-70 206h-295l-69 -206h-82zM335 643l-124 -368h248zM272 804q-15 -15 -37 -15.5t-38 15.5t-15.5 38t15.5 37q16 16 37.5 16t37.5 -16t16 -37.5t-16 -37.5zM475 804q-15 -15 -37 -15.5t-38 15.5t-15.5 38t15.5 37q16 16 37.5 16t37.5 -16
t16 -37.5t-16 -37.5z" />
    <glyph glyph-name="Aring" unicode="&#xc5;" horiz-adv-x="674" 
d="M36 0l246 715h114l242 -715h-86l-70 206h-295l-69 -206h-82zM335 643l-124 -368h248zM412 789q-32 -30 -75 -30q-45 0 -76 30q-15 15 -23 34.5t-8 39.5t8 39t23 34q31 31 76 31q42 0 75 -31q32 -31 32 -73.5t-32 -73.5zM299 821q15 -16 38 -16t38 16q16 17 15.5 42
t-15.5 41q-16 17 -38 17t-38 -17q-15 -16 -15.5 -41t15.5 -42z" />
    <glyph glyph-name="AE" unicode="&#xc6;" horiz-adv-x="950" 
d="M29 0l370 715h492v-71h-330v-243h266v-71h-266v-259h348v-71h-435v207h-252l-105 -207h-88zM443 644l-187 -369h218v369h-31z" />
    <glyph glyph-name="Ccedilla" unicode="&#xc7;" horiz-adv-x="730" 
d="M335 -130q7 -34 43 -36q20 -1 29.5 10.5t10 25.5t-8.5 25t-27 9q-14 0 -28 -8l-32 28l37 68q-142 10 -223 106q-81 97 -81 255v8q0 158 95 262q94 103 241 103q118 0 198 -61q82 -62 92 -173h-86q-27 165 -203 165q-112 0 -179 -81q-68 -80 -68 -214v-8q0 -69 17 -123
t48.5 -91.5t77.5 -57.5t103 -20q90 0 146.5 44t69.5 131h81q-18 -115 -89.5 -177.5t-186.5 -67.5l-24 -45q37 5 65.5 -16.5t28.5 -64.5q0 -39 -29 -59.5t-72 -20.5t-70 23t-30 61h54z" />
    <glyph glyph-name="Egrave" unicode="&#xc8;" horiz-adv-x="566" 
d="M90 0v715h417v-71h-330v-243h266v-71h-266v-259h348v-71h-435zM281 771l-98 127h104l56 -127h-62z" />
    <glyph glyph-name="Eacute" unicode="&#xc9;" horiz-adv-x="566" 
d="M90 0v715h417v-71h-330v-243h266v-71h-266v-259h348v-71h-435zM269 771l56 127h104l-98 -127h-62z" />
    <glyph glyph-name="Ecircumflex" unicode="&#xca;" horiz-adv-x="566" 
d="M90 0v715h417v-71h-330v-243h266v-71h-266v-259h348v-71h-435zM161 771l108 127h75l107 -127h-61l-85 58l-85 -58h-59z" />
    <glyph glyph-name="Edieresis" unicode="&#xcb;" horiz-adv-x="566" 
d="M90 0v715h417v-71h-330v-243h266v-71h-266v-259h348v-71h-435zM241 804q-15 -15 -37 -15.5t-38 15.5t-15.5 38t15.5 37q16 16 37.5 16t37.5 -16t16 -37.5t-16 -37.5zM444 804q-15 -15 -37 -15.5t-38 15.5t-15.5 38t15.5 37q16 16 37.5 16t37.5 -16t16 -37.5t-16 -37.5z
" />
    <glyph glyph-name="Igrave" unicode="&#xcc;" horiz-adv-x="277" 
d="M95 0v715h87v-715h-87zM113 771l-98 127h104l56 -127h-62z" />
    <glyph glyph-name="Iacute" unicode="&#xcd;" horiz-adv-x="277" 
d="M95 0v715h87v-715h-87zM101 771l56 127h104l-98 -127h-62z" />
    <glyph glyph-name="Icircumflex" unicode="&#xce;" horiz-adv-x="277" 
d="M95 0v715h87v-715h-87zM-7 771l108 127h75l107 -127h-61l-85 58l-85 -58h-59z" />
    <glyph glyph-name="Idieresis" unicode="&#xcf;" horiz-adv-x="277" 
d="M95 0v715h87v-715h-87zM73 804q-15 -15 -37 -15t-37 15q-16 16 -16 37.5t16 37.5t37 16t37 -16t16 -37.5t-16 -37.5zM276 804q-15 -15 -37 -15.5t-38 15.5t-15.5 38t15.5 37q16 16 37.5 16t37.5 -16t16 -37.5t-16 -37.5z" />
    <glyph glyph-name="Eth" unicode="&#xd0;" horiz-adv-x="716" 
d="M34 325v67h76v323h189q178 0 269 -97q93 -98 93 -254v-9q0 -157 -93 -256q-92 -99 -271 -99h-187v325h-76zM197 71h98q136 0 206 75t70 210v8q0 131 -67.5 206t-209.5 75h-97v-253h207v-67h-207v-254z" />
    <glyph glyph-name="Ntilde" unicode="&#xd1;" horiz-adv-x="724" 
d="M90 0v715h113l348 -591v591h83v-715h-100l-361 613v-613h-83zM426 774q-23 0 -59 21q-35 22 -49 22t-25 -12.5t-15 -32.5h-60q6 54 34 85t67 31q22 0 58 -22q34 -21 49 -21q14 0 25 12.5t15 32.5h60q-6 -54 -33.5 -85t-66.5 -31z" />
    <glyph glyph-name="Ograve" unicode="&#xd2;" horiz-adv-x="811" 
d="M409 63q118 0 187 81q70 80 70 212v8q0 125 -70 207q-69 83 -189 83q-122 0 -192 -81q-70 -80 -70 -211v-8q0 -129 75 -210t189 -81zM409 -9q-156 0 -255 104q-99 105 -99 258v8q0 155 98 259q99 104 254 104q154 0 252 -104q97 -103 97 -257v-8q0 -155 -97 -259
q-98 -105 -250 -105zM380 771l-98 127h104l56 -127h-62z" />
    <glyph glyph-name="Oacute" unicode="&#xd3;" horiz-adv-x="811" 
d="M409 63q118 0 187 81q70 80 70 212v8q0 125 -70 207q-69 83 -189 83q-122 0 -192 -81q-70 -80 -70 -211v-8q0 -129 75 -210t189 -81zM409 -9q-156 0 -255 104q-99 105 -99 258v8q0 155 98 259q99 104 254 104q154 0 252 -104q97 -103 97 -257v-8q0 -155 -97 -259
q-98 -105 -250 -105zM368 771l56 127h104l-98 -127h-62z" />
    <glyph glyph-name="Ocircumflex" unicode="&#xd4;" horiz-adv-x="811" 
d="M409 63q118 0 187 81q70 80 70 212v8q0 125 -70 207q-69 83 -189 83q-122 0 -192 -81q-70 -80 -70 -211v-8q0 -129 75 -210t189 -81zM409 -9q-156 0 -255 104q-99 105 -99 258v8q0 155 98 259q99 104 254 104q154 0 252 -104q97 -103 97 -257v-8q0 -155 -97 -259
q-98 -105 -250 -105zM260 771l108 127h75l107 -127h-61l-85 58l-85 -58h-59z" />
    <glyph glyph-name="Otilde" unicode="&#xd5;" horiz-adv-x="811" 
d="M409 63q118 0 187 81q70 80 70 212v8q0 125 -70 207q-69 83 -189 83q-122 0 -192 -81q-70 -80 -70 -211v-8q0 -129 75 -210t189 -81zM409 -9q-156 0 -255 104q-99 105 -99 258v8q0 155 98 259q99 104 254 104q154 0 252 -104q97 -103 97 -257v-8q0 -155 -97 -259
q-98 -105 -250 -105zM459 774q-23 0 -59 21q-35 22 -49 22t-25 -12.5t-15 -32.5h-60q6 54 34 85t67 31q22 0 58 -22q34 -21 49 -21q14 0 25 12.5t15 32.5h60q-6 -54 -33.5 -85t-66.5 -31z" />
    <glyph glyph-name="Odieresis" unicode="&#xd6;" horiz-adv-x="811" 
d="M409 63q118 0 187 81q70 80 70 212v8q0 125 -70 207q-69 83 -189 83q-122 0 -192 -81q-70 -80 -70 -211v-8q0 -129 75 -210t189 -81zM409 -9q-156 0 -255 104q-99 105 -99 258v8q0 155 98 259q99 104 254 104q154 0 252 -104q97 -103 97 -257v-8q0 -155 -97 -259
q-98 -105 -250 -105zM340 804q-15 -15 -37 -15.5t-38 15.5t-15.5 38t15.5 37q16 16 37.5 16t37.5 -16t16 -37.5t-16 -37.5zM543 804q-15 -15 -37 -15.5t-38 15.5t-15.5 38t15.5 37q16 16 37.5 16t37.5 -16t16 -37.5t-16 -37.5z" />
    <glyph glyph-name="multiply" unicode="&#xd7;" horiz-adv-x="469" 
d="M80 131l-47 48l154 154l-154 154l47 48l154 -155l154 155l48 -48l-154 -154l154 -154l-48 -48l-154 155z" />
    <glyph glyph-name="Oslash" unicode="&#xd8;" horiz-adv-x="811" 
d="M80 -33l-45 45l98 107q-78 97 -78 234v8q0 155 98 259q99 104 254 104q123 0 214 -70l81 88l45 -45l-79 -87q88 -100 88 -247v-8q0 -155 -97 -259q-98 -105 -250 -105q-137 0 -232 82zM409 63q118 0 187 81q70 80 70 212v8q0 112 -52 188l-384 -421q71 -68 179 -68z
M145 354q0 -100 44 -173l382 418q-65 55 -164 55q-122 0 -192 -81q-70 -80 -70 -211v-8z" />
    <glyph glyph-name="Ugrave" unicode="&#xd9;" horiz-adv-x="696" 
d="M341 -9q-124 0 -190.5 69.5t-66.5 200.5v454h87v-444q0 -111 41 -159.5t131 -48.5q92 0 137 48t45 173v431h87v-443q0 -135 -67.5 -208t-203.5 -73zM323 771l-98 127h104l56 -127h-62z" />
    <glyph glyph-name="Uacute" unicode="&#xda;" horiz-adv-x="696" 
d="M341 -9q-124 0 -190.5 69.5t-66.5 200.5v454h87v-444q0 -111 41 -159.5t131 -48.5q92 0 137 48t45 173v431h87v-443q0 -135 -67.5 -208t-203.5 -73zM311 771l56 127h104l-98 -127h-62z" />
    <glyph glyph-name="Ucircumflex" unicode="&#xdb;" horiz-adv-x="696" 
d="M341 -9q-124 0 -190.5 69.5t-66.5 200.5v454h87v-444q0 -111 41 -159.5t131 -48.5q92 0 137 48t45 173v431h87v-443q0 -135 -67.5 -208t-203.5 -73zM203 771l108 127h75l107 -127h-61l-85 58l-85 -58h-59z" />
    <glyph glyph-name="Udieresis" unicode="&#xdc;" horiz-adv-x="696" 
d="M341 -9q-124 0 -190.5 69.5t-66.5 200.5v454h87v-444q0 -111 41 -159.5t131 -48.5q92 0 137 48t45 173v431h87v-443q0 -135 -67.5 -208t-203.5 -73zM283 804q-15 -15 -37 -15.5t-38 15.5t-15.5 38t15.5 37q16 16 37.5 16t37.5 -16t16 -37.5t-16 -37.5zM486 804
q-15 -15 -37 -15.5t-38 15.5t-15.5 38t15.5 37q16 16 37.5 16t37.5 -16t16 -37.5t-16 -37.5z" />
    <glyph glyph-name="Yacute" unicode="&#xdd;" horiz-adv-x="598" 
d="M262 0v312l-239 403h98l187 -332l180 332h87l-226 -404v-311h-87zM262 771l56 127h104l-98 -127h-62z" />
    <glyph glyph-name="Thorn" unicode="&#xde;" horiz-adv-x="581" 
d="M90 0v715h87v-134h116q111 0 181 -50q69 -50 69 -155v-4q0 -108 -70 -157q-70 -50 -180 -50h-116v-165h-87zM177 234h122q157 0 157 138v4q0 73 -39.5 104t-117.5 31h-122v-277z" />
    <glyph glyph-name="germandbls" unicode="&#xdf;" horiz-adv-x="590" 
d="M335 -9q-53 0 -92 16v71q37 -18 88 -18q130 0 130 150v7q0 40 -14 73t-39.5 56t-61.5 34.5t-81 10.5v71q77 -2 113 37q36 40 36 94v4q0 54 -31 82.5t-91 28.5q-57 0 -91 -37.5t-34 -100.5v-570h-83v566q0 93 61 151q62 59 148 59q88 0 144 -50t56 -129v-4q0 -25 -8 -50
t-23.5 -46.5t-37.5 -38.5t-50 -26q39 -10 71 -30t54.5 -48t35 -62.5t12.5 -73.5v-6q0 -117 -60 -169q-59 -52 -152 -52z" />
    <glyph glyph-name="agrave" unicode="&#xe0;" horiz-adv-x="540" 
d="M215 -9q-77 0 -125.5 38.5t-48.5 115.5q0 84 74 123q75 39 188 39h75v38q0 63 -26 90.5t-86 27.5q-108 0 -120 -94h-83q4 42 21.5 72.5t44.5 51t63 30t78 9.5q191 0 191 -187v-345h-83v66q-60 -75 -163 -75zM223 57q69 0 112 33t43 93v65h-72q-182 0 -182 -103
q0 -88 99 -88zM246 613l-104 147h104l62 -147h-62z" />
    <glyph glyph-name="aacute" unicode="&#xe1;" horiz-adv-x="540" 
d="M215 -9q-77 0 -125.5 38.5t-48.5 115.5q0 84 74 123q75 39 188 39h75v38q0 63 -26 90.5t-86 27.5q-108 0 -120 -94h-83q4 42 21.5 72.5t44.5 51t63 30t78 9.5q191 0 191 -187v-345h-83v66q-60 -75 -163 -75zM223 57q69 0 112 33t43 93v65h-72q-182 0 -182 -103
q0 -88 99 -88zM234 613l62 147h104l-104 -147h-62z" />
    <glyph glyph-name="acircumflex" unicode="&#xe2;" horiz-adv-x="540" 
d="M215 -9q-77 0 -125.5 38.5t-48.5 115.5q0 84 74 123q75 39 188 39h75v38q0 63 -26 90.5t-86 27.5q-108 0 -120 -94h-83q4 42 21.5 72.5t44.5 51t63 30t78 9.5q191 0 191 -187v-345h-83v66q-60 -75 -163 -75zM223 57q69 0 112 33t43 93v65h-72q-182 0 -182 -103
q0 -88 99 -88zM115 613l108 144h75l107 -144h-61l-85 75l-85 -75h-59z" />
    <glyph glyph-name="atilde" unicode="&#xe3;" horiz-adv-x="540" 
d="M215 -9q-77 0 -125.5 38.5t-48.5 115.5q0 84 74 123q75 39 188 39h75v38q0 63 -26 90.5t-86 27.5q-108 0 -120 -94h-83q4 42 21.5 72.5t44.5 51t63 30t78 9.5q191 0 191 -187v-345h-83v66q-60 -75 -163 -75zM223 57q69 0 112 33t43 93v65h-72q-182 0 -182 -103
q0 -88 99 -88zM325 619q-23 0 -59 21q-35 22 -49 22t-25 -12.5t-15 -32.5h-60q6 54 34 85t67 31q22 0 58 -22q34 -21 49 -21q14 0 25 12.5t15 32.5h60q-6 -54 -33.5 -85t-66.5 -31z" />
    <glyph glyph-name="adieresis" unicode="&#xe4;" horiz-adv-x="540" 
d="M215 -9q-77 0 -125.5 38.5t-48.5 115.5q0 84 74 123q75 39 188 39h75v38q0 63 -26 90.5t-86 27.5q-108 0 -120 -94h-83q4 42 21.5 72.5t44.5 51t63 30t78 9.5q191 0 191 -187v-345h-83v66q-60 -75 -163 -75zM223 57q69 0 112 33t43 93v65h-72q-182 0 -182 -103
q0 -88 99 -88zM214 649q-15 -15 -37 -15.5t-38 15.5t-15.5 38t15.5 37q16 16 37.5 16t37.5 -16t16 -37.5t-16 -37.5zM402 649q-15 -15 -37 -15.5t-38 15.5t-15.5 38t15.5 37q16 16 37.5 16t37.5 -16t16 -37.5t-16 -37.5z" />
    <glyph glyph-name="aring" unicode="&#xe5;" horiz-adv-x="540" 
d="M215 -9q-77 0 -125.5 38.5t-48.5 115.5q0 84 74 123q75 39 188 39h75v38q0 63 -26 90.5t-86 27.5q-108 0 -120 -94h-83q4 42 21.5 72.5t44.5 51t63 30t78 9.5q191 0 191 -187v-345h-83v66q-60 -75 -163 -75zM223 57q69 0 112 33t43 93v65h-72q-182 0 -182 -103
q0 -88 99 -88zM233 660q15 -16 38 -16t38 16q16 17 15.5 42t-15.5 41q-16 17 -38 17t-38 -17q-15 -16 -15.5 -41t15.5 -42zM346 628q-32 -30 -75 -30q-45 0 -76 30q-15 15 -23 34.5t-8 39.5t8 39t23 34q31 31 76 31q42 0 75 -31q32 -31 32 -73.5t-32 -73.5z" />
    <glyph glyph-name="ae" unicode="&#xe6;" horiz-adv-x="880" 
d="M616 -9q-133 0 -197 108q-36 -57 -84 -82.5t-120 -25.5q-77 0 -125.5 38.5t-48.5 115.5q0 85 73 125t186 40h78v34q0 63 -27 91t-85 28q-108 0 -120 -94h-83q4 42 21.5 72.5t44.5 51t63 30t78 9.5q123 0 164 -89q65 89 176 89q98 0 162 -64q65 -65 65 -196v-25h-379
q3 -91 43 -139t116 -48q117 0 133 91h83q-13 -78 -71 -119t-146 -41zM223 57q69 0 112 33t43 93v64h-75q-179 0 -179 -102q0 -88 99 -88zM752 310q-11 153 -142 153q-60 0 -99.5 -40.5t-49.5 -112.5h291z" />
    <glyph glyph-name="ccedilla" unicode="&#xe7;" horiz-adv-x="570" 
d="M240 -130q7 -34 43 -36q20 -1 29.5 10.5t10 25.5t-8.5 25t-27 9q-14 0 -28 -8l-32 28l38 69q-97 10 -159 82q-61 70 -61 181v8q0 119 73 193q73 75 181 75q90 0 153 -45q64 -44 74 -138h-82q-18 114 -145 114q-73 0 -121 -55q-47 -55 -47 -144v-8q0 -94 46.5 -145
t124.5 -51q30 0 56 8.5t46 25t32.5 40.5t15.5 54h77q-7 -81 -66 -137q-59 -55 -146 -59l-24 -45q37 5 65.5 -16.5t28.5 -64.5q0 -39 -29 -59.5t-72 -20.5t-70 23t-30 61h54z" />
    <glyph glyph-name="egrave" unicode="&#xe8;" horiz-adv-x="568" 
d="M298 -9q-113 0 -183 72q-70 73 -70 193v8q0 117 68 193q69 75 177 75q99 0 167 -65t68 -195v-27h-394q3 -91 45 -138t123 -47q123 0 139 91h83q-13 -78 -72.5 -119t-150.5 -41zM440 312q-10 151 -150 151q-63 0 -104 -40.5t-52 -110.5h306zM265 613l-104 147h104l62 -147
h-62z" />
    <glyph glyph-name="eacute" unicode="&#xe9;" horiz-adv-x="568" 
d="M298 -9q-113 0 -183 72q-70 73 -70 193v8q0 117 68 193q69 75 177 75q99 0 167 -65t68 -195v-27h-394q3 -91 45 -138t123 -47q123 0 139 91h83q-13 -78 -72.5 -119t-150.5 -41zM440 312q-10 151 -150 151q-63 0 -104 -40.5t-52 -110.5h306zM253 613l62 147h104l-104 -147
h-62z" />
    <glyph glyph-name="ecircumflex" unicode="&#xea;" horiz-adv-x="568" 
d="M298 -9q-113 0 -183 72q-70 73 -70 193v8q0 117 68 193q69 75 177 75q99 0 167 -65t68 -195v-27h-394q3 -91 45 -138t123 -47q123 0 139 91h83q-13 -78 -72.5 -119t-150.5 -41zM440 312q-10 151 -150 151q-63 0 -104 -40.5t-52 -110.5h306zM145 613l108 144h75l107 -144
h-61l-85 75l-85 -75h-59z" />
    <glyph glyph-name="edieresis" unicode="&#xeb;" horiz-adv-x="568" 
d="M298 -9q-113 0 -183 72q-70 73 -70 193v8q0 117 68 193q69 75 177 75q99 0 167 -65t68 -195v-27h-394q3 -91 45 -138t123 -47q123 0 139 91h83q-13 -78 -72.5 -119t-150.5 -41zM440 312q-10 151 -150 151q-63 0 -104 -40.5t-52 -110.5h306zM233 649q-15 -15 -37 -15.5
t-38 15.5t-15.5 38t15.5 37q16 16 37.5 16t37.5 -16t16 -37.5t-16 -37.5zM421 649q-15 -15 -37 -15.5t-38 15.5t-15.5 38t15.5 37q16 16 37.5 16t37.5 -16t16 -37.5t-16 -37.5z" />
    <glyph glyph-name="igrave" unicode="&#xec;" horiz-adv-x="255" 
d="M86 0v523h83v-523h-83zM102 613l-104 147h104l62 -147h-62z" />
    <glyph glyph-name="iacute" unicode="&#xed;" horiz-adv-x="255" 
d="M86 0v523h83v-523h-83zM90 613l62 147h104l-104 -147h-62z" />
    <glyph glyph-name="icircumflex" unicode="&#xee;" horiz-adv-x="255" 
d="M86 0v523h83v-523h-83zM-18 613l108 144h75l107 -144h-61l-85 75l-85 -75h-59z" />
    <glyph glyph-name="idieresis" unicode="&#xef;" horiz-adv-x="255" 
d="M74 649q-15 -15 -37 -15t-37 15q-16 16 -16 37.5t16 37.5t37 16t37 -16t16 -37.5t-16 -37.5zM254 649q-15 -15 -37 -15.5t-38 15.5t-15.5 38t15.5 37q16 16 37.5 16t37.5 -16t16 -37.5t-16 -37.5zM86 0v523h83v-523h-83z" />
    <glyph glyph-name="eth" unicode="&#xf0;" horiz-adv-x="604" 
d="M185 573l-29 48l97 57q-27 23 -58 47t-66 48h107q23 -13 43.5 -26.5t40.5 -28.5l83 49l29 -49l-67 -39q83 -77 139 -180q55 -100 55 -215v-22q0 -119 -73 -195t-185 -76t-184 75t-72 191v8q0 115 70 191t168 76q92 0 151 -72q-44 89 -137 179zM302 60q39 0 70.5 14t54 40
t34.5 62t12 81v7q0 45 -12 82t-34 63t-53.5 40t-70.5 14t-71 -14t-54.5 -40t-34.5 -62.5t-12 -81.5v-8q0 -90 46 -143.5t125 -53.5z" />
    <glyph glyph-name="ntilde" unicode="&#xf1;" horiz-adv-x="598" 
d="M84 0v523h83v-83q19 40 63 66t105 26q87 0 135.5 -51t48.5 -160v-321h-83v327q0 69 -30 101t-93 32q-30 0 -57 -10t-46.5 -28.5t-31 -45t-11.5 -59.5v-317h-83zM352 619q-23 0 -59 21q-35 22 -49 22t-25 -12.5t-15 -32.5h-60q6 54 34 85t67 31q22 0 58 -22q34 -21 49 -21
q14 0 25 12.5t15 32.5h60q-6 -54 -33.5 -85t-66.5 -31z" />
    <glyph glyph-name="ograve" unicode="&#xf2;" horiz-adv-x="604" 
d="M302 60q39 0 70.5 14t54 40t34.5 62t12 81v7q0 45 -12 82t-34.5 63t-54 40t-70.5 14t-71 -14t-54 -40t-34 -62.5t-12 -81.5v-8q0 -90 46 -143.5t125 -53.5zM301 -9q-112 0 -184 75t-72 191v8q0 117 72 192q73 75 185 75q110 0 184 -75q73 -75 73 -191v-8q0 -119 -73 -193
q-74 -74 -185 -74zM277 613l-104 147h104l62 -147h-62z" />
    <glyph glyph-name="oacute" unicode="&#xf3;" horiz-adv-x="604" 
d="M302 60q39 0 70.5 14t54 40t34.5 62t12 81v7q0 45 -12 82t-34.5 63t-54 40t-70.5 14t-71 -14t-54 -40t-34 -62.5t-12 -81.5v-8q0 -90 46 -143.5t125 -53.5zM301 -9q-112 0 -184 75t-72 191v8q0 117 72 192q73 75 185 75q110 0 184 -75q73 -75 73 -191v-8q0 -119 -73 -193
q-74 -74 -185 -74zM265 613l62 147h104l-104 -147h-62z" />
    <glyph glyph-name="ocircumflex" unicode="&#xf4;" horiz-adv-x="604" 
d="M302 60q39 0 70.5 14t54 40t34.5 62t12 81v7q0 45 -12 82t-34.5 63t-54 40t-70.5 14t-71 -14t-54 -40t-34 -62.5t-12 -81.5v-8q0 -90 46 -143.5t125 -53.5zM301 -9q-112 0 -184 75t-72 191v8q0 117 72 192q73 75 185 75q110 0 184 -75q73 -75 73 -191v-8q0 -119 -73 -193
q-74 -74 -185 -74zM157 613l108 144h75l107 -144h-61l-85 75l-85 -75h-59z" />
    <glyph glyph-name="otilde" unicode="&#xf5;" horiz-adv-x="604" 
d="M302 60q39 0 70.5 14t54 40t34.5 62t12 81v7q0 45 -12 82t-34.5 63t-54 40t-70.5 14t-71 -14t-54 -40t-34 -62.5t-12 -81.5v-8q0 -90 46 -143.5t125 -53.5zM301 -9q-112 0 -184 75t-72 191v8q0 117 72 192q73 75 185 75q110 0 184 -75q73 -75 73 -191v-8q0 -119 -73 -193
q-74 -74 -185 -74zM356 619q-23 0 -59 21q-35 22 -49 22t-25 -12.5t-15 -32.5h-60q6 54 34 85t67 31q22 0 58 -22q34 -21 49 -21q14 0 25 12.5t15 32.5h60q-6 -54 -33.5 -85t-66.5 -31z" />
    <glyph glyph-name="odieresis" unicode="&#xf6;" horiz-adv-x="604" 
d="M302 60q39 0 70.5 14t54 40t34.5 62t12 81v7q0 45 -12 82t-34.5 63t-54 40t-70.5 14t-71 -14t-54 -40t-34 -62.5t-12 -81.5v-8q0 -90 46 -143.5t125 -53.5zM301 -9q-112 0 -184 75t-72 191v8q0 117 72 192q73 75 185 75q110 0 184 -75q73 -75 73 -191v-8q0 -119 -73 -193
q-74 -74 -185 -74zM245 649q-15 -15 -37 -15.5t-38 15.5t-15.5 38t15.5 37q16 16 37.5 16t37.5 -16t16 -37.5t-16 -37.5zM433 649q-15 -15 -37 -15.5t-38 15.5t-15.5 38t15.5 37q16 16 37.5 16t37.5 -16t16 -37.5t-16 -37.5z" />
    <glyph glyph-name="divide" unicode="&#xf7;" horiz-adv-x="519" 
d="M304 107q-19 -18 -45 -18t-45 18q-19 19 -19 46t19 45q19 19 45 19t45 -19q19 -18 19 -45t-19 -46zM36 307v70h447v-70h-447zM304 485q-19 -18 -45 -18t-45 18q-19 19 -19 46t19 45q19 19 45 19t45 -19q19 -18 19 -45t-19 -46z" />
    <glyph glyph-name="oslash" unicode="&#xf8;" horiz-adv-x="604" 
d="M67 -37l-44 38l77 85q-55 70 -55 171v8q0 117 72 192q73 75 185 75q89 0 156 -50l68 74l44 -38l-70 -77q59 -74 59 -175v-8q0 -119 -73 -193q-74 -74 -185 -74q-93 0 -160 54zM302 60q39 0 70.5 14t54 40t34.5 62t12 81v7q0 66 -27 117l-256 -281q44 -40 112 -40z
M131 257q0 -65 24 -111l253 280q-43 37 -106 37q-39 0 -71 -14t-54 -40t-34 -62.5t-12 -81.5v-8z" />
    <glyph glyph-name="ugrave" unicode="&#xf9;" horiz-adv-x="594" 
d="M261 -9q-84 0 -133 49t-49 152v331h83v-327q0 -69 29 -101t92 -32q58 0 101 38q43 37 43 105v317h83v-523h-83v83q-19 -40 -62.5 -66t-103.5 -26zM272 613l-104 147h104l62 -147h-62z" />
    <glyph glyph-name="uacute" unicode="&#xfa;" horiz-adv-x="594" 
d="M261 -9q-84 0 -133 49t-49 152v331h83v-327q0 -69 29 -101t92 -32q58 0 101 38q43 37 43 105v317h83v-523h-83v83q-19 -40 -62.5 -66t-103.5 -26zM260 613l62 147h104l-104 -147h-62z" />
    <glyph glyph-name="ucircumflex" unicode="&#xfb;" horiz-adv-x="594" 
d="M261 -9q-84 0 -133 49t-49 152v331h83v-327q0 -69 29 -101t92 -32q58 0 101 38q43 37 43 105v317h83v-523h-83v83q-19 -40 -62.5 -66t-103.5 -26zM152 613l108 144h75l107 -144h-61l-85 75l-85 -75h-59z" />
    <glyph glyph-name="udieresis" unicode="&#xfc;" horiz-adv-x="594" 
d="M261 -9q-84 0 -133 49t-49 152v331h83v-327q0 -69 29 -101t92 -32q58 0 101 38q43 37 43 105v317h83v-523h-83v83q-19 -40 -62.5 -66t-103.5 -26zM240 649q-15 -15 -37 -15.5t-38 15.5t-15.5 38t15.5 37q16 16 37.5 16t37.5 -16t16 -37.5t-16 -37.5zM428 649
q-15 -15 -37 -15.5t-38 15.5t-15.5 38t15.5 37q16 16 37.5 16t37.5 -16t16 -37.5t-16 -37.5z" />
    <glyph glyph-name="yacute" unicode="&#xfd;" horiz-adv-x="529" 
d="M131 -182l99 236l-205 469h89l160 -375l145 375h85l-289 -705h-84zM235 613l62 147h104l-104 -147h-62z" />
    <glyph glyph-name="thorn" unicode="&#xfe;" horiz-adv-x="627" 
d="M84 -182v955h83v-338q12 20 31 37.5t42 31t50 21t54 7.5q103 0 171 -72q67 -72 67 -191v-8q0 -121 -66 -196q-65 -74 -172 -74q-61 0 -107 26.5t-70 68.5v-268h-83zM336 60q78 0 119 50.5t41 146.5v8q0 96 -45.5 147t-115.5 51q-76 0 -123.5 -50.5t-47.5 -147.5v-8
q0 -97 46.5 -147t125.5 -50z" />
    <glyph glyph-name="ydieresis" unicode="&#xff;" horiz-adv-x="529" 
d="M131 -182l99 236l-205 469h89l160 -375l145 375h85l-289 -705h-84zM215 649q-15 -15 -37 -15.5t-38 15.5t-15.5 38t15.5 37q16 16 37.5 16t37.5 -16t16 -37.5t-16 -37.5zM403 649q-15 -15 -37 -15.5t-38 15.5t-15.5 38t15.5 37q16 16 37.5 16t37.5 -16t16 -37.5
t-16 -37.5z" />
    <glyph glyph-name="Amacron" unicode="&#x100;" horiz-adv-x="674" 
d="M36 0l246 715h114l242 -715h-86l-70 206h-295l-69 -206h-82zM335 643l-124 -368h248zM204 786v64h266v-64h-266z" />
    <glyph glyph-name="amacron" unicode="&#x101;" horiz-adv-x="540" 
d="M215 -9q-77 0 -125.5 38.5t-48.5 115.5q0 84 74 123q75 39 188 39h75v38q0 63 -26 90.5t-86 27.5q-108 0 -120 -94h-83q4 42 21.5 72.5t44.5 51t63 30t78 9.5q191 0 191 -187v-345h-83v66q-60 -75 -163 -75zM223 57q69 0 112 33t43 93v65h-72q-182 0 -182 -103
q0 -88 99 -88zM140 648v64h262v-64h-262z" />
    <glyph glyph-name="Abreve" unicode="&#x102;" horiz-adv-x="674" 
d="M36 0l246 715h114l242 -715h-86l-70 206h-295l-69 -206h-82zM335 643l-124 -368h248zM269 899q10 -64 66 -64q59 0 72 64h64q-3 -58 -43 -95q-38 -37 -93 -37q-27 0 -50.5 10t-41 27.5t-28.5 41.5t-12 53h66z" />
    <glyph glyph-name="abreve" unicode="&#x103;" horiz-adv-x="540" 
d="M215 -9q-77 0 -125.5 38.5t-48.5 115.5q0 84 74 123q75 39 188 39h75v38q0 63 -26 90.5t-86 27.5q-108 0 -120 -94h-83q4 42 21.5 72.5t44.5 51t63 30t78 9.5q191 0 191 -187v-345h-83v66q-60 -75 -163 -75zM223 57q69 0 112 33t43 93v65h-72q-182 0 -182 -103
q0 -88 99 -88zM203 751q10 -64 66 -64q59 0 72 64h64q-3 -58 -43 -95q-38 -37 -93 -37q-27 0 -50.5 10t-41 27.5t-28.5 41.5t-12 53h66z" />
    <glyph glyph-name="Aogonek" unicode="&#x104;" horiz-adv-x="674" 
d="M585 -182q-48 0 -76 21.5t-28 58.5q0 30 20 56t52 43l-71 209h-295l-69 -206h-82l246 715h114l241 -712q-77 -45 -77 -89q0 -36 38 -36q30 0 52 11v-59q-29 -12 -65 -12zM335 643l-124 -368h248z" />
    <glyph glyph-name="aogonek" unicode="&#x105;" horiz-adv-x="540" 
d="M407 -182q-48 0 -76 21.5t-28 58.5q0 30 21 57t54 44v67q-60 -75 -163 -75q-77 0 -125.5 38.5t-48.5 115.5q0 84 74 123q75 39 188 39h75v38q0 63 -26 90.5t-86 27.5q-108 0 -120 -94h-83q4 42 21.5 72.5t44.5 51t63 30t78 9.5q191 0 191 -187v-341q-79 -45 -79 -90
q0 -36 38 -36q30 0 52 11v-59q-29 -12 -65 -12zM223 57q69 0 112 33t43 93v65h-72q-182 0 -182 -103q0 -88 99 -88z" />
    <glyph glyph-name="Cacute" unicode="&#x106;" horiz-adv-x="730" 
d="M389 -9q-155 0 -245 98q-89 98 -89 264v8q0 158 95 262q94 103 241 103q118 0 198 -61q82 -62 92 -173h-86q-27 165 -203 165q-112 0 -179 -81q-68 -80 -68 -214v-8q0 -69 17 -123t48.5 -91.5t77.5 -57.5t103 -20q90 0 146.5 44t69.5 131h81q-18 -121 -96.5 -183.5
t-202.5 -62.5zM356 771l56 127h104l-98 -127h-62z" />
    <glyph glyph-name="cacute" unicode="&#x107;" horiz-adv-x="570" 
d="M301 -9q-112 0 -184 72t-72 193v8q0 119 73 193q73 75 181 75q90 0 153 -45q64 -44 74 -138h-82q-18 114 -145 114q-73 0 -121 -55q-47 -55 -47 -144v-8q0 -94 46.5 -145t124.5 -51q30 0 56 8.5t46 25t32.5 40.5t15.5 54h77q-8 -87 -72 -142q-62 -55 -156 -55zM261 613
l62 147h104l-104 -147h-62z" />
    <glyph glyph-name="Ccircumflex" unicode="&#x108;" horiz-adv-x="730" 
d="M389 -9q-155 0 -245 98q-89 98 -89 264v8q0 158 95 262q94 103 241 103q118 0 198 -61q82 -62 92 -173h-86q-27 165 -203 165q-112 0 -179 -81q-68 -80 -68 -214v-8q0 -69 17 -123t48.5 -91.5t77.5 -57.5t103 -20q90 0 146.5 44t69.5 131h81q-18 -121 -96.5 -183.5
t-202.5 -62.5zM248 771l108 127h75l107 -127h-61l-85 58l-85 -58h-59z" />
    <glyph glyph-name="ccircumflex" unicode="&#x109;" horiz-adv-x="570" 
d="M301 -9q-112 0 -184 72t-72 193v8q0 119 73 193q73 75 181 75q90 0 153 -45q64 -44 74 -138h-82q-18 114 -145 114q-73 0 -121 -55q-47 -55 -47 -144v-8q0 -94 46.5 -145t124.5 -51q30 0 56 8.5t46 25t32.5 40.5t15.5 54h77q-8 -87 -72 -142q-62 -55 -156 -55zM153 613
l108 144h75l107 -144h-61l-85 75l-85 -75h-59z" />
    <glyph glyph-name="Cdotaccent" unicode="&#x10a;" horiz-adv-x="730" 
d="M389 -9q-155 0 -245 98q-89 98 -89 264v8q0 158 95 262q94 103 241 103q118 0 198 -61q82 -62 92 -173h-86q-27 165 -203 165q-112 0 -179 -81q-68 -80 -68 -214v-8q0 -69 17 -123t48.5 -91.5t77.5 -57.5t103 -20q90 0 146.5 44t69.5 131h81q-18 -121 -96.5 -183.5
t-202.5 -62.5zM428 803q-16 -16 -39 -16t-39 16q-17 17 -16.5 39t16.5 38q17 17 39 17t39 -17q16 -16 16.5 -38t-16.5 -39z" />
    <glyph glyph-name="cdotaccent" unicode="&#x10b;" horiz-adv-x="570" 
d="M301 -9q-112 0 -184 72t-72 193v8q0 119 73 193q73 75 181 75q90 0 153 -45q64 -44 74 -138h-82q-18 114 -145 114q-73 0 -121 -55q-47 -55 -47 -144v-8q0 -94 46.5 -145t124.5 -51q30 0 56 8.5t46 25t32.5 40.5t15.5 54h77q-8 -87 -72 -142q-62 -55 -156 -55zM336 648
q-16 -16 -38 -16.5t-39 16.5q-16 16 -16 39t16 39q17 17 39 16.5t38 -16.5q17 -17 17 -39t-17 -39z" />
    <glyph glyph-name="Ccaron" unicode="&#x10c;" horiz-adv-x="730" 
d="M389 -9q-155 0 -245 98q-89 98 -89 264v8q0 158 95 262q94 103 241 103q118 0 198 -61q82 -62 92 -173h-86q-27 165 -203 165q-112 0 -179 -81q-68 -80 -68 -214v-8q0 -69 17 -123t48.5 -91.5t77.5 -57.5t103 -20q90 0 146.5 44t69.5 131h81q-18 -121 -96.5 -183.5
t-202.5 -62.5zM355 771l-107 127h61l85 -58l85 58h59l-108 -127h-75z" />
    <glyph glyph-name="ccaron" unicode="&#x10d;" horiz-adv-x="570" 
d="M301 -9q-112 0 -184 72t-72 193v8q0 119 73 193q73 75 181 75q90 0 153 -45q64 -44 74 -138h-82q-18 114 -145 114q-73 0 -121 -55q-47 -55 -47 -144v-8q0 -94 46.5 -145t124.5 -51q30 0 56 8.5t46 25t32.5 40.5t15.5 54h77q-8 -87 -72 -142q-62 -55 -156 -55zM260 613
l-107 144h61l85 -75l85 75h59l-108 -144h-75z" />
    <glyph glyph-name="Dcaron" unicode="&#x10e;" horiz-adv-x="696" 
d="M177 71h98q136 0 206 75t70 210v8q0 131 -67.5 206t-209.5 75h-97v-574zM90 0v715h189q178 0 269 -97q93 -98 93 -254v-9q0 -157 -93 -256q-92 -99 -271 -99h-187zM278 771l-107 127h61l85 -58l85 58h59l-108 -127h-75z" />
    <glyph glyph-name="dcaron" unicode="&#x10f;" horiz-adv-x="627" 
d="M281 -9q-105 0 -171 70q-65 71 -65 190v8q0 119 68 196t176 77q115 0 171 -93v334h83v-773h-83v90q-23 -39 -74 -70q-50 -29 -105 -29zM290 60q78 0 125.5 50.5t47.5 147.5v8q0 99 -43.5 148t-122.5 49q-78 0 -122 -52t-44 -148v-8q0 -96 44.5 -145.5t114.5 -49.5z
M591 598l12 175h94l-48 -175h-58z" />
    <glyph glyph-name="Dcroat" unicode="&#x110;" horiz-adv-x="716" 
d="M34 325v67h76v323h189q178 0 269 -97q93 -98 93 -254v-9q0 -157 -93 -256q-92 -99 -271 -99h-187v325h-76zM197 71h98q136 0 206 75t70 210v8q0 131 -67.5 206t-209.5 75h-97v-253h207v-67h-207v-254z" />
    <glyph glyph-name="dcroat" unicode="&#x111;" horiz-adv-x="627" 
d="M282 615v61h178v97h83v-97h75v-61h-75v-615h-83v90q-23 -39 -74 -70q-50 -29 -105 -29q-105 0 -171 70q-65 71 -65 190v8q0 119 68 196t176 77q115 0 171 -93v176h-178zM290 60q78 0 125.5 50.5t47.5 147.5v8q0 99 -43.5 148t-122.5 49q-78 0 -122 -52t-44 -148v-8
q0 -96 44.5 -145.5t114.5 -49.5z" />
    <glyph glyph-name="Emacron" unicode="&#x112;" horiz-adv-x="566" 
d="M90 0v715h417v-71h-330v-243h266v-71h-266v-259h348v-71h-435zM173 786v64h266v-64h-266z" />
    <glyph glyph-name="emacron" unicode="&#x113;" horiz-adv-x="568" 
d="M298 -9q-113 0 -183 72q-70 73 -70 193v8q0 117 68 193q69 75 177 75q99 0 167 -65t68 -195v-27h-394q3 -91 45 -138t123 -47q123 0 139 91h83q-13 -78 -72.5 -119t-150.5 -41zM440 312q-10 151 -150 151q-63 0 -104 -40.5t-52 -110.5h306zM159 648v64h262v-64h-262z" />
    <glyph glyph-name="Ebreve" unicode="&#x114;" horiz-adv-x="566" 
d="M90 0v715h417v-71h-330v-243h266v-71h-266v-259h348v-71h-435zM245 899q10 -64 66 -64q59 0 72 64h64q-3 -58 -43 -95q-38 -37 -93 -37q-27 0 -50.5 10t-41 27.5t-28.5 41.5t-12 53h66z" />
    <glyph glyph-name="ebreve" unicode="&#x115;" horiz-adv-x="568" 
d="M298 -9q-113 0 -183 72q-70 73 -70 193v8q0 117 68 193q69 75 177 75q99 0 167 -65t68 -195v-27h-394q3 -91 45 -138t123 -47q123 0 139 91h83q-13 -78 -72.5 -119t-150.5 -41zM440 312q-10 151 -150 151q-63 0 -104 -40.5t-52 -110.5h306zM214 751q10 -64 66 -64
q59 0 72 64h64q-3 -58 -43 -95q-38 -37 -93 -37q-27 0 -50.5 10t-41 27.5t-28.5 41.5t-12 53h66z" />
    <glyph glyph-name="Edotaccent" unicode="&#x116;" horiz-adv-x="566" 
d="M90 0v715h417v-71h-330v-243h266v-71h-266v-259h348v-71h-435zM344 803q-16 -16 -38 -16t-39 16q-16 17 -16 39t16 38q17 17 39 17t38 -17q17 -16 17 -38t-17 -39z" />
    <glyph glyph-name="edotaccent" unicode="&#x117;" horiz-adv-x="568" 
d="M298 -9q-113 0 -183 72q-70 73 -70 193v8q0 117 68 193q69 75 177 75q99 0 167 -65t68 -195v-27h-394q3 -91 45 -138t123 -47q123 0 139 91h83q-13 -78 -72.5 -119t-150.5 -41zM440 312q-10 151 -150 151q-63 0 -104 -40.5t-52 -110.5h306zM328 648q-16 -16 -38 -16.5
t-39 16.5q-16 16 -16 39t16 39q17 17 39 16.5t38 -16.5q17 -17 17 -39t-17 -39z" />
    <glyph glyph-name="Eogonek" unicode="&#x118;" horiz-adv-x="566" 
d="M454 -182q-48 0 -76 21.5t-28 58.5q0 31 22 58t56 44h-338v715h417v-71h-330v-243h266v-71h-266v-259h348v-71h-28q-68 -45 -68 -86q0 -36 38 -36q30 0 52 11v-59q-29 -12 -65 -12z" />
    <glyph glyph-name="eogonek" unicode="&#x119;" horiz-adv-x="568" 
d="M388 -182q-48 0 -76 21.5t-28 58.5q0 29 19 55t50 42q-12 -2 -25.5 -3t-29.5 -1q-113 0 -183 72q-70 73 -70 193v8q0 117 68 193q69 75 177 75q99 0 167 -65t68 -195v-27h-394q3 -91 45 -138t123 -47q123 0 139 91h83q-5 -29 -16 -52.5t-25 -39.5l-10.5 -12t-11.5 -12
l-10 -9l-18 -15q-67 -57 -67 -97q0 -36 38 -36q30 0 52 11v-59q-29 -12 -65 -12zM440 312q-10 151 -150 151q-63 0 -104 -40.5t-52 -110.5h306z" />
    <glyph glyph-name="Ecaron" unicode="&#x11a;" horiz-adv-x="566" 
d="M90 0v715h417v-71h-330v-243h266v-71h-266v-259h348v-71h-435zM272 771l-107 127h61l85 -58l85 58h59l-108 -127h-75z" />
    <glyph glyph-name="ecaron" unicode="&#x11b;" horiz-adv-x="568" 
d="M298 -9q-113 0 -183 72q-70 73 -70 193v8q0 117 68 193q69 75 177 75q99 0 167 -65t68 -195v-27h-394q3 -91 45 -138t123 -47q123 0 139 91h83q-13 -78 -72.5 -119t-150.5 -41zM440 312q-10 151 -150 151q-63 0 -104 -40.5t-52 -110.5h306zM252 613l-107 144h61l85 -75
l85 75h59l-108 -144h-75z" />
    <glyph glyph-name="Gcircumflex" unicode="&#x11c;" horiz-adv-x="767" 
d="M401 -9q-161 0 -254 100q-92 101 -92 262v8q0 157 96 261q98 104 250 104q115 0 195 -57q79 -55 96 -170h-87q-29 158 -202 158q-121 0 -190 -81q-68 -80 -68 -214v-8q0 -68 17 -122t49.5 -92t80 -58.5t109.5 -20.5q55 0 97 16.5t70 46.5t42.5 72t15.5 93h-209v72h294
v-53q0 -153 -85 -235q-83 -82 -225 -82zM250 771l108 127h75l107 -127h-61l-85 58l-85 -58h-59z" />
    <glyph glyph-name="gcircumflex" unicode="&#x11d;" horiz-adv-x="627" 
d="M293 -191q-109 0 -167.5 44.5t-69.5 116.5h85q18 -91 151 -91q81 0 124.5 39.5t43.5 121.5v76q-25 -42 -73 -70q-50 -29 -104 -29q-104 0 -171 70t-67 178v7q0 109 69 184q69 76 175 76q115 0 171 -93v84h83v-488q0 -56 -18 -98t-50.5 -70.5t-78.5 -43t-103 -14.5z
M292 86q37 0 68.5 12.5t54.5 36.5t35.5 58.5t12.5 77.5v7q0 88 -44 136.5t-122 48.5q-39 0 -69.5 -13.5t-52 -38t-33 -59t-11.5 -76.5v-8q0 -84 46 -133t115 -49zM149 613l108 144h75l107 -144h-61l-85 75l-85 -75h-59z" />
    <glyph glyph-name="Gbreve" unicode="&#x11e;" horiz-adv-x="767" 
d="M401 -9q-161 0 -254 100q-92 101 -92 262v8q0 157 96 261q98 104 250 104q115 0 195 -57q79 -55 96 -170h-87q-29 158 -202 158q-121 0 -190 -81q-68 -80 -68 -214v-8q0 -68 17 -122t49.5 -92t80 -58.5t109.5 -20.5q55 0 97 16.5t70 46.5t42.5 72t15.5 93h-209v72h294
v-53q0 -153 -85 -235q-83 -82 -225 -82zM327 899q10 -64 66 -64q59 0 72 64h64q-3 -58 -43 -95q-38 -37 -93 -37q-27 0 -50.5 10t-41 27.5t-28.5 41.5t-12 53h66z" />
    <glyph glyph-name="gbreve" unicode="&#x11f;" horiz-adv-x="627" 
d="M293 -191q-109 0 -167.5 44.5t-69.5 116.5h85q18 -91 151 -91q81 0 124.5 39.5t43.5 121.5v76q-25 -42 -73 -70q-50 -29 -104 -29q-104 0 -171 70t-67 178v7q0 109 69 184q69 76 175 76q115 0 171 -93v84h83v-488q0 -56 -18 -98t-50.5 -70.5t-78.5 -43t-103 -14.5z
M292 86q37 0 68.5 12.5t54.5 36.5t35.5 58.5t12.5 77.5v7q0 88 -44 136.5t-122 48.5q-39 0 -69.5 -13.5t-52 -38t-33 -59t-11.5 -76.5v-8q0 -84 46 -133t115 -49zM226 751q10 -64 66 -64q59 0 72 64h64q-3 -58 -43 -95q-38 -37 -93 -37q-27 0 -50.5 10t-41 27.5t-28.5 41.5
t-12 53h66z" />
    <glyph glyph-name="Gdotaccent" unicode="&#x120;" horiz-adv-x="767" 
d="M401 -9q-161 0 -254 100q-92 101 -92 262v8q0 157 96 261q98 104 250 104q115 0 195 -57q79 -55 96 -170h-87q-29 158 -202 158q-121 0 -190 -81q-68 -80 -68 -214v-8q0 -68 17 -122t49.5 -92t80 -58.5t109.5 -20.5q55 0 97 16.5t70 46.5t42.5 72t15.5 93h-209v72h294
v-53q0 -153 -85 -235q-83 -82 -225 -82zM434 803q-16 -16 -39 -16t-39 16q-17 17 -16.5 39t16.5 38q17 17 39 17t39 -17q16 -16 16.5 -38t-16.5 -39z" />
    <glyph glyph-name="gdotaccent" unicode="&#x121;" horiz-adv-x="627" 
d="M293 -191q-109 0 -167.5 44.5t-69.5 116.5h85q18 -91 151 -91q81 0 124.5 39.5t43.5 121.5v76q-25 -42 -73 -70q-50 -29 -104 -29q-104 0 -171 70t-67 178v7q0 109 69 184q69 76 175 76q115 0 171 -93v84h83v-488q0 -56 -18 -98t-50.5 -70.5t-78.5 -43t-103 -14.5z
M292 86q37 0 68.5 12.5t54.5 36.5t35.5 58.5t12.5 77.5v7q0 88 -44 136.5t-122 48.5q-39 0 -69.5 -13.5t-52 -38t-33 -59t-11.5 -76.5v-8q0 -84 46 -133t115 -49zM332 648q-16 -16 -38 -16.5t-39 16.5q-16 16 -16 39t16 39q17 17 39 16.5t38 -16.5q17 -17 17 -39t-17 -39z
" />
    <glyph glyph-name="Gcommaaccent" unicode="&#x122;" horiz-adv-x="767" 
d="M401 -9q-161 0 -254 100q-92 101 -92 262v8q0 157 96 261q98 104 250 104q115 0 195 -57q79 -55 96 -170h-87q-29 158 -202 158q-121 0 -190 -81q-68 -80 -68 -214v-8q0 -68 17 -122t49.5 -92t80 -58.5t109.5 -20.5q55 0 97 16.5t70 46.5t42.5 72t15.5 93h-209v72h294
v-53q0 -153 -85 -235q-83 -82 -225 -82zM362 -220l-51 26l58 157l80 -24z" />
    <glyph glyph-name="gcommaaccent" unicode="&#x123;" horiz-adv-x="627" 
d="M293 -191q-109 0 -167.5 44.5t-69.5 116.5h85q18 -91 151 -91q81 0 124.5 39.5t43.5 121.5v76q-25 -42 -73 -70q-50 -29 -104 -29q-104 0 -171 70t-67 178v7q0 109 69 184q69 76 175 76q115 0 171 -93v84h83v-488q0 -56 -18 -98t-50.5 -70.5t-78.5 -43t-103 -14.5z
M292 86q37 0 68.5 12.5t54.5 36.5t35.5 58.5t12.5 77.5v7q0 88 -44 136.5t-122 48.5q-39 0 -69.5 -13.5t-52 -38t-33 -59t-11.5 -76.5v-8q0 -84 46 -133t115 -49zM334 602l-80 24l87 159l51 -26z" />
    <glyph glyph-name="Hcircumflex" unicode="&#x124;" horiz-adv-x="730" 
d="M90 0v715h87v-324h376v324h87v-715h-87v318h-376v-318h-87zM220 771l108 127h75l107 -127h-61l-85 58l-85 -58h-59z" />
    <glyph glyph-name="hcircumflex" unicode="&#x125;" horiz-adv-x="598" 
d="M84 0v773h83v-333q19 40 63 66t105 26q87 0 135.5 -51t48.5 -160v-321h-83v327q0 69 -30 101t-93 32q-30 0 -57 -10t-46.5 -28.5t-31 -45t-11.5 -59.5v-317h-83zM168 821l108 127h75l107 -127h-61l-85 58l-85 -58h-59z" />
    <glyph glyph-name="Hbar" unicode="&#x126;" horiz-adv-x="730" 
d="M20 493v67h70v155h87v-155h376v155h87v-155h70v-67h-70v-493h-87v318h-376v-318h-87v493h-70zM177 391h376v102h-376v-102z" />
    <glyph glyph-name="hbar" unicode="&#x127;" horiz-adv-x="598" 
d="M9 615v61h75v97h83v-97h178v-61h-178v-175q19 40 63 66t105 26q87 0 135.5 -51t48.5 -160v-321h-83v327q0 69 -30 101t-93 32q-30 0 -57 -10t-46.5 -28.5t-31 -45t-11.5 -59.5v-317h-83v615h-75z" />
    <glyph glyph-name="Itilde" unicode="&#x128;" horiz-adv-x="277" 
d="M95 0v715h87v-715h-87zM194 774q-23 0 -59 21q-35 22 -49 22t-25 -12.5t-15 -32.5h-60q6 54 34 85t67 31q22 0 58 -22q34 -21 49 -21q14 0 25 12.5t15 32.5h60q-6 -54 -33.5 -85t-66.5 -31z" />
    <glyph glyph-name="itilde" unicode="&#x129;" horiz-adv-x="255" 
d="M86 0v523h83v-523h-83zM182 619q-23 0 -59 21q-35 22 -49 22t-25 -12.5t-15 -32.5h-60q6 54 34 85t67 31q22 0 58 -22q34 -21 49 -21q14 0 25 12.5t15 32.5h60q-6 -54 -33.5 -85t-66.5 -31z" />
    <glyph glyph-name="Imacron" unicode="&#x12a;" horiz-adv-x="277" 
d="M95 0v715h87v-715h-87zM5 786v64h266v-64h-266z" />
    <glyph glyph-name="imacron" unicode="&#x12b;" horiz-adv-x="255" 
d="M30 648v64h194v-64h-194zM86 0v523h83v-523h-83z" />
    <glyph glyph-name="Ibreve" unicode="&#x12c;" horiz-adv-x="277" 
d="M95 0v715h87v-715h-87zM72 899q10 -64 66 -64q59 0 72 64h64q-3 -58 -43 -95q-38 -37 -93 -37q-27 0 -50.5 10t-41 27.5t-28.5 41.5t-12 53h66z" />
    <glyph glyph-name="ibreve" unicode="&#x12d;" horiz-adv-x="255" 
d="M86 0v523h83v-523h-83zM60 751q10 -64 66 -64q59 0 72 64h64q-3 -58 -43 -95q-38 -37 -93 -37q-27 0 -50.5 10t-41 27.5t-28.5 41.5t-12 53h66z" />
    <glyph glyph-name="Iogonek" unicode="&#x12e;" horiz-adv-x="277" 
d="M130 -182q-48 0 -76 21.5t-28 58.5q0 59 69 98v719h87v-711q-77 -44 -77 -90q0 -36 38 -36q30 0 52 11v-59q-29 -12 -65 -12z" />
    <glyph glyph-name="iogonek" unicode="&#x12f;" horiz-adv-x="255" 
d="M120 -182q-48 0 -76 21.5t-28 58.5q0 61 70 98v527h83v-520q-74 -45 -74 -89q0 -36 38 -36q30 0 52 11v-59q-29 -12 -65 -12zM164 648q-16 -16 -38 -16.5t-39 16.5q-16 16 -16 39t16 39q17 17 39 16.5t38 -16.5q17 -17 17 -39t-17 -39z" />
    <glyph glyph-name="Idotaccent" unicode="&#x130;" horiz-adv-x="277" 
d="M95 0v715h87v-715h-87zM176 803q-16 -16 -38 -16t-39 16q-16 17 -16 39t16 38q17 17 39 17t38 -17q17 -16 17 -38t-17 -39z" />
    <glyph glyph-name="dotlessi" unicode="&#x131;" horiz-adv-x="255" 
d="M86 0v523h83v-523h-83z" />
    <glyph glyph-name="IJ" unicode="&#x132;" horiz-adv-x="657" 
d="M95 0v715h87v-715h-87zM375 -9q-65 0 -100 19v72q48 -20 95 -20q116 0 116 136v517h87v-521q0 -51 -14.5 -89t-40.5 -63.5t-62.5 -38t-80.5 -12.5z" />
    <glyph glyph-name="ij" unicode="&#x133;" horiz-adv-x="510" 
d="M86 0v523h83v-523h-83zM164 648q-16 -16 -38 -16.5t-39 16.5q-16 16 -16 39t16 39q17 17 39 16.5t38 -16.5q17 -17 17 -39t-17 -39zM264 -121q42 4 59.5 24t17.5 57v563h83v-556q0 -78 -37.5 -116.5t-122.5 -41.5v70zM420 648q-16 -16 -39 -16t-39 16t-16 39t16 39t39 16
t39 -16t16 -39t-16 -39z" />
    <glyph glyph-name="Jcircumflex" unicode="&#x134;" horiz-adv-x="420" 
d="M138 -9q-65 0 -100 19v72q48 -20 95 -20q116 0 116 136v517h87v-521q0 -51 -14.5 -89t-40.5 -63.5t-62.5 -38t-80.5 -12.5zM145 771l108 127h75l107 -127h-61l-85 58l-85 -58h-59z" />
    <glyph glyph-name="jcircumflex" unicode="&#x135;" horiz-adv-x="255" 
d="M9 -121q42 4 59.5 24t17.5 57v563h83v-556q0 -78 -37.5 -116.5t-122.5 -41.5v70zM-19 613l108 144h75l107 -144h-61l-85 75l-85 -75h-59z" />
    <glyph glyph-name="Kcommaaccent" unicode="&#x136;" horiz-adv-x="616" 
d="M90 0v715h87v-344l311 345h97l-318 -348l334 -368h-105l-319 349v-349h-87zM289 -220l-51 26l58 157l80 -24z" />
    <glyph glyph-name="kcommaaccent" unicode="&#x137;" horiz-adv-x="516" 
d="M84 0v773h83v-491l217 241h97l-224 -243l243 -280h-101l-232 271v-271h-83zM237 -220l-51 26l58 157l80 -24z" />
    <glyph glyph-name="Lacute" unicode="&#x139;" horiz-adv-x="535" 
d="M90 0v715h87v-644h327v-71h-414zM98 771l56 127h104l-98 -127h-62z" />
    <glyph glyph-name="lacute" unicode="&#x13a;" horiz-adv-x="256" 
d="M86 0v773h84v-773h-84zM92 821l56 127h104l-98 -127h-62z" />
    <glyph glyph-name="Lcommaaccent" unicode="&#x13b;" horiz-adv-x="535" 
d="M90 0v715h87v-644h327v-71h-414zM265 -220l-51 26l58 157l80 -24z" />
    <glyph glyph-name="lcommaaccent" unicode="&#x13c;" horiz-adv-x="256" 
d="M86 0v773h84v-773h-84zM95 -220l-51 26l58 157l80 -24z" />
    <glyph glyph-name="Lcaron" unicode="&#x13d;" horiz-adv-x="535" 
d="M293 558l22 157h94l-58 -157h-58zM90 0v715h87v-644h327v-71h-414z" />
    <glyph glyph-name="lcaron" unicode="&#x13e;" horiz-adv-x="256" 
d="M86 0v773h84v-773h-84zM218 598l12 175h94l-48 -175h-58z" />
    <glyph glyph-name="Ldot" unicode="&#x13f;" horiz-adv-x="535" 
d="M90 0v715h87v-644h327v-71h-414zM445 338q-19 -18 -45 -18t-45 18q-19 19 -19 46t19 45q19 19 45 19t45 -19q19 -18 19 -45t-19 -46z" />
    <glyph glyph-name="ldot" unicode="&#x140;" horiz-adv-x="328" 
d="M86 0v773h84v-773h-84zM335 321q-19 -18 -45 -18t-45 18q-19 19 -19 46t19 45q19 19 45 19t45 -19q19 -18 19 -45t-19 -46z" />
    <glyph glyph-name="Lslash" unicode="&#x141;" horiz-adv-x="555" 
d="M42 251v68l68 25v371h87v-339l199 73v-68l-199 -73v-237h327v-71h-414v276z" />
    <glyph glyph-name="lslash" unicode="&#x142;" horiz-adv-x="276" 
d="M20 311v70l76 43v349h84v-301l80 46v-70l-80 -46v-402h-84v354z" />
    <glyph glyph-name="Nacute" unicode="&#x143;" horiz-adv-x="724" 
d="M90 0v715h113l348 -591v591h83v-715h-100l-361 613v-613h-83zM335 771l56 127h104l-98 -127h-62z" />
    <glyph glyph-name="nacute" unicode="&#x144;" horiz-adv-x="598" 
d="M84 0v523h83v-83q19 40 63 66t105 26q87 0 135.5 -51t48.5 -160v-321h-83v327q0 69 -30 101t-93 32q-30 0 -57 -10t-46.5 -28.5t-31 -45t-11.5 -59.5v-317h-83zM261 613l62 147h104l-104 -147h-62z" />
    <glyph glyph-name="Ncommaaccent" unicode="&#x145;" horiz-adv-x="724" 
d="M90 0v715h113l348 -591v591h83v-715h-100l-361 613v-613h-83zM317 -220l-51 26l58 157l80 -24z" />
    <glyph glyph-name="ncommaaccent" unicode="&#x146;" horiz-adv-x="598" 
d="M84 0v523h83v-83q19 40 63 66t105 26q87 0 135.5 -51t48.5 -160v-321h-83v327q0 69 -30 101t-93 32q-30 0 -57 -10t-46.5 -28.5t-31 -45t-11.5 -59.5v-317h-83zM265 -220l-51 26l58 157l80 -24z" />
    <glyph glyph-name="Ncaron" unicode="&#x147;" horiz-adv-x="724" 
d="M90 0v715h113l348 -591v591h83v-715h-100l-361 613v-613h-83zM334 771l-107 127h61l85 -58l85 58h59l-108 -127h-75z" />
    <glyph glyph-name="ncaron" unicode="&#x148;" horiz-adv-x="598" 
d="M84 0v523h83v-83q19 40 63 66t105 26q87 0 135.5 -51t48.5 -160v-321h-83v327q0 69 -30 101t-93 32q-30 0 -57 -10t-46.5 -28.5t-31 -45t-11.5 -59.5v-317h-83zM260 613l-107 144h61l85 -75l85 75h59l-108 -144h-75z" />
    <glyph glyph-name="napostrophe" unicode="&#x149;" horiz-adv-x="598" 
d="M84 0v523h83v-83q19 40 63 66t105 26q87 0 135.5 -51t48.5 -160v-321h-83v327q0 69 -30 101t-93 32q-30 0 -57 -10t-46.5 -28.5t-31 -45t-11.5 -59.5v-317h-83zM7 488l-51 26l89 212l79 -36z" />
    <glyph glyph-name="Eng" unicode="&#x14a;" horiz-adv-x="724" 
d="M436 -193q-65 0 -100 19v72q48 -20 95 -20q54 0 85.5 30.5t32.5 90.5l-376 614v-613h-83v715h113l348 -568v568h83v-705q0 -51 -14.5 -89t-40.5 -63.5t-62.5 -38t-80.5 -12.5z" />
    <glyph glyph-name="eng" unicode="&#x14b;" horiz-adv-x="598" 
d="M359 -121q42 4 59.5 24t17.5 57v367q0 69 -30 101t-93 32q-30 0 -57 -10t-46.5 -28.5t-31 -45t-11.5 -59.5v-317h-83v523h83v-83q19 40 63 66t105 26q87 0 135.5 -51t48.5 -160v-354q0 -78 -37.5 -116.5t-122.5 -41.5v70z" />
    <glyph glyph-name="Omacron" unicode="&#x14c;" horiz-adv-x="811" 
d="M409 63q118 0 187 81q70 80 70 212v8q0 125 -70 207q-69 83 -189 83q-122 0 -192 -81q-70 -80 -70 -211v-8q0 -129 75 -210t189 -81zM409 -9q-156 0 -255 104q-99 105 -99 258v8q0 155 98 259q99 104 254 104q154 0 252 -104q97 -103 97 -257v-8q0 -155 -97 -259
q-98 -105 -250 -105zM272 786v64h266v-64h-266z" />
    <glyph glyph-name="omacron" unicode="&#x14d;" horiz-adv-x="604" 
d="M302 60q39 0 70.5 14t54 40t34.5 62t12 81v7q0 45 -12 82t-34.5 63t-54 40t-70.5 14t-71 -14t-54 -40t-34 -62.5t-12 -81.5v-8q0 -90 46 -143.5t125 -53.5zM301 -9q-112 0 -184 75t-72 191v8q0 117 72 192q73 75 185 75q110 0 184 -75q73 -75 73 -191v-8q0 -119 -73 -193
q-74 -74 -185 -74zM171 648v64h262v-64h-262z" />
    <glyph glyph-name="Obreve" unicode="&#x14e;" horiz-adv-x="811" 
d="M409 63q118 0 187 81q70 80 70 212v8q0 125 -70 207q-69 83 -189 83q-122 0 -192 -81q-70 -80 -70 -211v-8q0 -129 75 -210t189 -81zM409 -9q-156 0 -255 104q-99 105 -99 258v8q0 155 98 259q99 104 254 104q154 0 252 -104q97 -103 97 -257v-8q0 -155 -97 -259
q-98 -105 -250 -105zM337 899q10 -64 66 -64q59 0 72 64h64q-3 -58 -43 -95q-38 -37 -93 -37q-27 0 -50.5 10t-41 27.5t-28.5 41.5t-12 53h66z" />
    <glyph glyph-name="obreve" unicode="&#x14f;" horiz-adv-x="604" 
d="M302 60q39 0 70.5 14t54 40t34.5 62t12 81v7q0 45 -12 82t-34.5 63t-54 40t-70.5 14t-71 -14t-54 -40t-34 -62.5t-12 -81.5v-8q0 -90 46 -143.5t125 -53.5zM301 -9q-112 0 -184 75t-72 191v8q0 117 72 192q73 75 185 75q110 0 184 -75q73 -75 73 -191v-8q0 -119 -73 -193
q-74 -74 -185 -74zM234 751q10 -64 66 -64q59 0 72 64h64q-3 -58 -43 -95q-38 -37 -93 -37q-27 0 -50.5 10t-41 27.5t-28.5 41.5t-12 53h66z" />
    <glyph glyph-name="Ohungarumlaut" unicode="&#x150;" horiz-adv-x="811" 
d="M409 63q118 0 187 81q70 80 70 212v8q0 125 -70 207q-69 83 -189 83q-122 0 -192 -81q-70 -80 -70 -211v-8q0 -129 75 -210t189 -81zM409 -9q-156 0 -255 104q-99 105 -99 258v8q0 155 98 259q99 104 254 104q154 0 252 -104q97 -103 97 -257v-8q0 -155 -97 -259
q-98 -105 -250 -105zM293 771l37 127h95l-72 -127h-60zM447 771l37 127h95l-72 -127h-60z" />
    <glyph glyph-name="ohungarumlaut" unicode="&#x151;" horiz-adv-x="604" 
d="M302 60q39 0 70.5 14t54 40t34.5 62t12 81v7q0 45 -12 82t-34.5 63t-54 40t-70.5 14t-71 -14t-54 -40t-34 -62.5t-12 -81.5v-8q0 -90 46 -143.5t125 -53.5zM301 -9q-112 0 -184 75t-72 191v8q0 117 72 192q73 75 185 75q110 0 184 -75q73 -75 73 -191v-8q0 -119 -73 -193
q-74 -74 -185 -74zM190 613l40 147h95l-75 -147h-60zM344 613l40 147h95l-75 -147h-60z" />
    <glyph glyph-name="OE" unicode="&#x152;" horiz-adv-x="955" 
d="M55 360q0 156 92 256q93 99 272 99h477v-71h-314v-243h250v-71h-250v-259h332v-71h-497q-177 0 -270 97q-92 98 -92 254v9zM495 644h-74q-136 0 -206 -75t-70 -210v-8q0 -131 67.5 -206t209.5 -75h73v574z" />
    <glyph glyph-name="oe" unicode="&#x153;" horiz-adv-x="995" 
d="M301 -9q-112 0 -184 75t-72 191v8q0 117 72 192q73 75 185 75q72 0 127 -33t85 -93q28 60 80.5 93t122.5 33q99 0 167 -65t68 -195v-27h-394q3 -91 45 -138t123 -47q123 0 139 91h83q-13 -78 -72.5 -119t-150.5 -41q-75 0 -128.5 32.5t-82.5 92.5q-30 -60 -85 -92.5
t-128 -32.5zM302 60q39 0 70.5 14t54 40t34.5 62t12 81v7q0 45 -12 82t-34.5 63t-54 40t-70.5 14t-71 -14t-54 -40t-34 -62.5t-12 -81.5v-8q0 -90 46 -143.5t125 -53.5zM867 312q-10 151 -150 151q-63 0 -104 -40.5t-52 -110.5h306z" />
    <glyph glyph-name="Racute" unicode="&#x154;" horiz-adv-x="628" 
d="M90 0v715h215q112 0 180 -49q70 -49 70 -150v-4q0 -84 -48 -132t-129 -63l219 -317h-97l-213 311h-110v-311h-87zM177 380h134q157 0 157 132v4q0 70 -39.5 99.5t-117.5 29.5h-134v-265zM273 771l56 127h104l-98 -127h-62z" />
    <glyph glyph-name="racute" unicode="&#x155;" horiz-adv-x="376" 
d="M84 0v523h83v-94q27 49 66.5 75t105.5 28v-78q-43 -2 -75.5 -11.5t-54 -29t-32 -50.5t-10.5 -76v-287h-83zM168 613l62 147h104l-104 -147h-62z" />
    <glyph glyph-name="Rcommaaccent" unicode="&#x156;" horiz-adv-x="628" 
d="M90 0v715h215q112 0 180 -49q70 -49 70 -150v-4q0 -84 -48 -132t-129 -63l219 -317h-97l-213 311h-110v-311h-87zM177 380h134q157 0 157 132v4q0 70 -39.5 99.5t-117.5 29.5h-134v-265zM277 -220l-51 26l58 157l80 -24z" />
    <glyph glyph-name="rcommaaccent" unicode="&#x157;" horiz-adv-x="376" 
d="M84 0v523h83v-94q27 49 66.5 75t105.5 28v-78q-43 -2 -75.5 -11.5t-54 -29t-32 -50.5t-10.5 -76v-287h-83zM90 -220l-51 26l58 157l80 -24z" />
    <glyph glyph-name="Rcaron" unicode="&#x158;" horiz-adv-x="628" 
d="M90 0v715h215q112 0 180 -49q70 -49 70 -150v-4q0 -84 -48 -132t-129 -63l219 -317h-97l-213 311h-110v-311h-87zM177 380h134q157 0 157 132v4q0 70 -39.5 99.5t-117.5 29.5h-134v-265zM272 771l-107 127h61l85 -58l85 58h59l-108 -127h-75z" />
    <glyph glyph-name="rcaron" unicode="&#x159;" horiz-adv-x="376" 
d="M84 0v523h83v-94q27 49 66.5 75t105.5 28v-78q-43 -2 -75.5 -11.5t-54 -29t-32 -50.5t-10.5 -76v-287h-83zM167 613l-107 144h61l85 -75l85 75h59l-108 -144h-75z" />
    <glyph glyph-name="Sacute" unicode="&#x15a;" horiz-adv-x="627" 
d="M321 -9q-133 0 -198 62q-65 63 -75 165h84q4 -32 14 -60.5t30.5 -50t55.5 -34t89 -12.5q70 0 116 37q47 38 47 98q0 62 -36 91q-37 31 -137 46q-60 9 -105 24.5t-75 38.5t-44.5 56t-14.5 78q0 82 65 138t165 56q109 0 172.5 -50.5t73.5 -146.5h-78q-13 67 -53 97t-115 30
q-72 0 -110.5 -32t-38.5 -84q0 -56 34 -84q33 -27 138 -44q125 -19 184 -66q59 -45 59 -142q0 -89 -71 -151q-71 -60 -176 -60zM265 771l56 127h104l-98 -127h-62z" />
    <glyph glyph-name="sacute" unicode="&#x15b;" horiz-adv-x="480" 
d="M246 -9q-94 0 -147.5 44.5t-57.5 125.5h81q11 -101 123 -101q114 0 114 83q0 39 -28 57.5t-94 30.5q-102 20 -142 52q-40 34 -40 102t54 107q55 40 123 40q170 0 189 -151h-80q-9 43 -35 62.5t-75 19.5q-45 0 -72 -20.5t-27 -54.5q0 -18 5.5 -31t19.5 -22.5t37.5 -16.5
t59.5 -13q47 -9 75.5 -17.5t55.5 -25.5q28 -17 40.5 -44.5t12.5 -67.5q0 -73 -49 -116t-143 -43zM201 613l62 147h104l-104 -147h-62z" />
    <glyph glyph-name="Scircumflex" unicode="&#x15c;" horiz-adv-x="627" 
d="M321 -9q-133 0 -198 62q-65 63 -75 165h84q4 -32 14 -60.5t30.5 -50t55.5 -34t89 -12.5q70 0 116 37q47 38 47 98q0 62 -36 91q-37 31 -137 46q-60 9 -105 24.5t-75 38.5t-44.5 56t-14.5 78q0 82 65 138t165 56q109 0 172.5 -50.5t73.5 -146.5h-78q-13 67 -53 97t-115 30
q-72 0 -110.5 -32t-38.5 -84q0 -56 34 -84q33 -27 138 -44q125 -19 184 -66q59 -45 59 -142q0 -89 -71 -151q-71 -60 -176 -60zM157 771l108 127h75l107 -127h-61l-85 58l-85 -58h-59z" />
    <glyph glyph-name="scircumflex" unicode="&#x15d;" horiz-adv-x="480" 
d="M246 -9q-94 0 -147.5 44.5t-57.5 125.5h81q11 -101 123 -101q114 0 114 83q0 39 -28 57.5t-94 30.5q-102 20 -142 52q-40 34 -40 102t54 107q55 40 123 40q170 0 189 -151h-80q-9 43 -35 62.5t-75 19.5q-45 0 -72 -20.5t-27 -54.5q0 -18 5.5 -31t19.5 -22.5t37.5 -16.5
t59.5 -13q47 -9 75.5 -17.5t55.5 -25.5q28 -17 40.5 -44.5t12.5 -67.5q0 -73 -49 -116t-143 -43zM93 613l108 144h75l107 -144h-61l-85 75l-85 -75h-59z" />
    <glyph glyph-name="Scedilla" unicode="&#x15e;" horiz-adv-x="627" 
d="M244 -130q7 -34 43 -36q20 -1 29.5 10.5t10 25.5t-8.5 25t-27 9q-14 0 -28 -8l-32 28l38 70q-199 22 -221 224h84q4 -32 14 -60.5t30.5 -50t55.5 -34t89 -12.5q70 0 116 37q47 38 47 98q0 62 -36 91q-37 31 -137 46q-60 9 -105 24.5t-75 38.5t-44.5 56t-14.5 78
q0 82 65 138t165 56q109 0 172.5 -50.5t73.5 -146.5h-78q-13 67 -53 97t-115 30q-72 0 -110.5 -32t-38.5 -84q0 -56 34 -84q33 -27 138 -44q125 -19 184 -66q59 -45 59 -142q0 -89 -71 -151q-71 -60 -176 -60l-24 -44q37 5 65.5 -16.5t28.5 -64.5q0 -39 -29 -59.5t-72 -20.5
t-70 23t-30 61h54z" />
    <glyph glyph-name="scedilla" unicode="&#x15f;" horiz-adv-x="480" 
d="M181 -130q7 -34 43 -36q20 -1 29.5 10.5t10 25.5t-8.5 25t-27 9q-14 0 -28 -8l-32 28l38 70q-76 8 -119 51.5t-46 115.5h81q11 -101 123 -101q114 0 114 83q0 39 -28 57.5t-94 30.5q-102 20 -142 52q-40 34 -40 102t54 107q55 40 123 40q170 0 189 -151h-80
q-9 43 -35 62.5t-75 19.5q-45 0 -72 -20.5t-27 -54.5q0 -18 5.5 -31t19.5 -22.5t37.5 -16.5t59.5 -13q47 -9 75.5 -17.5t55.5 -25.5q28 -17 40.5 -44.5t12.5 -67.5q0 -72 -46 -114t-134 -45l-24 -44q37 5 65.5 -16.5t28.5 -64.5q0 -39 -29 -59.5t-72 -20.5t-70 23t-30 61h54
z" />
    <glyph glyph-name="Scaron" unicode="&#x160;" horiz-adv-x="627" 
d="M321 -9q-133 0 -198 62q-65 63 -75 165h84q4 -32 14 -60.5t30.5 -50t55.5 -34t89 -12.5q70 0 116 37q47 38 47 98q0 62 -36 91q-37 31 -137 46q-60 9 -105 24.5t-75 38.5t-44.5 56t-14.5 78q0 82 65 138t165 56q109 0 172.5 -50.5t73.5 -146.5h-78q-13 67 -53 97t-115 30
q-72 0 -110.5 -32t-38.5 -84q0 -56 34 -84q33 -27 138 -44q125 -19 184 -66q59 -45 59 -142q0 -89 -71 -151q-71 -60 -176 -60zM264 771l-107 127h61l85 -58l85 58h59l-108 -127h-75z" />
    <glyph glyph-name="scaron" unicode="&#x161;" horiz-adv-x="480" 
d="M246 -9q-94 0 -147.5 44.5t-57.5 125.5h81q11 -101 123 -101q114 0 114 83q0 39 -28 57.5t-94 30.5q-102 20 -142 52q-40 34 -40 102t54 107q55 40 123 40q170 0 189 -151h-80q-9 43 -35 62.5t-75 19.5q-45 0 -72 -20.5t-27 -54.5q0 -18 5.5 -31t19.5 -22.5t37.5 -16.5
t59.5 -13q47 -9 75.5 -17.5t55.5 -25.5q28 -17 40.5 -44.5t12.5 -67.5q0 -73 -49 -116t-143 -43zM200 613l-107 144h61l85 -75l85 75h59l-108 -144h-75z" />
    <glyph glyph-name="Tcommaaccent" unicode="&#x162;" horiz-adv-x="561" 
d="M237 0v644h-208v71h503v-71h-208v-644h-87zM247 -220l-51 26l58 157l80 -24z" />
    <glyph glyph-name="tcommaaccent" unicode="&#x163;" horiz-adv-x="355" 
d="M243 -7q-69 0 -105 37t-36 101v322h-75v70h75v119h83v-119h122v-70h-122v-314q0 -76 65 -76q34 0 64 11v-70q-33 -11 -71 -11zM158 -220l-51 26l58 157l80 -24z" />
    <glyph glyph-name="Tcaron" unicode="&#x164;" horiz-adv-x="561" 
d="M237 0v644h-208v71h503v-71h-208v-644h-87zM242 771l-107 127h61l85 -58l85 58h59l-108 -127h-75z" />
    <glyph glyph-name="tcaron" unicode="&#x165;" horiz-adv-x="355" 
d="M243 -7q-69 0 -105 37t-36 101v322h-75v70h75v119h83v-119h122v-70h-122v-314q0 -76 65 -76q34 0 64 11v-70q-33 -11 -71 -11zM257 598l12 175h94l-48 -175h-58z" />
    <glyph glyph-name="Tbar" unicode="&#x166;" horiz-adv-x="561" 
d="M92 338v66h145v240h-208v71h503v-71h-208v-240h145v-66h-145v-338h-87v338h-145z" />
    <glyph glyph-name="tbar" unicode="&#x167;" horiz-adv-x="355" 
d="M27 280v59h75v114h-75v70h75v119h83v-119h122v-70h-122v-114h122v-59h-122v-141q0 -76 65 -76q34 0 64 11v-70q-33 -11 -71 -11q-69 0 -105 37t-36 101v149h-75z" />
    <glyph glyph-name="Utilde" unicode="&#x168;" horiz-adv-x="696" 
d="M341 -9q-124 0 -190.5 69.5t-66.5 200.5v454h87v-444q0 -111 41 -159.5t131 -48.5q92 0 137 48t45 173v431h87v-443q0 -135 -67.5 -208t-203.5 -73zM402 774q-23 0 -59 21q-35 22 -49 22t-25 -12.5t-15 -32.5h-60q6 54 34 85t67 31q22 0 58 -22q34 -21 49 -21
q14 0 25 12.5t15 32.5h60q-6 -54 -33.5 -85t-66.5 -31z" />
    <glyph glyph-name="utilde" unicode="&#x169;" horiz-adv-x="594" 
d="M261 -9q-84 0 -133 49t-49 152v331h83v-327q0 -69 29 -101t92 -32q58 0 101 38q43 37 43 105v317h83v-523h-83v83q-19 -40 -62.5 -66t-103.5 -26zM351 619q-23 0 -59 21q-35 22 -49 22t-25 -12.5t-15 -32.5h-60q6 54 34 85t67 31q22 0 58 -22q34 -21 49 -21q14 0 25 12.5
t15 32.5h60q-6 -54 -33.5 -85t-66.5 -31z" />
    <glyph glyph-name="Umacron" unicode="&#x16a;" horiz-adv-x="696" 
d="M341 -9q-124 0 -190.5 69.5t-66.5 200.5v454h87v-444q0 -111 41 -159.5t131 -48.5q92 0 137 48t45 173v431h87v-443q0 -135 -67.5 -208t-203.5 -73zM215 786v64h266v-64h-266z" />
    <glyph glyph-name="umacron" unicode="&#x16b;" horiz-adv-x="594" 
d="M261 -9q-84 0 -133 49t-49 152v331h83v-327q0 -69 29 -101t92 -32q58 0 101 38q43 37 43 105v317h83v-523h-83v83q-19 -40 -62.5 -66t-103.5 -26zM166 648v64h262v-64h-262z" />
    <glyph glyph-name="Ubreve" unicode="&#x16c;" horiz-adv-x="696" 
d="M341 -9q-124 0 -190.5 69.5t-66.5 200.5v454h87v-444q0 -111 41 -159.5t131 -48.5q92 0 137 48t45 173v431h87v-443q0 -135 -67.5 -208t-203.5 -73zM280 899q10 -64 66 -64q59 0 72 64h64q-3 -58 -43 -95q-38 -37 -93 -37q-27 0 -50.5 10t-41 27.5t-28.5 41.5t-12 53h66z
" />
    <glyph glyph-name="ubreve" unicode="&#x16d;" horiz-adv-x="594" 
d="M261 -9q-84 0 -133 49t-49 152v331h83v-327q0 -69 29 -101t92 -32q58 0 101 38q43 37 43 105v317h83v-523h-83v83q-19 -40 -62.5 -66t-103.5 -26zM229 751q10 -64 66 -64q59 0 72 64h64q-3 -58 -43 -95q-38 -37 -93 -37q-27 0 -50.5 10t-41 27.5t-28.5 41.5t-12 53h66z
" />
    <glyph glyph-name="Uring" unicode="&#x16e;" horiz-adv-x="696" 
d="M341 -9q-124 0 -190.5 69.5t-66.5 200.5v454h87v-444q0 -111 41 -159.5t131 -48.5q92 0 137 48t45 173v431h87v-443q0 -135 -67.5 -208t-203.5 -73zM310 801q15 -16 38 -16t38 16q16 17 15.5 42t-15.5 41q-16 17 -38 17t-38 -17q-15 -16 -15.5 -41t15.5 -42zM423 769
q-32 -30 -75 -30q-45 0 -76 30q-15 15 -23 34.5t-8 39.5t8 39t23 34q31 31 76 31q42 0 75 -31q32 -31 32 -73.5t-32 -73.5z" />
    <glyph glyph-name="uring" unicode="&#x16f;" horiz-adv-x="594" 
d="M261 -9q-84 0 -133 49t-49 152v331h83v-327q0 -69 29 -101t92 -32q58 0 101 38q43 37 43 105v317h83v-523h-83v83q-19 -40 -62.5 -66t-103.5 -26zM256 630q15 -16 38 -16t38 16q16 17 15.5 42t-15.5 41q-16 17 -38 17t-38 -17q-15 -16 -15.5 -41t15.5 -42zM369 598
q-32 -30 -75 -30q-45 0 -76 30q-15 15 -23 34.5t-8 39.5t8 39t23 34q31 31 76 31q42 0 75 -31q32 -31 32 -73.5t-32 -73.5z" />
    <glyph glyph-name="Uhungarumlaut" unicode="&#x170;" horiz-adv-x="696" 
d="M341 -9q-124 0 -190.5 69.5t-66.5 200.5v454h87v-444q0 -111 41 -159.5t131 -48.5q92 0 137 48t45 173v431h87v-443q0 -135 -67.5 -208t-203.5 -73zM236 771l37 127h95l-72 -127h-60zM390 771l37 127h95l-72 -127h-60z" />
    <glyph glyph-name="uhungarumlaut" unicode="&#x171;" horiz-adv-x="594" 
d="M261 -9q-84 0 -133 49t-49 152v331h83v-327q0 -69 29 -101t92 -32q58 0 101 38q43 37 43 105v317h83v-523h-83v83q-19 -40 -62.5 -66t-103.5 -26zM185 613l40 147h95l-75 -147h-60zM339 613l40 147h95l-75 -147h-60z" />
    <glyph glyph-name="Uogonek" unicode="&#x172;" horiz-adv-x="696" 
d="M384 -182q-48 0 -76 21.5t-28 58.5q0 54 62 93h-1q-124 0 -190.5 69.5t-66.5 200.5v454h87v-444q0 -111 41 -159.5t131 -48.5q92 0 137 48t45 173v431h87v-443q0 -193 -133 -254q-17 -8 -29.5 -14t-19.5 -10t-15.5 -9t-19.5 -12q-21 -14 -28.5 -27.5t-7.5 -31.5
q0 -36 38 -36q30 0 52 11v-59q-29 -12 -65 -12z" />
    <glyph glyph-name="uogonek" unicode="&#x173;" horiz-adv-x="594" 
d="M459 -182q-48 0 -76 21.5t-28 58.5q0 30 20 56t52 43v86q-19 -40 -62.5 -66t-103.5 -26q-84 0 -133 49t-49 152v331h83v-327q0 -69 29 -101t92 -32q58 0 101 38q43 37 43 105v317h83v-518q-76 -48 -76 -91q0 -36 38 -36q30 0 52 11v-59q-29 -12 -65 -12z" />
    <glyph glyph-name="Wcircumflex" unicode="&#x174;" horiz-adv-x="928" 
d="M220 0l-186 715h89l145 -577l168 577h62l168 -579l147 579h81l-186 -715h-80l-162 565l-167 -565h-79zM319 771l108 127h75l107 -127h-61l-85 58l-85 -58h-59z" />
    <glyph glyph-name="wcircumflex" unicode="&#x175;" horiz-adv-x="794" 
d="M189 0l-161 523h90l122 -421l127 421h72l119 -421l123 421h85l-163 -523h-92l-109 392l-122 -392h-91zM252 613l108 144h75l107 -144h-61l-85 75l-85 -75h-59z" />
    <glyph glyph-name="Ycircumflex" unicode="&#x176;" horiz-adv-x="598" 
d="M262 0v312l-239 403h98l187 -332l180 332h87l-226 -404v-311h-87zM154 771l108 127h75l107 -127h-61l-85 58l-85 -58h-59z" />
    <glyph glyph-name="ycircumflex" unicode="&#x177;" horiz-adv-x="529" 
d="M131 -182l99 236l-205 469h89l160 -375l145 375h85l-289 -705h-84zM119 613l108 144h75l107 -144h-61l-85 75l-85 -75h-59z" />
    <glyph glyph-name="Ydieresis" unicode="&#x178;" horiz-adv-x="598" 
d="M262 0v312l-239 403h98l187 -332l180 332h87l-226 -404v-311h-87zM234 804q-15 -15 -37 -15.5t-38 15.5t-15.5 38t15.5 37q16 16 37.5 16t37.5 -16t16 -37.5t-16 -37.5zM437 804q-15 -15 -37 -15.5t-38 15.5t-15.5 38t15.5 37q16 16 37.5 16t37.5 -16t16 -37.5t-16 -37.5
z" />
    <glyph glyph-name="Zacute" unicode="&#x179;" horiz-adv-x="595" 
d="M28 0v14l405 630h-369v71h489v-13l-394 -628h388v-74h-519zM258 771l56 127h104l-98 -127h-62z" />
    <glyph glyph-name="zacute" unicode="&#x17a;" horiz-adv-x="483" 
d="M21 0v12l309 441h-279v70h407v-15l-302 -435h298v-73h-433zM211 613l62 147h104l-104 -147h-62z" />
    <glyph glyph-name="Zdotaccent" unicode="&#x17b;" horiz-adv-x="595" 
d="M28 0v14l405 630h-369v71h489v-13l-394 -628h388v-74h-519zM334 803q-16 -16 -39 -16t-39 16q-17 17 -16.5 39t16.5 38q17 17 39 17t39 -17q16 -16 16.5 -38t-16.5 -39z" />
    <glyph glyph-name="zdotaccent" unicode="&#x17c;" horiz-adv-x="483" 
d="M21 0v12l309 441h-279v70h407v-15l-302 -435h298v-73h-433zM286 648q-16 -16 -38 -16.5t-39 16.5q-16 16 -16 39t16 39q17 17 39 16.5t38 -16.5q17 -17 17 -39t-17 -39z" />
    <glyph glyph-name="Zcaron" unicode="&#x17d;" horiz-adv-x="595" 
d="M28 0v14l405 630h-369v71h489v-13l-394 -628h388v-74h-519zM257 771l-107 127h61l85 -58l85 58h59l-108 -127h-75z" />
    <glyph glyph-name="zcaron" unicode="&#x17e;" horiz-adv-x="483" 
d="M21 0v12l309 441h-279v70h407v-15l-302 -435h298v-73h-433zM210 613l-107 144h61l85 -75l85 75h59l-108 -144h-75z" />
    <glyph glyph-name="florin" unicode="&#x192;" horiz-adv-x="397" 
d="M29 345v68h97l23 152q24 159 169 159q37 0 68 -11v-70q-30 12 -66 12q-74 0 -89 -94l-23 -148h132v-68h-142l-80 -527h-83l80 527h-86z" />
    <glyph glyph-name="Aringacute" unicode="&#x1fa;" horiz-adv-x="674" 
d="M36 0l246 715h114l242 -715h-86l-70 206h-295l-69 -206h-82zM335 643l-124 -368h248zM419 779q-32 -30 -75 -30q-45 0 -76 30q-15 15 -23 34.5t-8 39.5t8 39t23 34q31 31 76 31q42 0 75 -31q32 -31 32 -73.5t-32 -73.5zM311 986l56 127h104l-98 -127h-62zM306 811
q15 -16 38 -16t38 16q16 17 15.5 42t-15.5 41q-16 17 -38 17t-38 -17q-15 -16 -15.5 -41t15.5 -42z" />
    <glyph glyph-name="aringacute" unicode="&#x1fb;" horiz-adv-x="540" 
d="M215 -9q-77 0 -125.5 38.5t-48.5 115.5q0 84 74 123q75 39 188 39h75v38q0 63 -26 90.5t-86 27.5q-108 0 -120 -94h-83q4 42 21.5 72.5t44.5 51t63 30t78 9.5q191 0 191 -187v-345h-83v66q-60 -75 -163 -75zM223 57q69 0 112 33t43 93v65h-72q-182 0 -182 -103
q0 -88 99 -88zM235 640q15 -16 38 -16t38 16q16 17 15.5 42t-15.5 41q-16 17 -38 17t-38 -17q-15 -16 -15.5 -41t15.5 -42zM348 608q-32 -30 -75 -30q-45 0 -76 30q-15 15 -23 34.5t-8 39.5t8 39t23 34q31 31 76 31q42 0 75 -31q32 -31 32 -73.5t-32 -73.5zM247 829l56 127
h104l-98 -127h-62z" />
    <glyph glyph-name="AEacute" unicode="&#x1fc;" horiz-adv-x="950" 
d="M29 0l370 715h492v-71h-330v-243h266v-71h-266v-259h348v-71h-435v207h-252l-105 -207h-88zM443 644l-187 -369h218v369h-31zM573 771l56 127h104l-98 -127h-62z" />
    <glyph glyph-name="aeacute" unicode="&#x1fd;" horiz-adv-x="880" 
d="M616 -9q-133 0 -197 108q-36 -57 -84 -82.5t-120 -25.5q-77 0 -125.5 38.5t-48.5 115.5q0 85 73 125t186 40h78v34q0 63 -27 91t-85 28q-108 0 -120 -94h-83q4 42 21.5 72.5t44.5 51t63 30t78 9.5q123 0 164 -89q65 89 176 89q98 0 162 -64q65 -65 65 -196v-25h-379
q3 -91 43 -139t116 -48q117 0 133 91h83q-13 -78 -71 -119t-146 -41zM223 57q69 0 112 33t43 93v64h-75q-179 0 -179 -102q0 -88 99 -88zM752 310q-11 153 -142 153q-60 0 -99.5 -40.5t-49.5 -112.5h291zM407 613l62 147h104l-104 -147h-62z" />
    <glyph glyph-name="Oslashacute" unicode="&#x1fe;" horiz-adv-x="811" 
d="M80 -33l-45 45l98 107q-78 97 -78 234v8q0 155 98 259q99 104 254 104q123 0 214 -70l81 88l45 -45l-79 -87q88 -100 88 -247v-8q0 -155 -97 -259q-98 -105 -250 -105q-137 0 -232 82zM409 63q118 0 187 81q70 80 70 212v8q0 112 -52 188l-384 -421q71 -68 179 -68z
M145 354q0 -100 44 -173l382 418q-65 55 -164 55q-122 0 -192 -81q-70 -80 -70 -211v-8zM369 771l56 127h104l-98 -127h-62z" />
    <glyph glyph-name="oslashacute" unicode="&#x1ff;" horiz-adv-x="604" 
d="M67 -37l-44 38l77 85q-55 70 -55 171v8q0 117 72 192q73 75 185 75q89 0 156 -50l68 74l44 -38l-70 -77q59 -74 59 -175v-8q0 -119 -73 -193q-74 -74 -185 -74q-93 0 -160 54zM302 60q39 0 70.5 14t54 40t34.5 62t12 81v7q0 66 -27 117l-256 -281q44 -40 112 -40z
M131 257q0 -65 24 -111l253 280q-43 37 -106 37q-39 0 -71 -14t-54 -40t-34 -62.5t-12 -81.5v-8zM264 613l62 147h104l-104 -147h-62z" />
    <glyph glyph-name="Scommaaccent" unicode="&#x218;" horiz-adv-x="627" 
d="M321 -9q-133 0 -198 62q-65 63 -75 165h84q4 -32 14 -60.5t30.5 -50t55.5 -34t89 -12.5q70 0 116 37q47 38 47 98q0 62 -36 91q-37 31 -137 46q-60 9 -105 24.5t-75 38.5t-44.5 56t-14.5 78q0 82 65 138t165 56q109 0 172.5 -50.5t73.5 -146.5h-78q-13 67 -53 97t-115 30
q-72 0 -110.5 -32t-38.5 -84q0 -56 34 -84q33 -27 138 -44q125 -19 184 -66q59 -45 59 -142q0 -89 -71 -151q-71 -60 -176 -60zM269 -220l-51 26l58 157l80 -24z" />
    <glyph glyph-name="scommaaccent" unicode="&#x219;" horiz-adv-x="480" 
d="M246 -9q-94 0 -147.5 44.5t-57.5 125.5h81q11 -101 123 -101q114 0 114 83q0 39 -28 57.5t-94 30.5q-102 20 -142 52q-40 34 -40 102t54 107q55 40 123 40q170 0 189 -151h-80q-9 43 -35 62.5t-75 19.5q-45 0 -72 -20.5t-27 -54.5q0 -18 5.5 -31t19.5 -22.5t37.5 -16.5
t59.5 -13q47 -9 75.5 -17.5t55.5 -25.5q28 -17 40.5 -44.5t12.5 -67.5q0 -73 -49 -116t-143 -43zM205 -220l-51 26l58 157l80 -24z" />
    <glyph glyph-name="uni0237" unicode="&#x237;" horiz-adv-x="255" 
d="M9 -121q42 4 59.5 24t17.5 57v563h83v-556q0 -78 -37.5 -116.5t-122.5 -41.5v70z" />
    <glyph glyph-name="circumflex" unicode="&#x2c6;" horiz-adv-x="400" 
d="M55 613l108 144h75l107 -144h-61l-85 75l-85 -75h-59z" />
    <glyph glyph-name="caron" unicode="&#x2c7;" horiz-adv-x="400" 
d="M162 613l-107 144h61l85 -75l85 75h59l-108 -144h-75z" />
    <glyph glyph-name="breve" unicode="&#x2d8;" horiz-adv-x="400" 
d="M132 751q10 -64 66 -64q59 0 72 64h64q-3 -58 -43 -95q-38 -37 -93 -37q-27 0 -50.5 10t-41 27.5t-28.5 41.5t-12 53h66z" />
    <glyph glyph-name="dotaccent" unicode="&#x2d9;" horiz-adv-x="400" 
d="M238 648q-16 -16 -38 -16.5t-39 16.5q-16 16 -16 39t16 39q17 17 39 16.5t38 -16.5q17 -17 17 -39t-17 -39z" />
    <glyph glyph-name="ring" unicode="&#x2da;" horiz-adv-x="400" 
d="M162 660q15 -16 38 -16t38 16q16 17 15.5 42t-15.5 41q-16 17 -38 17t-38 -17q-15 -16 -15.5 -41t15.5 -42zM275 628q-32 -30 -75 -30q-45 0 -76 30q-15 15 -23 34.5t-8 39.5t8 39t23 34q31 31 76 31q42 0 75 -31q32 -31 32 -73.5t-32 -73.5z" />
    <glyph glyph-name="ogonek" unicode="&#x2db;" horiz-adv-x="400" 
d="M223 -182q-48 0 -76 21.5t-28 58.5q0 31 22 58t56 44h69q-68 -45 -68 -86q0 -36 38 -36q30 0 52 11v-59q-29 -12 -65 -12z" />
    <glyph glyph-name="tilde" unicode="&#x2dc;" horiz-adv-x="400" 
d="M254 619q-23 0 -59 21q-35 22 -49 22t-25 -12.5t-15 -32.5h-60q6 54 34 85t67 31q22 0 58 -22q34 -21 49 -21q14 0 25 12.5t15 32.5h60q-6 -54 -33.5 -85t-66.5 -31z" />
    <glyph glyph-name="hungarumlaut" unicode="&#x2dd;" horiz-adv-x="400" 
d="M96 613l40 147h95l-75 -147h-60zM250 613l40 147h95l-75 -147h-60z" />
    <glyph glyph-name="Wgrave" unicode="&#x1e80;" horiz-adv-x="928" 
d="M220 0l-186 715h89l145 -577l168 577h62l168 -579l147 579h81l-186 -715h-80l-162 565l-167 -565h-79zM442 771l-98 127h104l56 -127h-62z" />
    <glyph glyph-name="wgrave" unicode="&#x1e81;" horiz-adv-x="794" 
d="M189 0l-161 523h90l122 -421l127 421h72l119 -421l123 421h85l-163 -523h-92l-109 392l-122 -392h-91zM381 613l-104 147h104l62 -147h-62z" />
    <glyph glyph-name="Wacute" unicode="&#x1e82;" horiz-adv-x="928" 
d="M220 0l-186 715h89l145 -577l168 577h62l168 -579l147 579h81l-186 -715h-80l-162 565l-167 -565h-79zM440 771l56 127h104l-98 -127h-62z" />
    <glyph glyph-name="wacute" unicode="&#x1e83;" horiz-adv-x="794" 
d="M189 0l-161 523h90l122 -421l127 421h72l119 -421l123 421h85l-163 -523h-92l-109 392l-122 -392h-91zM370 613l62 147h104l-104 -147h-62z" />
    <glyph glyph-name="Wdieresis" unicode="&#x1e84;" horiz-adv-x="928" 
d="M220 0l-186 715h89l145 -577l168 577h62l168 -579l147 579h81l-186 -715h-80l-162 565l-167 -565h-79zM402 804q-15 -15 -37 -15.5t-38 15.5t-15.5 38t15.5 37q16 16 37.5 16t37.5 -16t16 -37.5t-16 -37.5zM605 804q-15 -15 -37 -15.5t-38 15.5t-15.5 38t15.5 37
q16 16 37.5 16t37.5 -16t16 -37.5t-16 -37.5z" />
    <glyph glyph-name="wdieresis" unicode="&#x1e85;" horiz-adv-x="794" 
d="M189 0l-161 523h90l122 -421l127 421h72l119 -421l123 421h85l-163 -523h-92l-109 392l-122 -392h-91zM345 649q-15 -15 -37 -15.5t-38 15.5t-15.5 38t15.5 37q16 16 37.5 16t37.5 -16t16 -37.5t-16 -37.5zM533 649q-15 -15 -37 -15.5t-38 15.5t-15.5 38t15.5 37
q16 16 37.5 16t37.5 -16t16 -37.5t-16 -37.5z" />
    <glyph glyph-name="Ygrave" unicode="&#x1ef2;" horiz-adv-x="598" 
d="M262 0v312l-239 403h98l187 -332l180 332h87l-226 -404v-311h-87zM284 771l-98 127h104l56 -127h-62z" />
    <glyph glyph-name="ygrave" unicode="&#x1ef3;" horiz-adv-x="529" 
d="M131 -182l99 236l-205 469h89l160 -375l145 375h85l-289 -705h-84zM243 613l-104 147h104l62 -147h-62z" />
    <glyph glyph-name="uni2009" unicode="&#x2009;" horiz-adv-x="110" 
 />
    <glyph glyph-name="endash" unicode="&#x2013;" horiz-adv-x="526" 
d="M45 241v70h436v-70h-436z" />
    <glyph glyph-name="emdash" unicode="&#x2014;" horiz-adv-x="885" 
d="M45 241v70h795v-70h-795z" />
    <glyph glyph-name="quoteleft" unicode="&#x2018;" horiz-adv-x="255" 
d="M119 488l-79 36l117 202l51 -26z" />
    <glyph glyph-name="quoteright" unicode="&#x2019;" horiz-adv-x="255" 
d="M98 488l-51 26l89 212l79 -36z" />
    <glyph glyph-name="quotesinglbase" unicode="&#x201a;" horiz-adv-x="255" 
d="M98 -114l-51 26l89 212l79 -36z" />
    <glyph glyph-name="quotedblleft" unicode="&#x201c;" horiz-adv-x="432" 
d="M119 488l-79 36l117 202l51 -26zM296 488l-79 36l117 202l51 -26z" />
    <glyph glyph-name="quotedblright" unicode="&#x201d;" horiz-adv-x="432" 
d="M98 488l-51 26l89 212l79 -36zM275 488l-51 26l89 212l79 -36z" />
    <glyph glyph-name="quotedblbase" unicode="&#x201e;" horiz-adv-x="432" 
d="M98 -114l-51 26l89 212l79 -36zM275 -114l-51 26l89 212l79 -36z" />
    <glyph glyph-name="dagger" unicode="&#x2020;" horiz-adv-x="374" 
d="M150 213v306h-116v67h116v129h75v-129h115v-67h-115v-306h-75z" />
    <glyph glyph-name="daggerdbl" unicode="&#x2021;" horiz-adv-x="374" 
d="M150 409v110h-116v67h116v129h75v-129h115v-67h-115v-110h115v-67h-115v-129h-75v129h-116v67h116z" />
    <glyph glyph-name="bullet" unicode="&#x2022;" horiz-adv-x="332" 
d="M166 190q-49 0 -83 34q-33 34 -33 82q0 47 33 82q34 34 83 34q25 0 46.5 -9t37 -24.5t24 -37t8.5 -45.5t-8.5 -45.5t-24 -37t-37 -24.5t-46.5 -9z" />
    <glyph glyph-name="ellipsis" unicode="&#x2026;" horiz-adv-x="806" 
d="M186 13q-19 -18 -45 -18t-45 18q-19 19 -19 46t19 45q19 19 45 19t45 -19q19 -18 19 -45t-19 -46zM448 13q-19 -18 -45 -18t-45 18q-19 19 -19 46t19 45q19 19 45 19t45 -19q19 -18 19 -45t-19 -46zM710 13q-19 -18 -45 -18t-45 18q-19 19 -19 46t19 45q19 19 45 19
t45 -19q19 -18 19 -45t-19 -46z" />
    <glyph glyph-name="perthousand" unicode="&#x2030;" horiz-adv-x="1126" 
d="M193 459q39 0 61.5 26.5t22.5 72.5q0 45 -23 72t-61 27t-61 -26t-23 -74q0 -46 23 -72t61 -26zM193 395q-64 0 -111 46q-48 46 -48 115q0 70 47 117q46 48 112 48q65 0 112 -47t47 -116q0 -71 -48 -117q-46 -46 -111 -46zM126 0l437 715h76l-437 -715h-76zM565 56
q39 0 61.5 26.5t22.5 72.5q0 45 -23 72t-61 27t-61 -26t-23 -74q0 -46 23 -72t61 -26zM565 -8q-64 0 -111 46q-48 46 -48 115q0 71 47 118t112 47t112 -47t47 -116q0 -71 -48 -117q-46 -46 -111 -46zM933 56q39 0 61.5 26.5t22.5 72.5q0 45 -23 72t-61 27t-61 -26t-23 -74
q0 -46 23 -72t61 -26zM933 -8q-64 0 -111 46q-48 46 -48 115q0 71 47 118t112 47t112 -47t47 -116q0 -71 -48 -117q-46 -46 -111 -46z" />
    <glyph glyph-name="uni2032" unicode="&#x2032;" horiz-adv-x="212" 
d="M46 470l25 245h90l-55 -245h-60z" />
    <glyph glyph-name="uni2033" unicode="&#x2033;" horiz-adv-x="375" 
d="M46 470l25 245h90l-55 -245h-60zM209 470l25 245h90l-55 -245h-60z" />
    <glyph glyph-name="guilsinglleft" unicode="&#x2039;" horiz-adv-x="322" 
d="M189 83l-130 178l130 178h82l-125 -178l125 -178h-82z" />
    <glyph glyph-name="guilsinglright" unicode="&#x203a;" horiz-adv-x="322" 
d="M51 83l125 178l-125 178h82l130 -178l-130 -178h-82z" />
    <glyph glyph-name="fraction" unicode="&#x2044;" horiz-adv-x="113" 
d="M-230 0l507 715h66l-507 -715h-66z" />
    <glyph glyph-name="Euro" unicode="&#x20ac;" horiz-adv-x="674" 
d="M32 394v58h74q14 121 83 196q70 76 184 76q103 0 167.5 -58t76.5 -161h-82q-10 72 -53 111.5t-109 39.5q-79 0 -125.5 -54t-56.5 -150h239l-11 -58h-230v-78h215l-11 -58h-201q10 -94 56 -145t127 -51q70 0 113.5 41.5t55.5 122.5h81q-12 -112 -78 -173.5t-172 -61.5
q-112 0 -184 74q-72 75 -85 193h-74v58h71v78h-71z" />
    <glyph glyph-name="trademark" unicode="&#x2122;" horiz-adv-x="716" 
d="M342 393v322h77l90 -226l88 226h78v-322h-56v251l-103 -251h-19l-104 251v-251h-51zM132 393v278h-98v44h251v-44h-97v-278h-56z" />
    <glyph glyph-name="onethird" unicode="&#x2153;" horiz-adv-x="723" 
d="M108 373v276l-81 -54v59l89 61h60v-342h-68zM45 0l507 715h66l-507 -715h-66zM560 -5q-61 0 -95 30t-36 81h61q7 -61 68 -61q63 0 63 54t-60 54h-26v47h25q56 0 56 49q0 21 -13.5 34t-38.5 13q-26 0 -42.5 -14.5t-19.5 -40.5h-61q3 48 36.5 76.5t87.5 28.5t84.5 -26
t30.5 -66q0 -55 -57 -74q67 -15 67 -82q0 -48 -35 -75.5t-95 -27.5z" />
    <glyph glyph-name="twothirds" unicode="&#x2154;" horiz-adv-x="760" 
d="M11 373v11l128 136q54 59 54 97q0 23 -13 36.5t-37 13.5q-53 0 -60 -66h-61q3 57 35.5 87.5t87.5 30.5q54 0 84 -27.5t30 -73.5q0 -58 -66 -122l-73 -72h142v-51h-251zM96 0l507 715h66l-507 -715h-66zM597 -5q-61 0 -95 30t-36 81h61q7 -61 68 -61q63 0 63 54t-60 54
h-26v47h25q56 0 56 49q0 21 -13.5 34t-38.5 13q-26 0 -42.5 -14.5t-19.5 -40.5h-61q3 48 36.5 76.5t87.5 28.5t84.5 -26t30.5 -66q0 -55 -57 -74q67 -15 67 -82q0 -48 -35 -75.5t-95 -27.5z" />
    <glyph glyph-name="oneeighth" unicode="&#x215b;" horiz-adv-x="714" 
d="M108 373v276l-81 -54v59l89 61h60v-342h-68zM45 0l507 715h66l-507 -715h-66zM553 -5q-55 0 -92 26.5t-37 74.5q0 64 63 87q-50 21 -50 71q0 42 34.5 67t82.5 25q24 0 45 -6.5t37 -18.5t25 -28.5t9 -37.5q0 -50 -51 -71q64 -24 64 -86q0 -49 -36.5 -76t-93.5 -27z
M616 103q2 18 -7 30.5t-23.5 19t-31.5 6.5t-31.5 -6t-23.5 -19t-7 -32q-2 -19 7 -31.5t23.5 -18.5t31.5 -6.5t31.5 6t23.5 19.5t7 32zM554 203q24 0 38 13t14 35q0 21 -15 34t-37 13q-23 0 -38 -13t-15 -35t15.5 -34.5t37.5 -12.5z" />
    <glyph glyph-name="threeeighths" unicode="&#x215c;" horiz-adv-x="744" 
d="M155 368q-61 0 -95 30t-36 81h61q7 -61 68 -61q63 0 63 54t-60 54h-26v47h25q56 0 56 49q0 21 -13.5 34t-38.5 13q-26 0 -42.5 -14.5t-19.5 -40.5h-61q3 48 36.5 76.5t87.5 28.5t84.5 -26t30.5 -66q0 -55 -57 -74q67 -15 67 -82q0 -48 -35 -75.5t-95 -27.5zM87 0l507 715
h66l-507 -715h-66zM583 -5q-55 0 -92 26.5t-37 74.5q0 64 63 87q-50 21 -50 71q0 42 34.5 67t82.5 25q24 0 45 -6.5t37 -18.5t25 -28.5t9 -37.5q0 -50 -51 -71q64 -24 64 -86q0 -49 -36.5 -76t-93.5 -27zM646 103q2 18 -7 30.5t-23.5 19t-31.5 6.5t-31.5 -6t-23.5 -19
t-7 -32q-2 -19 7 -31.5t23.5 -18.5t31.5 -6.5t31.5 6t23.5 19.5t7 32zM584 203q24 0 38 13t14 35q0 21 -15 34t-37 13q-23 0 -38 -13t-15 -35t15.5 -34.5t37.5 -12.5z" />
    <glyph glyph-name="fiveeighths" unicode="&#x215d;" horiz-adv-x="738" 
d="M148 368q-58 0 -89.5 28t-34.5 76h63q4 -26 17 -39t44 -13q27 0 42.5 18t15.5 49q0 30 -15.5 47.5t-43.5 17.5q-46 0 -70 -29h-36l4 192h210v-52h-159l-1 -92q25 30 75 30q48 0 76.5 -30.5t28.5 -84.5t-35 -86t-92 -32zM80 0l507 715h66l-507 -715h-66zM577 -5
q-55 0 -92 26.5t-37 74.5q0 64 63 87q-50 21 -50 71q0 42 34.5 67t82.5 25q24 0 45 -6.5t37 -18.5t25 -28.5t9 -37.5q0 -50 -51 -71q64 -24 64 -86q0 -49 -36.5 -76t-93.5 -27zM640 103q2 18 -7 30.5t-23.5 19t-31.5 6.5t-31.5 -6t-23.5 -19t-7 -32q-2 -19 7 -31.5
t23.5 -18.5t31.5 -6.5t31.5 6t23.5 19.5t7 32zM578 203q24 0 38 13t14 35q0 21 -15 34t-37 13q-23 0 -38 -13t-15 -35t15.5 -34.5t37.5 -12.5z" />
    <glyph glyph-name="seveneighths" unicode="&#x215e;" horiz-adv-x="710" 
d="M69 373l108 287h-157v55h241v-8l-124 -334h-68zM33 0l507 715h66l-507 -715h-66zM549 -5q-55 0 -92 26.5t-37 74.5q0 64 63 87q-50 21 -50 71q0 42 34.5 67t82.5 25q24 0 45 -6.5t37 -18.5t25 -28.5t9 -37.5q0 -50 -51 -71q64 -24 64 -86q0 -49 -36.5 -76t-93.5 -27z
M612 103q2 18 -7 30.5t-23.5 19t-31.5 6.5t-31.5 -6t-23.5 -19t-7 -32q-2 -19 7 -31.5t23.5 -18.5t31.5 -6.5t31.5 6t23.5 19.5t7 32zM550 203q24 0 38 13t14 35q0 21 -15 34t-37 13q-23 0 -38 -13t-15 -35t15.5 -34.5t37.5 -12.5z" />
    <glyph glyph-name="minus" unicode="&#x2212;" horiz-adv-x="519" 
d="M36 307v70h447v-70h-447z" />
    <glyph glyph-name="approxequal" unicode="&#x2248;" horiz-adv-x="498" 
d="M44 166q5 58 35 88.5t75 30.5q42 0 104 -22q63 -22 88 -22q17 0 30 11.5t15 34.5h63q-4 -58 -34.5 -88.5t-72.5 -30.5q-44 0 -107 22t-87 22q-17 0 -29.5 -12t-16.5 -34h-63zM44 343q5 58 35 88.5t75 30.5q42 0 104 -22q63 -22 88 -22q17 0 30 11.5t15 34.5h63
q-4 -58 -34.5 -88.5t-72.5 -30.5q-44 0 -107 22t-87 22q-17 0 -29.5 -12t-16.5 -34h-63z" />
    <glyph glyph-name="notequal" unicode="&#x2260;" horiz-adv-x="484" 
d="M40 376v72h215l40 103h76l-40 -103h113v-72h-141l-41 -108h182v-72h-210l-40 -103h-76l40 103h-118v72h146l41 108h-187z" />
    <glyph glyph-name="lessequal" unicode="&#x2264;" horiz-adv-x="504" 
d="M437 119l-384 205v20l384 205v-80l-260 -135l260 -135v-80zM53 0v70h384v-70h-384z" />
    <glyph glyph-name="greaterequal" unicode="&#x2265;" horiz-adv-x="504" 
d="M67 119v80l260 135l-260 135v80l384 -205v-20zM67 0v70h384v-70h-384z" />
    <glyph glyph-name="uni24C5" unicode="&#x24c5;" horiz-adv-x="844" 
d="M304 162v395h128q69 0 108 -30.5t39 -91.5v-3q0 -61 -38.5 -91t-105.5 -30h-55v-149h-76zM380 366h52q74 0 74 66v3q0 63 -74 63h-52v-132zM421 33q130 0 225 92q95 93 95 234q0 139 -93 231q-94 92 -225 92q-133 0 -227 -92q-93 -92 -93 -233q0 -142 94 -233t224 -91z
M421 -9q-154 0 -260 105q-106 106 -106 261q0 153 107 260t261 107q155 0 260 -106q106 -106 106 -259q0 -155 -107 -262q-106 -106 -261 -106z" />
    <glyph glyph-name="f_f" unicode="&#xfb00;" horiz-adv-x="634" 
d="M102 0v453h-75v70h75v78q0 81 39 124.5t117 43.5q33 0 62 -10v-70q-30 11 -59 11q-76 0 -76 -90v-87h205v85q0 81 39 124.5t117 43.5q33 0 62 -10v-70q-28 11 -59 11q-76 0 -76 -90v-94h128v-70h-128v-453h-83v453h-205v-453h-83z" />
    <glyph glyph-name="f_i" unicode="&#xfb01;" horiz-adv-x="597" 
d="M102 0v453h-75v70h75v85q0 81 39 124.5t115 43.5q35 0 57 -8v-70q-23 9 -54 9q-74 0 -74 -90v-94h128v-70h-128v-453h-83zM428 0v523h83v-523h-83zM506 648q-16 -16 -38 -16.5t-39 16.5q-16 16 -16 39t16 39q17 17 39 16.5t38 -16.5q17 -17 17 -39t-17 -39z" />
    <glyph glyph-name="f_l" unicode="&#xfb02;" horiz-adv-x="598" 
d="M102 0v453h-75v70h75v85q0 81 39 124.5t115 43.5q35 0 57 -8v-70q-23 9 -54 9q-74 0 -74 -90v-94h128v-70h-128v-453h-83zM428 0v773h84v-773h-84z" />
    <glyph glyph-name="space_uni0326" horiz-adv-x="400" 
d="M179 -220l-51 26l58 157l80 -24z" />
    <glyph glyph-name="caron.alt" horiz-adv-x="400" 
d="M182 598l12 175h94l-48 -175h-58z" />
    <glyph glyph-name="space_uni0326.alt" horiz-adv-x="400" 
d="M230 602l-80 24l87 159l51 -26z" />
    <glyph glyph-name="grave.uc" horiz-adv-x="400" 
d="M177 771l-98 127h104l56 -127h-62z" />
    <glyph glyph-name="dieresis.uc" horiz-adv-x="400" 
d="M135 804q-15 -15 -37 -15.5t-38 15.5t-15.5 38t15.5 37q16 16 37.5 16t37.5 -16t16 -37.5t-16 -37.5zM338 804q-15 -15 -37 -15.5t-38 15.5t-15.5 38t15.5 37q16 16 37.5 16t37.5 -16t16 -37.5t-16 -37.5z" />
    <glyph glyph-name="macron.uc" horiz-adv-x="400" 
d="M67 786v64h266v-64h-266z" />
    <glyph glyph-name="acute.uc" horiz-adv-x="400" 
d="M161 771l56 127h104l-98 -127h-62z" />
    <glyph glyph-name="circumflex.uc" horiz-adv-x="400" 
d="M55 771l108 127h75l107 -127h-61l-85 58l-85 -58h-59z" />
    <glyph glyph-name="caron.uc" horiz-adv-x="400" 
d="M162 771l-107 127h61l85 -58l85 58h59l-108 -127h-75z" />
    <glyph glyph-name="breve.uc" horiz-adv-x="400" 
d="M132 899q10 -64 66 -64q59 0 72 64h64q-3 -58 -43 -95q-38 -37 -93 -37q-27 0 -50.5 10t-41 27.5t-28.5 41.5t-12 53h66z" />
    <glyph glyph-name="dotaccent.uc" horiz-adv-x="400" 
d="M238 803q-16 -16 -38 -16t-39 16q-16 17 -16 39t16 38q17 17 39 17t38 -17q17 -16 17 -38t-17 -39z" />
    <glyph glyph-name="ring.uc" horiz-adv-x="400" 
d="M162 821q15 -16 38 -16t38 16q16 17 15.5 42t-15.5 41q-16 17 -38 17t-38 -17q-15 -16 -15.5 -41t15.5 -42zM275 789q-32 -30 -75 -30q-45 0 -76 30q-15 15 -23 34.5t-8 39.5t8 39t23 34q31 31 76 31q42 0 75 -31q32 -31 32 -73.5t-32 -73.5z" />
    <glyph glyph-name="tilde.uc" horiz-adv-x="400" 
d="M254 774q-23 0 -59 21q-35 22 -49 22t-25 -12.5t-15 -32.5h-60q6 54 34 85t67 31q22 0 58 -22q34 -21 49 -21q14 0 25 12.5t15 32.5h60q-6 -54 -33.5 -85t-66.5 -31z" />
    <glyph glyph-name="hungarumlaut.uc" horiz-adv-x="400" 
d="M96 771l37 127h95l-72 -127h-60zM250 771l37 127h95l-72 -127h-60z" />
    <glyph glyph-name="idotaccent" horiz-adv-x="255" 
d="M164 648q-16 -16 -38 -16.5t-39 16.5q-16 16 -16 39t16 39q17 17 39 16.5t38 -16.5q17 -17 17 -39t-17 -39zM86 0v523h83v-523h-83z" />
    <glyph glyph-name="registered.alt" horiz-adv-x="844" 
d="M287 163v395h135q69 0 108 -28t39 -88v-2q0 -85 -87 -106l110 -171h-79l-103 159h-48v-159h-75zM362 375h59q73 0 73 62v3q0 60 -73 60h-59v-125zM421 33q130 0 225 92q95 93 95 234q0 139 -93 231q-94 92 -225 92q-133 0 -227 -92q-93 -92 -93 -233q0 -142 94 -233
t224 -91zM421 -9q-154 0 -260 105q-106 106 -106 261q0 153 107 260t261 107q155 0 260 -106q106 -106 106 -259q0 -155 -107 -262q-106 -106 -261 -106z" />
    <glyph glyph-name="dollar.old" horiz-adv-x="608" 
d="M276 -131v123q-213 15 -232 219h81q4 -32 11 -54.5t23 -45.5q15 -23 45 -36t72 -17v270q-103 19 -153.5 61t-50.5 125q0 76 57 129q58 54 147 58v88h58v-89q88 -9 140 -57t61 -132h-75q-22 108 -126 122v-242q56 -9 96.5 -24t67 -38t39.5 -55.5t13 -77.5q0 -82 -61 -140
q-61 -57 -155 -64v-123h-58zM469 190q0 27 -6.5 48t-22.5 36t-41.5 25.5t-64.5 18.5v-260q60 6 97.5 42t37.5 90zM148 522q0 -48 26 -77q25 -26 102 -43v233q-60 -5 -94 -36t-34 -77z" />
    <glyph glyph-name="Euro.old" horiz-adv-x="654" 
d="M31 382v56h71q13 116 81 190t179 74q100 0 162.5 -56t73.5 -156h-79q-10 70 -51.5 108t-105.5 38q-78 0 -122.5 -52t-54.5 -146h232l-11 -56h-223v-75h209l-11 -57h-195q10 -91 54.5 -140.5t123.5 -49.5q69 0 110.5 40.5t53.5 118.5h78q-6 -54 -25 -96t-50.5 -71.5
t-73.5 -45t-93 -15.5q-110 0 -179 71q-35 36 -55 83t-27 105h-72v57h69v75h-69z" />
    <glyph glyph-name="sterling.old" horiz-adv-x="578" 
d="M47 306v60h62q-8 35 -12.5 69t-4.5 67q0 89 61 144q62 56 153 56q93 0 146.5 -49t60.5 -134h-81q-11 58 -39.5 86t-86.5 28q-57 0 -92.5 -36t-35.5 -96q0 -64 16 -135h207v-60h-194q15 -74 15 -128q0 -34 -13 -64q25 -6 86 -29q60 -23 81 -23q84 0 89 83h70
q-4 -69 -43 -111.5t-106 -42.5q-23 0 -52.5 7t-66.5 23q-74 31 -96 31q-30 0 -45 -15t-18 -37h-71q2 19 9 38t19.5 35.5t30 28t40.5 16.5q12 28 12 60q0 42 -23 128h-78z" />
    <glyph glyph-name="yen.old" horiz-adv-x="559" 
d="M81 273v56h151l-205 365h91l170 -315l162 315h82l-194 -365h152v-56h-163v-76h163v-56h-163v-141h-83v141h-163v56h163v76h-163z" />
    <glyph glyph-name="zero.old" horiz-adv-x="643" 
d="M323 62q87 0 132.5 59.5t45.5 171.5v36q0 109 -47 169.5t-132 60.5t-132.5 -59.5t-47.5 -170.5v-37q0 -112 48 -171t133 -59zM323 -9q-121 0 -194 82q-74 83 -74 218v37q0 138 73 218q73 82 194 82q120 0 193 -82t73 -216v-37q0 -138 -72 -220t-193 -82z" />
    <glyph glyph-name="one.old" horiz-adv-x="387" 
d="M193 0v534l-158 -112v80l164 117h79v-619h-85z" />
    <glyph glyph-name="two.old" horiz-adv-x="541" 
d="M23 0v20l251 234q30 28 52.5 52t37.5 46t22 44t7 47q0 54 -33 85.5t-93 31.5q-127 0 -146 -153h-77q4 50 21.5 90.5t46 69.5t68 45t87.5 16q95 0 154 -51t59 -134q0 -42 -26 -88q-13 -22 -25.5 -39.5t-26.5 -31.5t-35.5 -34.5t-51.5 -48.5l-141 -131h312v-70h-463z" />
    <glyph glyph-name="three.old" horiz-adv-x="593" 
d="M288 -105q-110 0 -177 62q-65 62 -69 158h79q14 -152 169 -152q81 0 121 37t40 106q0 137 -153 137h-50v71h46q133 0 133 125q0 55 -32 87.5t-95 32.5q-66 0 -107 -37t-48 -100h-75q5 88 67 146q64 60 163 60t154 -55q56 -54 56 -132q0 -113 -109 -158q137 -36 137 -177
q0 -97 -69 -154t-181 -57z" />
    <glyph glyph-name="four.old" horiz-adv-x="617" 
d="M397 -97v154h-367v28l336 533h114v-494h101v-67h-101v-154h-83zM137 124h260v428z" />
    <glyph glyph-name="five.old" horiz-adv-x="569" 
d="M276 -105q-108 0 -166.5 53t-66.5 142h79q11 -62 45 -94.5t108 -32.5q70 0 111 45.5t41 124.5q0 36 -10.5 66t-29.5 51.5t-45.5 33.5t-59.5 12q-109 0 -167 -67h-30v390h392v-73h-323v-229q52 47 144 47q94 0 155 -64q61 -62 61 -167q0 -106 -69 -172t-169 -66z" />
    <glyph glyph-name="six.old" horiz-adv-x="611" 
d="M313 -9q-134 0 -194 87t-60 232v30q0 183 75 284q75 100 199 100q85 0 139 -43t68 -127h-81q-12 51 -43.5 76t-88.5 25q-82 0 -131 -74.5t-52 -219.5q25 42 73 68t108 26q102 0 167 -66q64 -64 64 -164q0 -106 -66 -170q-65 -64 -177 -64zM313 58q34 0 63 11.5t49.5 33
t32 51.5t11.5 67q0 76 -42.5 121.5t-114.5 45.5q-70 0 -117 -44q-46 -43 -46 -111q0 -84 45.5 -129.5t118.5 -45.5z" />
    <glyph glyph-name="seven.old" horiz-adv-x="523" 
d="M121 -97l270 647h-362v68h468v-12l-289 -703h-87z" />
    <glyph glyph-name="eight.old" horiz-adv-x="595" 
d="M298 -9q-95 0 -171 56q-74 56 -74 153q0 69 38.5 115t101.5 67q-52 19 -82.5 59t-30.5 95q0 85 65 136q64 52 153 52q88 0 152 -52q65 -51 65 -134q0 -109 -115 -155q66 -23 104 -69t38 -112q0 -100 -73 -155q-74 -56 -171 -56zM298 61q34 0 63 10t50 28.5t32.5 45.5
t11.5 60t-11.5 59t-32.5 44t-49.5 27.5t-61.5 9.5q-67 0 -114 -38q-46 -37 -46 -104q0 -65 46 -104q47 -38 112 -38zM301 413q58 0 93 33t35 91q0 54 -37 87t-94 33t-94.5 -32.5t-37.5 -89.5q0 -28 10.5 -50.5t28.5 -38.5t42.5 -24.5t53.5 -8.5z" />
    <glyph glyph-name="nine.old" horiz-adv-x="611" 
d="M284 -105q-94 0 -152 48t-71 132h81q28 -111 149 -111q93 0 133 71t43 223q-25 -42 -73 -68t-108 -26q-102 0 -167 65q-64 65 -64 165q0 104 66 169q67 65 177 65q134 0 194 -87t60 -232v-30q0 -190 -67 -287t-201 -97zM462 386q0 84 -45.5 129.5t-118.5 45.5
q-35 0 -63.5 -11.5t-49 -33t-32 -51.5t-11.5 -67q0 -76 42.5 -121.5t114.5 -45.5q71 0 117 43t46 112z" />
    <glyph glyph-name="dollar.tab" 
d="M272 -135v127q-217 13 -240 226h84q9 -71 41 -112q31 -39 115 -47v279q-106 20 -158.5 64t-52.5 129q0 77 59 131q58 53 152 61v90h59v-91q91 -8 144.5 -59t63.5 -136h-78q-23 114 -130 127v-250q58 -10 100 -25.5t69.5 -39.5t40.5 -58t13 -80q0 -85 -62 -144
q-60 -57 -161 -65v-127h-59zM471 196q0 28 -7 49.5t-23 37t-43 26.5t-67 19v-269q63 8 101.5 45t38.5 92zM140 538q0 -26 6 -45.5t21 -34.5t40.5 -25.5t64.5 -18.5v241q-63 -5 -97.5 -37t-34.5 -80z" />
    <glyph glyph-name="Euro.tab" 
d="M15 394v58h61q4 63 22.5 113.5t50 86t75.5 54t99 18.5q93 0 149 -55.5t68 -160.5h-82q-22 148 -135 148q-149 0 -160 -204h220l-11 -58h-210v-78h195l-11 -58h-183q5 -100 44.5 -148t117.5 -48q63 0 98.5 39.5t47.5 120.5h81q-12 -111 -71.5 -171t-155.5 -60
q-109 0 -175 69t-73 198h-62v58h61v78h-61z" />
    <glyph glyph-name="sterling.tab" 
d="M50 315v62h65q-18 76 -18 141q0 89 63 148q62 58 157 58q96 0 151.5 -50.5t62.5 -138.5h-84q-11 60 -40.5 89t-89.5 29q-57 0 -95 -38q-37 -37 -37 -98t17 -140h213v-62h-198q15 -75 15 -133q0 -34 -13 -64q23 -5 86 -30q61 -24 85 -24q86 0 91 86h73q-5 -72 -45 -115.5
t-109 -43.5q-49 0 -123 31q-75 32 -99 32q-30 0 -46 -16t-19 -38h-73q2 20 9.5 39.5t20.5 36t31.5 28.5t42.5 17q12 25 12 62q0 46 -24 132h-82z" />
    <glyph glyph-name="yen.tab" 
d="M96 281v58h156l-202 376h94l165 -324l157 324h84l-190 -376h157v-58h-168v-78h168v-58h-168v-145h-85v145h-168v58h168v78h-168z" />
    <glyph glyph-name="zero.tab" 
d="M304 63q84 0 120.5 53.5t36.5 178.5v130q0 229 -159 229q-162 0 -162 -236v-125q0 -122 41 -176t123 -54zM304 -9q-58 0 -105 19.5t-80 58t-50.5 94.5t-17.5 129v125q0 150 66.5 228.5t184.5 78.5t182.5 -76.5t64.5 -223.5v-130q0 -149 -63.5 -226t-181.5 -77z" />
    <glyph glyph-name="one.tab" 
d="M314 0v627l-205 -164v81l201 171h91v-715h-87z" />
    <glyph glyph-name="two.tab" 
d="M42 0v20l284 299q103 109 103 207q0 60 -33.5 94t-94.5 34q-132 0 -151 -159h-81q4 53 22 95.5t47.5 72t70.5 45.5t92 16q49 0 89 -14t68.5 -40.5t43.5 -63.5t15 -83q0 -119 -144 -260l-197 -192h345v-71h-479z" />
    <glyph glyph-name="three.tab" 
d="M288 -9q-108 0 -175 62q-64 61 -69 158h80q13 -150 166 -150q81 0 121 36t40 102q0 139 -151 139h-54v73h50q137 0 137 122q0 54 -32.5 87t-95.5 33q-66 0 -107.5 -36t-48.5 -99h-76q5 88 68 146q64 60 164 60q97 0 155 -56q58 -55 58 -133q0 -109 -116 -156
q66 -17 102 -62.5t36 -117.5q0 -97 -70 -152q-70 -56 -182 -56z" />
    <glyph glyph-name="four.tab" 
d="M389 0v150h-348v28l317 537h116v-494h84v-71h-84v-150h-85zM149 221h240v423z" />
    <glyph glyph-name="five.tab" 
d="M288 -9q-111 0 -170.5 55t-67.5 147h83q6 -33 16.5 -57.5t28.5 -41t44.5 -25t64.5 -8.5q73 0 115 46t42 127q0 76 -40.5 121.5t-109.5 45.5q-108 0 -169 -69h-32v383h402v-75h-330v-218q52 49 146 49q98 0 160 -65t62 -172q0 -110 -70 -177q-71 -66 -175 -66z" />
    <glyph glyph-name="six.tab" 
d="M308 -9q-73 0 -122.5 25.5t-79.5 70t-42.5 103.5t-12.5 126v17q0 189 76 289q76 102 204 102q85 0 140 -44t69 -129h-83q-12 52 -43 77t-89 25q-84 0 -134.5 -73.5t-53.5 -212.5q26 45 74.5 71t109.5 26q105 0 169 -67q65 -68 65 -167q0 -108 -67 -174q-68 -65 -180 -65z
M308 59q36 0 65 12t49.5 34t32 52.5t11.5 68.5q0 78 -43 124t-116 46q-71 0 -118 -44q-46 -43 -46 -114q0 -85 45 -132t120 -47z" />
    <glyph glyph-name="seven.tab" 
d="M166 0l263 645h-359v70h471v-12l-286 -703h-89z" />
    <glyph glyph-name="eight.tab" 
d="M301 -9q-62 0 -116 22q-27 12 -51 30.5t-42 43t-28 54t-10 62.5q0 69 37 116t98 69q-51 20 -79.5 59t-28.5 91q0 83 66 134q67 52 154 52q88 0 153 -52q66 -51 66 -132q0 -103 -110 -151q137 -50 137 -184q0 -101 -74 -158q-74 -56 -172 -56zM301 62q69 0 113 38.5
t44 107.5q0 34 -11.5 60.5t-32.5 44.5t-49.5 27.5t-61.5 9.5q-34 0 -63.5 -9.5t-51 -28t-33.5 -45.5t-12 -61q0 -67 46 -106q47 -38 112 -38zM304 419q58 0 93 31.5t35 88.5q0 25 -10 46.5t-27.5 37.5t-41.5 24.5t-52 8.5q-57 0 -94.5 -32.5t-37.5 -86.5q0 -27 10.5 -49
t28.5 -37t42.5 -23.5t53.5 -8.5z" />
    <glyph glyph-name="nine.tab" 
d="M280 -8q-99 0 -157.5 48t-72.5 136h84q13 -57 47.5 -85t100.5 -28q88 0 135 71t48 213q-26 -45 -75 -70t-110 -25q-104 0 -170 66q-65 67 -65 168q0 109 67 173q67 66 180 66q127 0 192 -82t65 -238v-45q0 -178 -69.5 -273t-199.5 -95zM293 320q36 0 66 11.5t52 31.5
t34 48.5t12 63.5q0 87 -45 134.5t-120 47.5q-36 0 -65 -12t-49.5 -34t-32 -53t-11.5 -68q0 -78 43 -124t116 -46z" />
    <glyph glyph-name="cent.tab" 
d="M285 -135v128q-100 11 -161 81t-61 182v8q0 108 62 182q63 74 160 84v99h59v-99q80 -7 134.5 -51t65.5 -130h-82q-8 51 -39 78.5t-79 33.5v-399q51 7 85.5 39.5t40.5 86.5h77q-7 -77 -64 -134q-55 -53 -139 -61v-128h-59zM149 256q0 -85 36 -134t100 -60v398
q-61 -11 -98.5 -63t-37.5 -133v-8z" />
    <glyph glyph-name="percent.tab" horiz-adv-x="800" 
d="M294 552q0 48 -23 76t-65 28q-40 0 -64 -28q-24 -27 -24 -77q0 -51 23 -77t65 -26t65 26.5t23 77.5zM42 550q0 72 48 122q49 49 116 49q68 0 116 -49q48 -48 48 -120t-49 -121q-50 -48 -115 -48q-66 0 -115 48t-49 119zM143 0l437 715h76l-437 -715h-76zM682 161
q0 48 -23 76t-65 28q-40 0 -64 -28q-24 -27 -24 -77q0 -51 23 -77t65 -26t65 26.5t23 77.5zM430 159q0 72 48 122q49 49 116 49q68 0 116 -49q48 -48 48 -120t-49 -121q-50 -48 -115 -48q-66 0 -115 48t-49 119z" />
    <glyph glyph-name="perthousand.tab" horiz-adv-x="1000" 
d="M180 459q29 0 45 25.5t16 73.5q0 46 -16 72.5t-45 26.5q-61 0 -61 -100q0 -98 61 -98zM180 395q-54 0 -95 44q-40 43 -40 117q0 76 39 120q40 45 96 45q28 0 53 -11.5t43 -32.5t28.5 -51.5t10.5 -67.5q0 -76 -40 -119q-39 -44 -95 -44zM91 0l437 715h76l-437 -715h-76z
M512 56q29 0 45 25.5t16 73.5q0 46 -16 72.5t-45 26.5q-61 0 -61 -100q0 -98 61 -98zM512 -8q-54 0 -95 44q-40 43 -40 117q0 76 39 120q40 45 96 45q28 0 53 -11.5t43 -32.5t28.5 -51.5t10.5 -67.5q0 -76 -40 -119q-39 -44 -95 -44zM820 56q29 0 45 25.5t16 73.5
q0 46 -16 72.5t-45 26.5q-61 0 -61 -100q0 -98 61 -98zM820 -8q-54 0 -95 44q-40 43 -40 117q0 76 39 120q40 45 96 45q28 0 53 -11.5t43 -32.5t28.5 -51.5t10.5 -67.5q0 -76 -40 -119q-39 -44 -95 -44z" />
    <glyph glyph-name="plus.tab" 
d="M264 105v202h-187v70h187v202h73v-202h187v-70h-187v-202h-73z" />
    <glyph glyph-name="minus.tab" 
d="M77 307v70h447v-70h-447z" />
    <glyph glyph-name="multiply.tab" 
d="M146 131l-47 48l154 154l-154 154l47 48l154 -155l154 155l48 -48l-154 -154l154 -154l-48 -48l-154 155z" />
    <glyph glyph-name="divide.tab" 
d="M345 107q-19 -18 -45 -18t-45 18q-19 19 -19 46t19 45q19 19 45 19t45 -19q19 -18 19 -45t-19 -46zM77 307v70h447v-70h-447zM345 485q-19 -18 -45 -18t-45 18q-19 19 -19 46t19 45q19 19 45 19t45 -19q19 -18 19 -45t-19 -46z" />
    <glyph glyph-name="equal.tab" 
d="M98 196v72h404v-72h-404zM98 376v72h404v-72h-404z" />
    <glyph glyph-name="less.tab" 
d="M485 95l-384 217v20l384 217v-80l-263 -147l263 -147v-80z" />
    <glyph glyph-name="greater.tab" 
d="M115 95v80l263 147l-263 147v80l384 -217v-20z" />
    <glyph glyph-name="florin.tab" 
d="M111 345v68h117l23 152q24 159 169 159q37 0 68 -11v-70q-30 12 -66 12q-74 0 -89 -94l-23 -148h142v-68h-152l-80 -527h-83l80 527h-106z" />
    <glyph glyph-name="plusminus.tab" 
d="M264 145v182h-187v70h187v182h73v-182h187v-70h-187v-182h-73zM77 0v70h447v-70h-447z" />
    <glyph glyph-name="notequal.tab" 
d="M98 376v72h215l40 103h76l-40 -103h113v-72h-141l-41 -108h182v-72h-210l-40 -103h-76l40 103h-118v72h146l41 108h-187z" />
    <glyph glyph-name="approxequal.tab" 
d="M95 166q5 58 36 88.5t74 30.5q42 0 104 -22q63 -22 88 -22q17 0 30 11.5t15 34.5h63q-4 -58 -34.5 -88.5t-72.5 -30.5q-44 0 -107 22t-87 22q-17 0 -29.5 -12t-16.5 -34h-63zM95 343q5 58 36 88.5t74 30.5q42 0 104 -22q63 -22 88 -22q17 0 30 11.5t15 34.5h63
q-4 -58 -34.5 -88.5t-72.5 -30.5q-44 0 -107 22t-87 22q-17 0 -29.5 -12t-16.5 -34h-63z" />
    <glyph glyph-name="lessequal.tab" 
d="M485 119l-384 205v20l384 205v-80l-260 -135l260 -135v-80zM101 0v70h384v-70h-384z" />
    <glyph glyph-name="greaterequal.tab" 
d="M115 119v80l260 135l-260 135v80l384 -205v-20zM115 0v70h384v-70h-384z" />
    <glyph glyph-name="parenleft.tab" horiz-adv-x="300" 
d="M188 -148q-136 203 -136 460q0 258 136 461h83q-132 -212 -132 -461t132 -460h-83z" />
    <glyph glyph-name="parenright.tab" horiz-adv-x="300" 
d="M29 -148q132 211 132 460t-132 461h83q136 -203 136 -461q0 -257 -136 -460h-83z" />
    <glyph glyph-name="bracketleft.tab" horiz-adv-x="300" 
d="M70 -148v924h194v-66h-111v-792h111v-66h-194z" />
    <glyph glyph-name="bracketright.tab" horiz-adv-x="300" 
d="M36 -148v66h111v792h-111v66h194v-924h-194z" />
    <glyph glyph-name="braceleft.tab" horiz-adv-x="300" 
d="M264 -147q-100 0 -144.5 49.5t-24.5 158.5l19 104q9 48 -9.5 77t-78.5 43v62q60 14 78.5 43t9.5 77l-19 104q-20 109 24.5 158.5t144.5 49.5v-63q-30 0 -50.5 -7.5t-31.5 -24.5t-13 -45t5 -70l19 -115q9 -54 -17 -85t-81 -53q55 -22 81 -53t17 -85l-19 -115
q-7 -42 -5 -70t13 -45t31.5 -24.5t50.5 -7.5v-63z" />
    <glyph glyph-name="braceright.tab" horiz-adv-x="300" 
d="M36 -84q30 0 50.5 7.5t31.5 24.5t13 45t-5 70l-19 115q-9 54 17 85t81 53q-55 22 -81 53t-17 85l19 115q7 42 5 70t-13 45t-31.5 24.5t-50.5 7.5v63q100 0 144.5 -49.5t24.5 -158.5l-19 -104q-9 -48 9.5 -77t78.5 -43v-62q-60 -14 -78.5 -43t-9.5 -77l19 -104
q20 -109 -24.5 -158.5t-144.5 -49.5v63z" />
    <glyph glyph-name="period.tab" horiz-adv-x="300" 
d="M195 13q-19 -18 -45 -18t-45 18q-19 19 -19 46t19 45q19 19 45 19t45 -19q19 -18 19 -45t-19 -46z" />
    <glyph glyph-name="comma.tab" horiz-adv-x="300" 
d="M99 -123l-54 28l96 219l81 -38z" />
    <glyph glyph-name="colon.tab" horiz-adv-x="300" 
d="M195 13q-19 -18 -45 -18t-45 18q-19 19 -19 46t19 45q19 19 45 19t45 -19q19 -18 19 -45t-19 -46zM195 310q-19 -18 -45 -18t-45 18q-19 19 -19 46t19 45q19 19 45 19t45 -19q19 -18 19 -45t-19 -46z" />
    <glyph glyph-name="semicolon.tab" horiz-adv-x="300" 
d="M79 -123l-54 28l96 219l81 -38zM204 310q-19 -18 -45 -18t-45 18q-19 19 -19 46t19 45q19 19 45 19t45 -19q19 -18 19 -45t-19 -46z" />
    <glyph glyph-name="space.tab" horiz-adv-x="300" 
 />
    <glyph glyph-name="dollar.oldtab" 
d="M272 -131v123q-213 15 -232 219h81q4 -32 11 -54.5t23 -45.5q15 -23 45 -36t72 -17v270q-103 19 -153.5 61t-50.5 125q0 76 57 129q58 54 147 58v88h58v-89q88 -9 140 -57t61 -132h-75q-22 108 -126 122v-242q56 -9 96.5 -24t67 -38t39.5 -55.5t13 -77.5q0 -82 -61 -140
q-61 -57 -155 -64v-123h-58zM465 190q0 27 -6.5 48t-22.5 36t-41.5 25.5t-64.5 18.5v-260q60 6 97.5 42t37.5 90zM144 522q0 -48 26 -77q25 -26 102 -43v233q-60 -5 -94 -36t-34 -77z" />
    <glyph glyph-name="Euro.oldtab" 
d="M35 382v56h59q7 124 69 194t170 70q91 0 145 -53.5t66 -155.5h-80q-20 143 -131 143q-146 0 -155 -198h214l-11 -56h-204v-75h189l-10 -57h-178q10 -190 157 -190q61 0 95.5 38t46.5 117h78q-11 -106 -69 -165t-151 -59q-106 0 -169.5 67t-70.5 192h-60v57h59v75h-59z
" />
    <glyph glyph-name="sterling.oldtab" 
d="M58 306v60h62q-8 35 -12.5 69t-4.5 67q0 89 61 144q62 56 153 56q93 0 146.5 -49t60.5 -134h-81q-11 58 -39.5 86t-86.5 28q-57 0 -92.5 -36t-35.5 -96q0 -64 16 -135h207v-60h-194q15 -74 15 -128q0 -34 -13 -64q25 -6 86 -29q60 -23 81 -23q84 0 89 83h70
q-4 -69 -43 -111.5t-106 -42.5q-23 0 -52.5 7t-66.5 23q-74 31 -96 31q-30 0 -45 -15t-18 -37h-71q2 19 9 38t19.5 35.5t30 28t40.5 16.5q12 28 12 60q0 42 -23 128h-78z" />
    <glyph glyph-name="yen.oldtab" 
d="M102 273v56h151l-196 365h92l160 -315l153 315h81l-184 -365h152v-56h-163v-76h163v-56h-163v-141h-83v141h-163v56h163v76h-163z" />
    <glyph glyph-name="zero.oldtab" 
d="M302 62q78 0 117.5 52t39.5 146v102q0 91 -41 144t-117 53q-78 0 -119 -53t-41 -144v-103q0 -93 41.5 -145t119.5 -52zM302 -9q-111 0 -180 75q-68 76 -68 192v103q0 119 67 192q67 75 180 75q110 0 178 -75q67 -75 67 -190v-103q0 -120 -66 -195q-66 -74 -178 -74z" />
    <glyph glyph-name="one.oldtab" 
d="M319 0v534l-204 -148v80l210 153h79v-619h-85z" />
    <glyph glyph-name="two.oldtab" 
d="M53 0v20l251 234q30 28 52.5 52t37.5 46t22 44t7 47q0 54 -33 85.5t-93 31.5q-127 0 -146 -153h-77q4 50 21.5 90.5t46 69.5t68 45t87.5 16q95 0 154 -51t59 -134q0 -42 -26 -88q-13 -22 -25.5 -39.5t-26.5 -31.5t-35.5 -34.5t-51.5 -48.5l-141 -131h312v-70h-463z" />
    <glyph glyph-name="three.oldtab" 
d="M292 -105q-110 0 -177 62q-65 62 -69 158h79q14 -152 169 -152q81 0 121 37t40 106q0 137 -153 137h-50v71h46q133 0 133 125q0 55 -32 87.5t-95 32.5q-66 0 -107 -37t-48 -100h-75q5 88 67 146q64 60 163 60t154 -55q56 -54 56 -132q0 -113 -109 -158q137 -36 137 -177
q0 -97 -69 -154t-181 -57z" />
    <glyph glyph-name="four.oldtab" 
d="M383 -97v154h-347v28l312 533h118v-494h93v-67h-93v-154h-83zM140 124h243v428z" />
    <glyph glyph-name="five.oldtab" 
d="M296 -105q-108 0 -166.5 53t-66.5 142h79q11 -62 45 -94.5t108 -32.5q70 0 111 45.5t41 124.5q0 36 -10.5 66t-29.5 51.5t-45.5 33.5t-59.5 12q-109 0 -167 -67h-30v390h392v-73h-323v-229q52 47 144 47q94 0 155 -64q61 -62 61 -167q0 -106 -69 -172t-169 -66z" />
    <glyph glyph-name="six.oldtab" 
d="M310 -9q-126 0 -186 84q-31 43 -45.5 99t-14.5 127v50q0 89 18.5 158.5t53 117t83.5 72.5t109 25q82 0 137.5 -43t69.5 -127h-81q-26 101 -132 101q-79 0 -124.5 -74t-48.5 -220q55 94 173 94q102 0 164 -66q61 -64 61 -164q0 -105 -65 -170q-64 -64 -172 -64zM310 58
q65 0 107 45q43 44 43 118q0 37 -11 68t-31 53t-48 34t-61 12q-67 0 -111 -44t-44 -111q0 -84 43.5 -129.5t112.5 -45.5z" />
    <glyph glyph-name="seven.oldtab" 
d="M148 -97l278 647h-358v68h468v-12l-301 -703h-87z" />
    <glyph glyph-name="eight.oldtab" 
d="M301 -9q-92 0 -165 56q-72 55 -72 153q0 69 37 115t98 67q-108 40 -108 154q0 85 62 136q62 52 148 52t147 -52q62 -51 62 -134q0 -111 -110 -155q137 -48 137 -181q0 -99 -71 -155t-165 -56zM301 61q66 0 107.5 38.5t41.5 105.5q0 66 -41.5 103t-105.5 37
q-33 0 -60.5 -10t-48 -28t-32 -44.5t-11.5 -59.5t11.5 -59.5t32 -44.5t47.5 -28t59 -10zM304 413q55 0 87.5 33t32.5 91q0 54 -34.5 87t-88.5 33t-89 -32.5t-35 -89.5q0 -28 9.5 -50.5t27 -38.5t40.5 -24.5t50 -8.5z" />
    <glyph glyph-name="nine.oldtab" 
d="M279 -105q-94 0 -149.5 47.5t-68.5 132.5h81q28 -111 144 -111q85 0 124 71.5t42 222.5q-26 -43 -70 -68.5t-101 -25.5q-100 0 -163 66t-63 164q0 104 66 169q67 65 172 65q63 0 109 -21.5t76 -61t44.5 -96.5t14.5 -127v-57q0 -370 -258 -370zM294 231q66 0 109 43
q44 44 44 112q0 84 -42.5 129.5t-111.5 45.5q-33 0 -60.5 -12t-48 -33.5t-31.5 -51.5t-11 -66q0 -38 11 -68.5t31.5 -52.5t48.5 -34t61 -12z" />
    <glyph glyph-name="zero.num" horiz-adv-x="350" 
d="M176 422q77 0 77 116v14q0 55 -20 85t-58 30q-77 0 -77 -116v-14q0 -115 78 -115zM30 550q0 78 39.5 123.5t105.5 45.5t105.5 -45.5t39.5 -121.5v-14q0 -78 -39 -124t-106 -46t-106 46t-39 122v14z" />
    <glyph glyph-name="one.num" horiz-adv-x="231" 
d="M105 373v276l-81 -54v59l89 61h60v-342h-68z" />
    <glyph glyph-name="two.num" horiz-adv-x="286" 
d="M8 373v11l128 136q54 59 54 97q0 23 -13 36.5t-37 13.5q-53 0 -60 -66h-61q3 57 35.5 87.5t87.5 30.5q54 0 84 -27.5t30 -73.5q0 -58 -66 -122l-73 -72h142v-51h-251z" />
    <glyph glyph-name="three.num" horiz-adv-x="311" 
d="M152 368q-61 0 -95 30t-36 81h61q7 -61 68 -61q63 0 63 54t-60 54h-26v47h25q56 0 56 49q0 21 -13.5 34t-38.5 13q-26 0 -42.5 -14.5t-19.5 -40.5h-61q3 48 36.5 76.5t87.5 28.5t84.5 -26t30.5 -66q0 -55 -57 -74q67 -15 67 -82q0 -48 -35 -75.5t-95 -27.5z" />
    <glyph glyph-name="four.num" horiz-adv-x="317" 
d="M189 373v69h-172v24l153 249h83v-224h45v-49h-45v-69h-64zM89 491h101v173z" />
    <glyph glyph-name="five.num" horiz-adv-x="302" 
d="M145 368q-58 0 -89.5 28t-34.5 76h63q4 -26 17 -39t44 -13q27 0 42.5 18t15.5 49q0 30 -15.5 47.5t-43.5 17.5q-46 0 -70 -29h-36l4 192h210v-52h-159l-1 -92q25 30 75 30q48 0 76.5 -30.5t28.5 -84.5t-35 -86t-92 -32z" />
    <glyph glyph-name="six.num" horiz-adv-x="320" 
d="M165 368q-135 0 -135 161v9q0 87 40 134t106 47q98 0 110 -91h-62q-10 40 -51 40q-35 0 -55 -29.5t-21 -86.5q27 44 84 44q49 0 81 -30t32 -81q0 -54 -34.5 -85.5t-94.5 -31.5zM165 417q28 0 45 18.5t17 47.5q0 30 -17 48.5t-45 18.5q-29 0 -47 -17.5t-18 -45.5
q0 -32 18 -51t47 -19z" />
    <glyph glyph-name="seven.num" horiz-adv-x="268" 
d="M66 373l108 287h-157v55h241v-8l-124 -334h-68z" />
    <glyph glyph-name="eight.num" horiz-adv-x="313" 
d="M156 368q-55 0 -92 26.5t-37 74.5q0 64 63 87q-50 21 -50 71q0 42 34.5 67t82.5 25q24 0 45 -6.5t37 -18.5t25 -28.5t9 -37.5q0 -50 -51 -71q64 -24 64 -86q0 -49 -36.5 -76t-93.5 -27zM219 476q2 18 -7 30.5t-23.5 19t-31.5 6.5t-31.5 -6t-23.5 -19t-7 -32
q-2 -19 7 -31.5t23.5 -18.5t31.5 -6.5t31.5 6t23.5 19.5t7 32zM157 576q24 0 38 13t14 35q0 21 -15 34t-37 13q-23 0 -38 -13t-15 -35t15.5 -34.5t37.5 -12.5z" />
    <glyph glyph-name="nine.num" horiz-adv-x="320" 
d="M151 368q-52 0 -83 25t-37 70h63q10 -43 57 -43q72 0 74 114q-28 -43 -83 -43q-51 0 -82.5 30t-31.5 81q0 54 34 86t94 32q67 0 101.5 -42t34.5 -118v-17q0 -85 -36 -130t-105 -45zM220 600q0 33 -17.5 52t-46.5 19q-27 0 -45 -19q-8 -9 -12.5 -22t-4.5 -26.5t4 -26
t13 -21.5q13 -15 32.5 -17.5t37.5 4t29.5 21.5t9.5 36z" />
    <glyph glyph-name="zero.den" horiz-adv-x="350" 
d="M176 49q77 0 77 116v14q0 55 -20 85t-58 30q-77 0 -77 -116v-14q0 -115 78 -115zM30 177q0 78 39.5 123.5t105.5 45.5t105.5 -45.5t39.5 -121.5v-14q0 -78 -39 -124t-106 -46t-106 46t-39 122v14z" />
    <glyph glyph-name="one.den" horiz-adv-x="232" 
d="M105 0v276l-81 -54v59l89 61h60v-342h-68z" />
    <glyph glyph-name="two.den" horiz-adv-x="287" 
d="M8 0v11l128 136q54 59 54 97q0 23 -13 36.5t-37 13.5q-53 0 -60 -66h-61q3 57 35.5 87.5t87.5 30.5q54 0 84 -27.5t30 -73.5q0 -58 -66 -122l-73 -72h142v-51h-251z" />
    <glyph glyph-name="three.den" horiz-adv-x="312" 
d="M152 -5q-61 0 -95 30t-36 81h61q7 -61 68 -61q63 0 63 54t-60 54h-26v47h25q56 0 56 49q0 21 -13.5 34t-38.5 13q-26 0 -42.5 -14.5t-19.5 -40.5h-61q3 48 36.5 76.5t87.5 28.5t84.5 -26t30.5 -66q0 -55 -57 -74q67 -15 67 -82q0 -48 -35 -75.5t-95 -27.5z" />
    <glyph glyph-name="four.den" horiz-adv-x="318" 
d="M189 0v69h-172v24l153 249h83v-224h45v-49h-45v-69h-64zM89 118h101v173z" />
    <glyph glyph-name="five.den" horiz-adv-x="303" 
d="M145 -5q-58 0 -89.5 28t-34.5 76h63q4 -26 17 -39t44 -13q27 0 42.5 18t15.5 49q0 30 -15.5 47.5t-43.5 17.5q-46 0 -70 -29h-36l4 192h210v-52h-159l-1 -92q25 30 75 30q48 0 76.5 -30.5t28.5 -84.5t-35 -86t-92 -32z" />
    <glyph glyph-name="six.den" horiz-adv-x="321" 
d="M165 -5q-135 0 -135 161v9q0 87 40 134t106 47q98 0 110 -91h-62q-10 40 -51 40q-35 0 -55 -29.5t-21 -86.5q27 44 84 44q49 0 81 -30t32 -81q0 -54 -34.5 -85.5t-94.5 -31.5zM165 44q28 0 45 18.5t17 47.5q0 30 -17 48.5t-45 18.5q-29 0 -47 -17.5t-18 -45.5
q0 -32 18 -51t47 -19z" />
    <glyph glyph-name="seven.den" horiz-adv-x="269" 
d="M66 0l108 287h-157v55h241v-8l-124 -334h-68z" />
    <glyph glyph-name="eight.den" horiz-adv-x="314" 
d="M156 -5q-55 0 -92 26.5t-37 74.5q0 64 63 87q-50 21 -50 71q0 42 34.5 67t82.5 25q24 0 45 -6.5t37 -18.5t25 -28.5t9 -37.5q0 -50 -51 -71q64 -24 64 -86q0 -49 -36.5 -76t-93.5 -27zM219 103q2 18 -7 30.5t-23.5 19t-31.5 6.5t-31.5 -6t-23.5 -19t-7 -32
q-2 -19 7 -31.5t23.5 -18.5t31.5 -6.5t31.5 6t23.5 19.5t7 32zM157 203q24 0 38 13t14 35q0 21 -15 34t-37 13q-23 0 -38 -13t-15 -35t15.5 -34.5t37.5 -12.5z" />
    <glyph glyph-name="nine.den" horiz-adv-x="321" 
d="M151 -5q-52 0 -83 25t-37 70h63q10 -43 57 -43q72 0 74 114q-28 -43 -83 -43q-51 0 -82.5 30t-31.5 81q0 54 34 86t94 32q67 0 101.5 -42t34.5 -118v-17q0 -85 -36 -130t-105 -45zM220 227q0 33 -17.5 52t-46.5 19q-27 0 -45 -19q-8 -9 -12.5 -22t-4.5 -26.5t4 -26
t13 -21.5q13 -15 32.5 -17.5t37.5 4t29.5 21.5t9.5 36z" />
    <glyph glyph-name="zero.sub" horiz-adv-x="350" 
d="M176 -37q77 0 77 116v14q0 55 -20 85t-58 30q-77 0 -77 -116v-14q0 -115 78 -115zM30 91q0 78 39.5 123.5t105.5 45.5t105.5 -45.5t39.5 -121.5v-14q0 -78 -39 -124t-106 -46t-106 46t-39 122v14z" />
    <glyph glyph-name="one.sub" horiz-adv-x="232" 
d="M105 -87v276l-81 -54v59l89 61h60v-342h-68z" />
    <glyph glyph-name="two.sub" horiz-adv-x="287" 
d="M8 -86v11l128 136q54 59 54 97q0 23 -13 36.5t-37 13.5q-53 0 -60 -66h-61q3 57 35.5 87.5t87.5 30.5q54 0 84 -27.5t30 -73.5q0 -58 -66 -122l-73 -72h142v-51h-251z" />
    <glyph glyph-name="three.sub" horiz-adv-x="312" 
d="M152 -91q-61 0 -95 30t-36 81h61q7 -61 68 -61q63 0 63 54t-60 54h-26v47h25q56 0 56 49q0 21 -13.5 34t-38.5 13q-26 0 -42.5 -14.5t-19.5 -40.5h-61q3 48 36.5 76.5t87.5 28.5t84.5 -26t30.5 -66q0 -55 -57 -74q67 -15 67 -82q0 -48 -35 -75.5t-95 -27.5z" />
    <glyph glyph-name="four.sub" horiz-adv-x="318" 
d="M189 -86v69h-172v24l153 249h83v-224h45v-49h-45v-69h-64zM89 32h101v173z" />
    <glyph glyph-name="five.sub" horiz-adv-x="303" 
d="M145 -91q-58 0 -89.5 28t-34.5 76h63q4 -26 17 -39t44 -13q27 0 42.5 18t15.5 49q0 30 -15.5 47.5t-43.5 17.5q-46 0 -70 -29h-36l4 192h210v-52h-159l-1 -92q25 30 75 30q48 0 76.5 -30.5t28.5 -84.5t-35 -86t-92 -32z" />
    <glyph glyph-name="six.sub" horiz-adv-x="321" 
d="M165 -91q-135 0 -135 161v9q0 87 40 134t106 47q98 0 110 -91h-62q-10 40 -51 40q-35 0 -55 -29.5t-21 -86.5q27 44 84 44q49 0 81 -30t32 -81q0 -54 -34.5 -85.5t-94.5 -31.5zM165 -42q28 0 45 18.5t17 47.5q0 30 -17 48.5t-45 18.5q-29 0 -47 -17.5t-18 -45.5
q0 -32 18 -51t47 -19z" />
    <glyph glyph-name="seven.sub" horiz-adv-x="269" 
d="M66 -86l108 287h-157v55h241v-8l-124 -334h-68z" />
    <glyph glyph-name="eight.sub" horiz-adv-x="314" 
d="M156 -91q-55 0 -92 26.5t-37 74.5q0 64 63 87q-50 21 -50 71q0 42 34.5 67t82.5 25q24 0 45 -6.5t37 -18.5t25 -28.5t9 -37.5q0 -50 -51 -71q64 -24 64 -86q0 -49 -36.5 -76t-93.5 -27zM219 17q2 18 -7 30.5t-23.5 19t-31.5 6.5t-31.5 -6t-23.5 -19t-7 -32
q-2 -19 7 -31.5t23.5 -18.5t31.5 -6.5t31.5 6t23.5 19.5t7 32zM157 117q24 0 38 13t14 35q0 21 -15 34t-37 13q-23 0 -38 -13t-15 -35t15.5 -34.5t37.5 -12.5z" />
    <glyph glyph-name="nine.sub" horiz-adv-x="321" 
d="M151 -91q-52 0 -83 25t-37 70h63q10 -43 57 -43q72 0 74 114q-28 -43 -83 -43q-51 0 -82.5 30t-31.5 81q0 54 34 86t94 32q67 0 101.5 -42t34.5 -118v-17q0 -85 -36 -130t-105 -45zM220 141q0 33 -17.5 52t-46.5 19q-27 0 -45 -19q-8 -9 -12.5 -22t-4.5 -26.5t4 -26
t13 -21.5q13 -15 32.5 -17.5t37.5 4t29.5 21.5t9.5 36z" />
    <glyph glyph-name="plus.sub" horiz-adv-x="339" 
d="M142 -49v105h-101v53h101v106h55v-106h101v-53h-101v-105h-55z" />
    <glyph glyph-name="minus.sub" horiz-adv-x="339" 
d="M41 56v53h257v-53h-257z" />
    <glyph glyph-name="zero.sup" horiz-adv-x="350" 
d="M176 480q77 0 77 116v14q0 55 -20 85t-58 30q-77 0 -77 -116v-14q0 -115 78 -115zM30 608q0 78 39.5 123.5t105.5 45.5t105.5 -45.5t39.5 -121.5v-14q0 -78 -39 -124t-106 -46t-106 46t-39 122v14z" />
    <glyph glyph-name="one.sup" horiz-adv-x="232" 
d="M105 431v276l-81 -54v59l89 61h60v-342h-68z" />
    <glyph glyph-name="two.sup" horiz-adv-x="287" 
d="M8 431v11l128 136q54 59 54 97q0 23 -13 36.5t-37 13.5q-53 0 -60 -66h-61q3 57 35.5 87.5t87.5 30.5q54 0 84 -27.5t30 -73.5q0 -58 -66 -122l-73 -72h142v-51h-251z" />
    <glyph glyph-name="three.sup" horiz-adv-x="312" 
d="M152 426q-61 0 -95 30t-36 81h61q7 -61 68 -61q63 0 63 54t-60 54h-26v47h25q56 0 56 49q0 21 -13.5 34t-38.5 13q-26 0 -42.5 -14.5t-19.5 -40.5h-61q3 48 36.5 76.5t87.5 28.5t84.5 -26t30.5 -66q0 -55 -57 -74q67 -15 67 -82q0 -48 -35 -75.5t-95 -27.5z" />
    <glyph glyph-name="four.sup" horiz-adv-x="318" 
d="M189 431v69h-172v24l153 249h83v-224h45v-49h-45v-69h-64zM89 549h101v173z" />
    <glyph glyph-name="five.sup" horiz-adv-x="303" 
d="M145 426q-58 0 -89.5 28t-34.5 76h63q4 -26 17 -39t44 -13q27 0 42.5 18t15.5 49q0 30 -15.5 47.5t-43.5 17.5q-46 0 -70 -29h-36l4 192h210v-52h-159l-1 -92q25 30 75 30q48 0 76.5 -30.5t28.5 -84.5t-35 -86t-92 -32z" />
    <glyph glyph-name="six.sup" horiz-adv-x="321" 
d="M165 426q-135 0 -135 161v9q0 87 40 134t106 47q98 0 110 -91h-62q-10 40 -51 40q-35 0 -55 -29.5t-21 -86.5q27 44 84 44q49 0 81 -30t32 -81q0 -54 -34.5 -85.5t-94.5 -31.5zM165 475q28 0 45 18.5t17 47.5q0 30 -17 48.5t-45 18.5q-29 0 -47 -17.5t-18 -45.5
q0 -32 18 -51t47 -19z" />
    <glyph glyph-name="seven.sup" horiz-adv-x="269" 
d="M66 431l108 287h-157v55h241v-8l-124 -334h-68z" />
    <glyph glyph-name="eight.sup" horiz-adv-x="314" 
d="M156 426q-55 0 -92 26.5t-37 74.5q0 64 63 87q-50 21 -50 71q0 42 34.5 67t82.5 25q24 0 45 -6.5t37 -18.5t25 -28.5t9 -37.5q0 -50 -51 -71q64 -24 64 -86q0 -49 -36.5 -76t-93.5 -27zM219 534q2 18 -7 30.5t-23.5 19t-31.5 6.5t-31.5 -6t-23.5 -19t-7 -32
q-2 -19 7 -31.5t23.5 -18.5t31.5 -6.5t31.5 6t23.5 19.5t7 32zM157 634q24 0 38 13t14 35q0 21 -15 34t-37 13q-23 0 -38 -13t-15 -35t15.5 -34.5t37.5 -12.5z" />
    <glyph glyph-name="nine.sup" horiz-adv-x="321" 
d="M151 426q-52 0 -83 25t-37 70h63q10 -43 57 -43q72 0 74 114q-28 -43 -83 -43q-51 0 -82.5 30t-31.5 81q0 54 34 86t94 32q67 0 101.5 -42t34.5 -118v-17q0 -85 -36 -130t-105 -45zM220 658q0 33 -17.5 52t-46.5 19q-27 0 -45 -19q-8 -9 -12.5 -22t-4.5 -26.5t4 -26
t13 -21.5q13 -15 32.5 -17.5t37.5 4t29.5 21.5t9.5 36z" />
    <glyph glyph-name="plus.sup" horiz-adv-x="339" 
d="M142 469v105h-101v53h101v106h55v-106h101v-53h-101v-105h-55z" />
    <glyph glyph-name="minus.sup" horiz-adv-x="339" 
d="M41 574v53h257v-53h-257z" />
    <glyph glyph-name="a.alt" horiz-adv-x="615" 
d="M276 -9q-96 0 -164 71q-67 70 -67 189v8q0 118 69 195q70 78 170 78q110 0 164 -91v82h83v-523h-83v88q-23 -41 -72 -69t-100 -28zM285 60q36 0 66 13t52.5 38t35 62t12.5 85v8q0 97 -43 147t-116 50t-117 -53t-44 -147v-8q0 -47 11.5 -83.5t32.5 -61t49 -37.5t61 -13z
" />
    <glyph glyph-name="t.alt" horiz-adv-x="338" 
d="M109 0v453h-82v70h82v119h83v-119h115v-70h-115v-453h-83z" />
    <glyph glyph-name="germandbls.alt" horiz-adv-x="615" 
d="M407 -9q-74 0 -120.5 40.5t-48.5 109.5h80q2 -36 24.5 -58.5t64.5 -22.5q86 0 86 89q0 18 -7 33t-24 29q-16 14 -29 22.5t-38 23.5q-15 9 -25.5 15t-19.5 12t-17.5 12.5t-18.5 15.5q-39 35 -39 87q0 36 23 64t50.5 52.5t50.5 49.5t23 56q0 42 -29 64.5t-83 22.5
q-69 0 -106 -40t-37 -118v-550h-83v546q0 103 64 166q64 64 162 64q81 0 136 -41q55 -40 55 -111q0 -39 -23 -73.5t-51 -54.5q-27 -20 -50 -45t-23 -49q0 -17 18 -32l34 -23q9 -6 25.5 -15.5t28.5 -17.5q54 -35 86.5 -72.5t32.5 -90.5q0 -76 -47 -118t-125 -42z" />
    <glyph glyph-name="aacute.alt" horiz-adv-x="615" 
d="M276 -9q-96 0 -164 71q-67 70 -67 189v8q0 118 69 195q70 78 170 78q110 0 164 -91v82h83v-523h-83v88q-23 -41 -72 -69t-100 -28zM285 60q36 0 66 13t52.5 38t35 62t12.5 85v8q0 97 -43 147t-116 50t-117 -53t-44 -147v-8q0 -47 11.5 -83.5t32.5 -61t49 -37.5t61 -13z
M261 613l62 147h104l-104 -147h-62z" />
    <glyph glyph-name="abreve.alt" horiz-adv-x="615" 
d="M276 -9q-96 0 -164 71q-67 70 -67 189v8q0 118 69 195q70 78 170 78q110 0 164 -91v82h83v-523h-83v88q-23 -41 -72 -69t-100 -28zM285 60q36 0 66 13t52.5 38t35 62t12.5 85v8q0 97 -43 147t-116 50t-117 -53t-44 -147v-8q0 -47 11.5 -83.5t32.5 -61t49 -37.5t61 -13z
M232 751q10 -64 66 -64q59 0 72 64h64q-3 -58 -43 -95q-38 -37 -93 -37q-27 0 -50.5 10t-41 27.5t-28.5 41.5t-12 53h66z" />
    <glyph glyph-name="acircumflex.alt" horiz-adv-x="615" 
d="M276 -9q-96 0 -164 71q-67 70 -67 189v8q0 118 69 195q70 78 170 78q110 0 164 -91v82h83v-523h-83v88q-23 -41 -72 -69t-100 -28zM285 60q36 0 66 13t52.5 38t35 62t12.5 85v8q0 97 -43 147t-116 50t-117 -53t-44 -147v-8q0 -47 11.5 -83.5t32.5 -61t49 -37.5t61 -13z
M155 613l108 144h75l107 -144h-61l-85 75l-85 -75h-59z" />
    <glyph glyph-name="adieresis.alt" horiz-adv-x="615" 
d="M276 -9q-96 0 -164 71q-67 70 -67 189v8q0 118 69 195q70 78 170 78q110 0 164 -91v82h83v-523h-83v88q-23 -41 -72 -69t-100 -28zM285 60q36 0 66 13t52.5 38t35 62t12.5 85v8q0 97 -43 147t-116 50t-117 -53t-44 -147v-8q0 -47 11.5 -83.5t32.5 -61t49 -37.5t61 -13z
M245 649q-15 -15 -37 -15.5t-38 15.5t-15.5 38t15.5 37q16 16 37.5 16t37.5 -16t16 -37.5t-16 -37.5zM433 649q-15 -15 -37 -15.5t-38 15.5t-15.5 38t15.5 37q16 16 37.5 16t37.5 -16t16 -37.5t-16 -37.5z" />
    <glyph glyph-name="agrave.alt" horiz-adv-x="615" 
d="M276 -9q-96 0 -164 71q-67 70 -67 189v8q0 118 69 195q70 78 170 78q110 0 164 -91v82h83v-523h-83v88q-23 -41 -72 -69t-100 -28zM285 60q36 0 66 13t52.5 38t35 62t12.5 85v8q0 97 -43 147t-116 50t-117 -53t-44 -147v-8q0 -47 11.5 -83.5t32.5 -61t49 -37.5t61 -13z
M276 613l-104 147h104l62 -147h-62z" />
    <glyph glyph-name="amacron.alt" horiz-adv-x="615" 
d="M276 -9q-96 0 -164 71q-67 70 -67 189v8q0 118 69 195q70 78 170 78q110 0 164 -91v82h83v-523h-83v88q-23 -41 -72 -69t-100 -28zM285 60q36 0 66 13t52.5 38t35 62t12.5 85v8q0 97 -43 147t-116 50t-117 -53t-44 -147v-8q0 -47 11.5 -83.5t32.5 -61t49 -37.5t61 -13z
M169 648v64h262v-64h-262z" />
    <glyph glyph-name="aogonek.alt" horiz-adv-x="615" 
d="M479 -182q-48 0 -76 21.5t-28 58.5q0 61 73 100v90q-23 -41 -72 -69t-100 -28q-96 0 -164 71q-67 70 -67 189v8q0 118 69 195q70 78 170 78q110 0 164 -91v82h83v-518q-77 -47 -77 -91q0 -36 38 -36q30 0 52 11v-59q-29 -12 -65 -12zM285 60q36 0 66 13t52.5 38t35 62
t12.5 85v8q0 97 -43 147t-116 50t-117 -53t-44 -147v-8q0 -47 11.5 -83.5t32.5 -61t49 -37.5t61 -13z" />
    <glyph glyph-name="aring.alt" horiz-adv-x="615" 
d="M276 -9q-96 0 -164 71q-67 70 -67 189v8q0 118 69 195q70 78 170 78q110 0 164 -91v82h83v-523h-83v88q-23 -41 -72 -69t-100 -28zM285 60q36 0 66 13t52.5 38t35 62t12.5 85v8q0 97 -43 147t-116 50t-117 -53t-44 -147v-8q0 -47 11.5 -83.5t32.5 -61t49 -37.5t61 -13z
M256 660q15 -16 38 -16t38 16q16 17 15.5 42t-15.5 41q-16 17 -38 17t-38 -17q-15 -16 -15.5 -41t15.5 -42zM369 628q-32 -30 -75 -30q-45 0 -76 30q-15 15 -23 34.5t-8 39.5t8 39t23 34q31 31 76 31q42 0 75 -31q32 -31 32 -73.5t-32 -73.5z" />
    <glyph glyph-name="aringacute.alt" horiz-adv-x="615" 
d="M276 -9q-96 0 -164 71q-67 70 -67 189v8q0 118 69 195q70 78 170 78q110 0 164 -91v82h83v-523h-83v88q-23 -41 -72 -69t-100 -28zM285 60q36 0 66 13t52.5 38t35 62t12.5 85v8q0 97 -43 147t-116 50t-117 -53t-44 -147v-8q0 -47 11.5 -83.5t32.5 -61t49 -37.5t61 -13z
M256 640q15 -16 38 -16t38 16q16 17 15.5 42t-15.5 41q-16 17 -38 17t-38 -17q-15 -16 -15.5 -41t15.5 -42zM369 608q-32 -30 -75 -30q-45 0 -76 30q-15 15 -23 34.5t-8 39.5t8 39t23 34q31 31 76 31q42 0 75 -31q32 -31 32 -73.5t-32 -73.5zM268 829l56 127h104l-98 -127
h-62z" />
    <glyph glyph-name="atilde.alt" horiz-adv-x="615" 
d="M276 -9q-96 0 -164 71q-67 70 -67 189v8q0 118 69 195q70 78 170 78q110 0 164 -91v82h83v-523h-83v88q-23 -41 -72 -69t-100 -28zM285 60q36 0 66 13t52.5 38t35 62t12.5 85v8q0 97 -43 147t-116 50t-117 -53t-44 -147v-8q0 -47 11.5 -83.5t32.5 -61t49 -37.5t61 -13z
M352 619q-23 0 -59 21q-35 22 -49 22t-25 -12.5t-15 -32.5h-60q6 54 34 85t67 31q22 0 58 -22q34 -21 49 -21q14 0 25 12.5t15 32.5h60q-6 -54 -33.5 -85t-66.5 -31z" />
    <glyph glyph-name="tbar.alt" horiz-adv-x="338" 
d="M27 279v60h82v114h-82v70h82v119h83v-119h115v-70h-115v-114h115v-60h-115v-279h-83v279h-82z" />
    <glyph glyph-name="tcaron.alt" horiz-adv-x="338" 
d="M109 0v453h-82v70h82v119h83v-119h115v-70h-115v-453h-83zM255 598l12 175h94l-48 -175h-58z" />
    <glyph glyph-name="tcommaaccent.alt" horiz-adv-x="338" 
d="M116 -220l-51 26l58 157l80 -24zM109 0v453h-82v70h82v119h83v-119h115v-70h-115v-453h-83z" />
    <glyph glyph-name="f.short" horiz-adv-x="331" 
d="M102 0v453h-75v70h75v85q0 81 39 124.5t115 43.5q35 0 57 -8v-70q-23 9 -54 9q-74 0 -74 -90v-94h128v-70h-128v-453h-83z" />
    <glyph glyph-name="f_f.short" horiz-adv-x="619" 
d="M102 0v453h-75v70h75v78q0 81 39 124.5t117 43.5q33 0 62 -10v-70q-30 11 -59 11q-76 0 -76 -90v-87h205v85q0 81 39 124.5t115 43.5q35 0 57 -8v-70q-23 9 -54 9q-74 0 -74 -90v-94h128v-70h-128v-453h-83v453h-205v-453h-83z" />
    <glyph glyph-name="questiondown.uc" horiz-adv-x="489" 
d="M310 513v-50q0 -38 -18 -74q-19 -37 -34 -54q-8 -9 -21 -22l-30 -30q-24 -24 -37 -40q-13 -15 -24.5 -37.5t-11.5 -45.5q0 -46 26.5 -73t80.5 -27q57 0 92.5 35t40.5 95h78q-5 -89 -63 -144t-149 -55q-48 0 -83.5 13t-59 35.5t-35.5 52.5t-12 65t16 67q16 34 33 51
q16 18 49 49l25 25l19 19q15 17 29.5 45t14.5 57v43h74zM230 701q19 19 45 19t45 -19q19 -18 19 -45t-19 -46q-19 -18 -45 -18t-45 18q-19 19 -19 46t19 45z" />
    <glyph glyph-name="exclamdown.uc" horiz-adv-x="288" 
d="M97 0l14 513h64l14 -513h-92zM189 610q-19 -18 -45 -18t-45 18q-19 19 -19 46t19 45q19 19 45 19t45 -19q19 -18 19 -45t-19 -46z" />
    <glyph glyph-name="hyphen.uc" horiz-adv-x="364" 
d="M60 288v78h244v-78h-244z" />
    <glyph glyph-name="endash.uc" horiz-adv-x="526" 
d="M45 291v70h436v-70h-436z" />
    <glyph glyph-name="emdash.uc" horiz-adv-x="885" 
d="M45 291v70h795v-70h-795z" />
    <glyph glyph-name="guilsinglleft.uc" horiz-adv-x="322" 
d="M189 113l-130 188l130 188h82l-125 -188l125 -188h-82z" />
    <glyph glyph-name="guilsinglright.uc" horiz-adv-x="322" 
d="M51 113l125 188l-125 188h82l130 -188l-130 -188h-82z" />
    <glyph glyph-name="guillemotleft.uc" horiz-adv-x="500" 
d="M189 113l-130 188l130 188h82l-125 -188l125 -188h-82zM367 113l-130 188l130 188h82l-125 -188l125 -188h-82z" />
    <glyph glyph-name="guillemotright.uc" horiz-adv-x="500" 
d="M51 113l125 188l-125 188h82l130 -188l-130 -188h-82zM229 113l125 188l-125 188h82l130 -188l-130 -188h-82z" />
    <glyph glyph-name="parenleft.uc" horiz-adv-x="322" 
d="M220 -98q-71 82 -117 198q-46 114 -46 242t46 242q47 117 117 199h82q-69 -87 -114 -202q-44 -117 -44 -239q0 -126 44 -239q22 -57 50.5 -107t63.5 -94h-82z" />
    <glyph glyph-name="parenright.uc" horiz-adv-x="322" 
d="M20 -98q70 89 113 202q45 115 45 239q0 63 -11.5 122t-33.5 116q-46 117 -113 202h82q70 -83 117 -198q46 -114 46 -242q0 -129 -46 -243q-47 -116 -117 -198h-82z" />
    <glyph glyph-name="bracketleft.uc" horiz-adv-x="356" 
d="M88 -84v862h224v-66h-141v-730h141v-66h-224z" />
    <glyph glyph-name="bracketright.uc" horiz-adv-x="356" 
d="M44 -84v66h141v730h-141v66h224v-862h-224z" />
    <glyph glyph-name="braceleft.uc" horiz-adv-x="381" 
d="M337 -87q-115 0 -164 44t-34 147l14 95q4 25 0 46.5t-17 37t-36.5 24t-59.5 8.5v62q36 0 59.5 8.5t36.5 24t17 36.5t0 47l-14 95q-15 103 34 147t164 44v-63q-38 0 -63 -6.5t-39 -21.5t-18 -40t1 -62l14 -106q13 -106 -98 -134q111 -28 98 -134l-14 -106q-5 -38 -1 -62.5
t18 -39.5t39 -21.5t63 -6.5v-63z" />
    <glyph glyph-name="braceright.uc" horiz-adv-x="381" 
d="M44 -24q37 0 62.5 6.5t39.5 21.5t18 39.5t-1 62.5l-14 106q-13 106 98 134q-111 28 -98 134l14 106q5 37 1 62t-18 40t-39.5 21.5t-62.5 6.5v63q115 0 164 -44t34 -147l-14 -95q-8 -51 17 -83.5t96 -32.5v-62q-71 0 -96 -32.5t-17 -83.5l14 -95q15 -103 -34 -147
t-164 -44v63z" />
    <glyph glyph-name="slash.uc" horiz-adv-x="403" 
d="M24 -84l273 862h76l-273 -862h-76z" />
    <glyph glyph-name="backslash.uc" horiz-adv-x="403" 
d="M302 -84l-272 862h76l272 -862h-76z" />
    <glyph glyph-name="bar.uc" horiz-adv-x="253" 
d="M93 -84v862h67v-862h-67z" />
    <glyph glyph-name="at.uc" horiz-adv-x="915" 
d="M459 -58q-124 0 -218 56q-94 57 -139 144.5t-45 193.5q0 177 121 295q121 120 292 120q169 0 279 -102q109 -102 109 -253q0 -66 -17.5 -115.5t-45.5 -77.5q-56 -54 -120 -54q-55 0 -80 21t-31 63q-22 -39 -61 -65t-84 -26q-72 0 -114 45.5t-42 123.5q0 97 55 161t136 64
q91 0 117 -66l7 58h83l-29 -244q-9 -77 44 -77q46 0 77.5 46.5t31.5 140.5q0 131 -84 211q-83 79 -231 79t-242 -96q-93 -96 -93 -250q0 -141 84 -235q85 -94 240 -94q39 0 70.5 4.5t58.5 13.5t51 23t47 34h77q-37 -64 -120 -103q-81 -39 -184 -39zM437 204q49 0 86 43
q38 44 38 116q0 54 -26.5 81.5t-74.5 27.5t-80.5 -42.5t-32.5 -117.5q0 -51 25 -79.5t65 -28.5z" />
    </font>
</defs>
</svg>
