<svg version="1.0" xmlns="http://www.w3.org/2000/svg" width="32" height="32" viewBox="0 0 512 512"><path d="M223 5.6c-89 12.1-165.2 70-199.4 151.5C10 189.7 4 219.8 4 256c0 29 3.2 51 11.1 75.7 12.9 40.2 33 73.4 62.4 102.9 13.3 13.4 22.8 21.1 39.2 32.1 32.1 21.4 72.6 36 111.5 40.2 14.4 1.6 45.7 1.4 59.5-.4C403.4 491.4 492.5 401.6 506.6 286c2.3-18.7 1.5-54.5-1.5-71.3-5.8-32.5-16-60.7-31.8-87.3C433.2 59.8 365.1 15.2 287 5.5c-15.6-1.9-49.5-1.8-64 .1zm81 48c50.1 7.2 98.9 34.5 131.8 73.9 31.5 37.6 48.2 84.9 48.2 136.2 0 54.3-23.4 110.1-63.4 151.2-20.1 20.6-38.4 33.9-64.1 46.6-34 16.9-69.6 24.5-108 23.2-34.5-1.2-62.4-8.1-93-23.1-25.4-12.5-43.6-25.8-64.1-46.7-26.5-27.3-45.1-59.4-55.9-96.7-4.5-15.9-4.5-18.7.1-5.2 7.3 21.6 20.6 46.2 35.3 65 43.1 55.5 114.2 87.7 181.4 82.1 93.5-7.7 165.4-73.2 178.3-162.1 2.2-15.6 1.5-42.1-1.5-57.2-13.4-66.7-61.3-116-126.4-130-14.8-3.2-41.7-3.1-56.7.1-56.1 12-96.9 51.5-107.4 104.1-8.8 44.4 9.2 91.1 44.4 115 19.7 13.4 43.3 19.6 64.7 17.1 33.4-4 60.2-25.1 69.2-54.6 9.7-31.5-6.2-64.6-34.4-72-18.8-4.9-33.5 3.9-33.5 20 0 6 1.9 10.4 6.8 15.4 5.2 5.4 7.2 9.8 7.2 16 0 6.2-2.5 11.6-7.4 15.9-7.6 6.7-21.7 6.9-34.4.7-23.9-11.9-34.8-41.6-25.8-70 3.7-11.7 8.9-19.8 19.1-30.1 7.9-7.9 10.5-9.8 19.5-14.3 14.8-7.2 23.4-9.3 39.5-9.3 15.9-.1 26.5 2.2 40.1 8.6 16.8 8 28.7 17.6 39.5 31.9 25.8 34.3 29.9 81 10.4 121.5-6.9 14.5-13.9 24.5-24.5 35.3-10.6 10.7-21.8 19.1-34.6 25.7-13 6.6-20.8 9.5-35.1 12.8-10.8 2.6-13.5 2.8-31.3 2.8-16.3 0-21.2-.4-29.7-2.2-63.9-13.8-112-63.8-125.5-130.4-2-9.7-2.3-14.3-2.3-32.8 0-16 .5-23.8 1.7-30.5C95.1 139.3 143.5 84.1 210 61.9c16.8-5.6 32.5-8.7 52-10.3 7.9-.7 31.2.4 42 2z"/></svg>
