<svg version="1.0" xmlns="http://www.w3.org/2000/svg" width="1600" height="626.667" fill="#0012b4" viewBox="0 0 1200 470"><path d="M443.8 1.5c-24 5.9-43.9 23.2-55.8 48.9-21.6 46.3-22.3 128.9-2 230.6l3.9 19.5-2.7 3c-1.6 1.6-7 7.6-12.1 13.2-15.7 17.4-40.5 38.4-61.6 52.4-29 19.2-55.2 31.1-81.5 37-12.5 2.8-31.6 3.1-41 .6-19.4-5.2-34.3-19.2-43.7-41.1l-2.1-5.1 22.6-.6c38.6-1.1 66.2-6.6 96.8-19.4 14.4-6.1 26.1-14 37.5-25.4 15.5-15.4 25.1-32 30.6-52.9 3.5-13.2 3.7-34.5.4-46.7-11.6-43.4-50.9-65.2-107.2-59.4-54.5 5.5-100.5 34.5-126.3 79.5-7.9 13.6-16 35.5-20 53.5l-.6 2.6-22.7-3.4c-14-2.1-25-3.2-28.4-3-11 .9-19.9 6.8-24.6 16.5-2.4 4.8-2.8 6.9-2.8 13.7.1 9.2 2.3 14.9 8.3 21.1 6.3 6.5 11 7.9 41.5 12.4 15.3 2.2 28.1 4 28.5 4 .4 0 1.3 2.6 2.1 5.7.7 3.2 2.9 10.5 4.8 16.2 17.1 51.4 52.4 84.5 98.7 92.6 11.7 2 38 2 50.6 0 41.9-6.8 86.6-27.6 130.5-60.5 13.7-10.3 27.2-21.6 36.7-30.8 4-3.9 5.9-5.1 6.2-4.1.2.8 1.9 6.1 3.6 11.9 13.3 44.2 34.2 71.8 61.3 81.2 8.8 3 24.1 3.6 34.2 1.3 15.5-3.4 35-15.6 49.2-30.9 15-16 31.4-39.9 42.3-61.5l3.2-6.5 2.5 9.5c6.8 26.3 19 47.4 35 60.2 18.8 15.1 40.5 25.5 63.3 30.4 6.8 1.4 12.8 1.8 29.5 1.7 20.1-.1 21.5-.2 32.5-3.1 42.7-11.3 74.2-38.4 85.2-73.3 2-6.5 2.3-9.6 2.3-22.5 0-14.3-.2-15.4-3.1-23.7-4.2-11.7-11.3-22.8-20.4-31.8-9.5-9.5-19.7-16.5-36.3-24.9-16.9-8.5-26.4-14.9-35.4-23.6-10.6-10.5-10.6-13.4 0-21.4 27.1-20.5 89.5-33.6 144.1-30.2 81.8 5 128.7 16.3 149.1 35.9 4.6 4.3 10.5 11.8 10.5 13.2 0 .4-7.3 1-16.2 1.4-59.4 2.5-94.9 11.3-125.3 31-21.7 14.1-37.4 35.9-44.2 61.2-2.3 8.8-2.6 11.7-2.7 25.9 0 14.6.3 16.8 2.8 25 16.2 53.1 69 73.7 138.1 53.8 56.9-16.3 100.2-64 112.4-123.9 1.1-5.3 2.2-9.8 2.4-10.1.3-.2 9.2.3 19.8 1.3 10.7.9 21.9 1.4 25 1.1 10.1-.9 19-7.1 23.6-16.5 3.7-7.6 3.9-18.2.4-26-2.9-6.5-10.4-13.4-16.9-15.6-2.6-.9-12.6-2.3-22.2-3.1-9.6-.8-20.8-1.7-24.7-2.1-5.2-.4-7.3-1-7.3-1.9 0-3.2-5.5-18.6-9.6-26.8-17.1-34.6-49.1-57.1-99.4-69.7-22.1-5.6-44.2-9-81-12.7-22.1-2.2-81.3-2.5-96-.5-64.5 8.9-107.8 26-132.4 52.3-8.1 8.7-12.8 16-16.4 25.7-3.3 8.8-4.2 25.5-1.8 35.3 6.6 28.3 32.1 53.7 76.1 75.8 10.2 5.1 14.3 7.8 19.2 12.5 7.3 7.3 8.9 11.4 6.8 18.1-6.2 20.7-40.5 37.3-69.2 33.5-16.5-2.1-35.6-10.7-45.4-20.5-10.9-10.7-17.5-35.3-22.3-83-2.5-24.7-7.6-83.9-8.6-100.6-1.5-24.9-4.3-34.9-11.8-42.3-5.8-5.9-10.5-7.9-19.8-8.4-7.2-.4-8.9-.1-13.6 2-7.1 3.3-11.8 7.5-14.6 13.2-3.6 7-4.1 13.2-2.5 27.9 2.2 20 .8 34.8-5.8 61.7-11 44.6-33.6 94.3-56.5 124.1-9.7 12.7-22.9 23.9-28 23.9-7.2 0-19.7-25.5-27.4-56.1-1.6-6.4-4.5-17.2-6.5-24l-3.5-12.3 7.7-11.6c35.7-53.5 60.2-110.9 69.4-162.5 3-16.8 3.8-47.3 1.6-61.1-5.4-33.6-21.3-57.7-46.7-70.9-15.7-8-30.2-10.3-44.2-7zM461 63.2c4.9 3.4 8.7 8.6 11 15 9.9 28.3-1.2 82-28.6 138.2-4.8 9.9-4.8 10-5.5 6.5-1.1-5.3-3.8-29.9-4.9-45.4-4.1-56.4 4.1-103.3 19.8-114 4.4-3 4.1-3 8.2-.3zM262 218.4c14.4 5.4 17 21.4 6.7 41.1-4.1 7.7-14.5 18.1-22.2 22.2-13.2 6.9-34.8 13.1-55 15.8-12.8 1.7-51.5 2.1-51.5.6 0-.5 1.3-5 2.9-9.9 12.9-39.3 41-63.6 81.8-70.7 10.5-1.9 31.3-1.4 37.3.9zm804 109c0 3-5.4 18.3-8.8 25.1-12.2 24.3-33.9 43.1-58.9 50.9-26.4 8.2-49.6 7.2-59.1-2.7-10.5-10.9-7.3-33.6 6.7-47.6 12.3-12.3 40.1-21.8 72.6-25 16.6-1.7 17.9-1.8 33.3-1.9 11.8-.2 14.2 0 14.2 1.2z"/><path d="M596.1 40.9c-13.4 5-20.1 13.9-20.9 27.7-.4 7.3-.1 8.8 2.3 14.2 3.9 8.6 16.7 21 24.4 23.5 18.4 5.9 36.6-4.4 40-22.9 2.7-14.6-7.4-34.6-20.9-41.5-6.4-3.2-17.6-3.6-24.9-1z"/></svg>
