<svg xmlns="http://www.w3.org/2000/svg" width="100" height="100" viewBox="0 0 128 128" xml:space="preserve"><path d="M102.4 0v15.2c0 3.1-2.6 5.7-5.7 5.7S91 18.3 91 15.2V0H36.8v15.2c0 3.1-2.6 5.7-5.7 5.7s-5.7-2.6-5.7-5.7V0H4v128h120V0h-21.6zm14 120.4H11.6V30.7h104.9v89.7zM63.6 64H45.7V46.1h17.9V64zm22.7-17.9H68.4V64h17.9V46.1zm22.8 0H91.2V64h17.9V46.1zM63.6 86.7H45.7V68.8h17.9v17.9zm-22.8 0H22.9V68.8h17.9v17.9zm45.5-17.9H68.4v17.9h17.9V68.8zm22.8 0H91.2v17.9h17.9V68.8zm-68.3 40.7H22.9V91.6h17.9v17.9zm22.8-17.9H45.7v17.9h17.9V91.6zm22.7 0H68.4v17.9h17.9V91.6z" fill="#141414"/></svg>
