<svg xmlns="http://www.w3.org/2000/svg" viewBox="0 0 128 128"><path d="M0 107.2c0 3.4 2.7 6.2 6.1 6.2H122c3.3 0 6.1-2.7 6.1-6.1v-.1H0zm121.9-85.4H6.1c-3.3 0-6.1 2.7-6.1 6.1v75.3h128V27.9c0-3.4-2.7-6.1-6.1-6.1zM20.4 42.2c-3.3 0-5.9-2.6-5.9-5.9 0-3.3 2.6-5.9 5.9-5.9 3.3 0 5.9 2.6 5.9 5.9 0 3.3-2.6 5.9-5.9 5.9zM64 98.8c-17.3 0-31.3-14-31.3-31.3s14-31.3 31.3-31.3 31.2 14 31.2 31.3c.1 17.3-13.9 31.3-31.2 31.3zm52.4-58.7c0 2.2-1.8 4-4 4H97.8c-2.2 0-4-1.8-4-4V35c0-2.2 1.8-4 4-4h14.5c2.2 0 4 1.8 4 4v5.1zm4.5-21.1v.7H93.8V19c0-2.4 2-4.4 4.4-4.4h18.4c2.4.1 4.3 2 4.3 4.4zM64 94.9c-15.1 0-27.3-12.3-27.3-27.3C36.7 52.5 49 40.3 64 40.3s27.3 12.3 27.3 27.3S79.1 94.9 64 94.9zm0-52.6c-13.9 0-25.3 11.3-25.3 25.3C38.7 81.5 50 92.9 64 92.9s25.3-11.3 25.3-25.3S77.9 42.3 64 42.3zM42.9 67.6c0-11.7 9.5-21.1 21.1-21.1S85.1 56 85.1 67.6 75.7 88.7 64 88.7s-21.1-9.5-21.1-21.1z"></path></svg>
