<svg xmlns="http://www.w3.org/2000/svg" width="150" height="150" viewBox="0 0 512 512"><path class="og" fill="#2D404E" d="M256 147.303H138.8v165.562h234.4V147.303z"></path><path class="og" fill="#253744" d="M256 147.303H138.8v21.161h234.4v-21.161z"></path><path class="og" fill="#2D404E" d="M25.082 202.699L5.453 327.657s-23.042 59.739 25.603 80.222c48.645 20.481 64.859-8.534 78.515-34.99 13.654-26.456 63.152-118.558 63.152-118.558L25.082 202.699z"></path><path class="og" fill="#253744" d="M31.056 407.879c-48.645-20.482-25.603-80.222-25.603-80.222l19.629-124.958 45.452 15.895S34.71 308.805 21.668 338.752c-18.078 41.515 9.388 69.127 9.388 69.127z"></path><path class="og" fill="#2D404E" d="M143.137 120.562c-1.138-5.689-4.836-17.637-38.688-17.637s-35.557 9.103-37.833 18.206-5.12 31.291-5.12 31.291h86.477c-.001.001-3.699-26.169-4.836-31.86z"></path><path class="og" fill="#253744" d="M73.445 152.423h-11.95s2.844-22.188 5.12-31.291c1.89-7.558 3.385-15.115 23.215-17.463 0 0-12.231 5.23-14.168 17.747-1.937 12.518-2.217 31.007-2.217 31.007z"></path><path class="og" fill="#253744" d="M143.137 120.562c-1.138-5.689-4.836-16.637-38.688-16.637s-35.557 8.103-37.833 17.206c0 0 2.021-12.486 9.047-18.206 7.025-5.72 19.753-5.72 29.071-5.72 9.317 0 22.759.316 30.013 5.72 7.253 5.405 8.39 17.637 8.39 17.637z"></path><ellipse fill="#253744" cx="105.87" cy="223.373" rx="81.929" ry="81.916"></ellipse><circle fill="#586A73" cx="103.594" cy="214.182" r="79.652"></circle><path class="og" fill="none" d="M44.568 224.253s.995 11.022 8.25 11.022h32.216l6.472-7.441-46.938-3.581zM162.62 224.253s-.995 11.022-8.249 11.022h-32.217l-6.471-7.441 46.937-3.581zM82.261 261.091s-1.066 12.162 13.441 12.162h19.273c6.115 0 9.956-5.975 9.956-12.162h-42.67z"></path><path class="og" fill="#2D404E" d="M153.236 190.97h-28.305v-28.306a9.388 9.388 0 0 0-9.388-9.388H91.648a9.388 9.388 0 0 0-9.388 9.388v28.306H53.956a9.387 9.387 0 0 0-9.388 9.388v23.896a9.388 9.388 0 0 0 9.388 9.388h28.305v28.304a9.387 9.387 0 0 0 9.388 9.388h23.896a9.387 9.387 0 0 0 9.388-9.388v-28.304h28.305a9.388 9.388 0 0 0 9.388-9.388v-23.896a9.39 9.39 0 0 0-9.39-9.388zM486.918 202.699l19.629 124.958s23.042 59.739-25.603 80.222c-48.645 20.481-64.859-8.534-78.515-34.99-13.654-26.456-63.152-118.558-63.152-118.558l147.641-51.632z"></path><path class="og" fill="#253744" d="M480.944 407.879c48.645-20.482 25.603-80.222 25.603-80.222l-19.629-124.958-45.452 15.895s35.824 90.211 48.866 120.158c18.078 41.515-9.388 69.127-9.388 69.127z"></path><path class="og" fill="#2D404E" d="M368.863 120.562c1.138-5.689 4.836-17.637 38.688-17.637s35.557 9.103 37.833 18.206 5.12 31.291 5.12 31.291h-86.477c.001.001 3.699-26.169 4.836-31.86z"></path><path class="og" fill="#253744" d="M438.555 152.423h11.95s-2.844-22.188-5.12-31.291c-1.89-7.558-3.385-15.115-23.215-17.463 0 0 12.231 5.23 14.168 17.747 1.937 12.518 2.217 31.007 2.217 31.007z"></path><path class="og" fill="#253744" d="M368.863 120.562c1.138-5.689 4.836-16.637 38.688-16.637s35.557 8.103 37.833 17.206c0 0-2.021-12.486-9.047-18.206-7.025-5.72-19.753-5.72-29.071-5.72-9.317 0-22.759.316-30.013 5.72-7.253 5.405-8.39 17.637-8.39 17.637z"></path><ellipse fill="#253744" cx="405.491" cy="223.373" rx="82.567" ry="81.916"></ellipse><circle fill="#586A73" cx="408.406" cy="214.182" r="79.652"></circle><path class="og" fill="none" d="M467.431 224.253s-.994 11.022-8.249 11.022h-32.216l-6.472-7.441 46.937-3.581zM349.38 224.253s.995 11.022 8.249 11.022h32.217l6.471-7.441-46.937-3.581zM429.739 261.091s1.066 12.162-13.441 12.162h-19.273c-6.115 0-9.956-5.975-9.956-12.162h42.67z"></path><path class="og" fill="#2D404E" d="M458.044 190.97h-28.305v-28.306a9.388 9.388 0 0 0-9.388-9.388h-23.896a9.388 9.388 0 0 0-9.388 9.388v28.306h-28.305a9.387 9.387 0 0 0-9.388 9.388v23.896a9.388 9.388 0 0 0 9.388 9.388h28.305v28.304a9.387 9.387 0 0 0 9.388 9.388h23.896a9.387 9.387 0 0 0 9.388-9.388v-28.304h28.305c5.186 0 9.387-4.204 9.387-9.388v-23.896a9.386 9.386 0 0 0-9.387-9.388z"></path><path class="og" fill="#586A73" d="M103.596 160.281l3.669 4.093 3.67 4.09H96.258l3.67-4.09zM103.596 268.082l3.669-4.092 3.67-4.091H96.258l3.67 4.091z"></path><path class="og" fill="#253744" d="M91.65 192.392s-.278 3.73 1.748 6.185c2.027 2.453 8.011 8.268 10.197 8.268 2.134 0 8.776-6.411 10.337-8.268 1.614-1.92 1.609-6.185 1.609-6.185H91.65z"></path><path class="og" fill="#586A73" d="M157.496 214.182l-4.092 3.669-4.091 3.67v-14.677l4.091 3.669z"></path><path class="og" fill="#253744" d="M93.967 214.182s-.576 3.172-2.461 5.945c-1.885 2.774-5.561 8.321-8.014 8.321H65.833c-1.601 0-2.666-2.827-2.666-4.027s30.8-10.239 30.8-10.239zM113.222 214.182s.577 4.154 2.462 6.928c1.884 2.773 6.154 7.339 8.608 7.339h17.064c1.6 0 2.665-2.827 2.665-4.027s-30.799-10.24-30.799-10.24zM91.65 252.904s-.201 3.707 2.316 3.707h19.515c1.707 0 2.061-3.707 2.061-3.707H91.65z"></path><circle fill="#253744" cx="407.664" cy="178.45" r="17.942"></circle><circle fill="#D1D5D5" cx="409.142" cy="176.363" r="16.624"></circle><circle fill="#253744" cx="407.359" cy="250.377" r="17.942"></circle><circle fill="#D1D5D5" cx="408.999" cy="249.348" r="17.071"></circle><circle fill="#253744" cx="443.781" cy="214.565" r="17.942"></circle><path class="og" fill="#D1D5D5" d="M461.882 212.793c0 9.357-7.584 16.942-16.939 16.942s-16.94-7.585-16.94-16.942c0-9.354 7.585-16.939 16.94-16.939s16.939 7.585 16.939 16.939z"></path><circle fill="#253744" cx="371.411" cy="214.509" r="17.942"></circle><circle fill="#D1D5D5" cx="372.423" cy="212.452" r="16.781"></circle><path class="og" fill="#253744" d="M222.649 227.975c0 1.309-.927 2.37-2.07 2.37h-23.465c-1.144 0-2.07-1.062-2.07-2.37v-9.581c0-1.309.927-2.37 2.07-2.37h23.465c1.144 0 2.07 1.062 2.07 2.37v9.581z"></path><path class="og" fill="#586A73" d="M220.226 227.134c0 1.078-.764 1.953-1.707 1.953h-19.344c-.943 0-1.707-.875-1.707-1.953v-7.899c0-1.078.764-1.953 1.707-1.953h19.344c.943 0 1.707.875 1.707 1.953v7.899z"></path><path class="og" fill="#253744" d="M308.753 223.536c0 1.233-10.643 4.804-10.643 4.804l-10.148 3.948s-1.208.457-1.76-.033c-.73-.651-.437-2.237-.437-2.237v-13.055s-.242-1.303.788-1.937c.973-.597 1.845-.075 1.845-.075l9.712 3.778s10.643 3.57 10.643 4.807z"></path><path class="og" fill="#586A73" d="M305.969 223.557c0 .893-8.675 3.475-8.675 3.475l-7.777 2.856s-.927.331-1.349-.024c-.56-.471-.335-1.618-.335-1.618V218.802s-.186-.941.604-1.399c.745-.432 1.413-.055 1.413-.055l7.443 2.733c.001-.001 8.676 2.581 8.676 3.476z"></path><circle fill="#253744" cx="257.958" cy="259.738" r="18.242"></circle><circle fill="#586A73" cx="257.958" cy="259.738" r="15.042"></circle><g fill="#C6CBCB"><path class="og" d="M282.939 209.04a3.744 3.744 0 0 0 1.808.478c.866 0 1.354-.411 1.354-1.021 0-.565-.378-.898-1.321-1.242-1.242-.444-2.03-1.099-2.03-2.175 0-1.231 1.021-2.152 2.652-2.152.81 0 1.397.178 1.786.377l-.322 1.099a3.252 3.252 0 0 0-1.498-.354c-.864 0-1.231.454-1.231.898 0 .576.434.843 1.432 1.231 1.298.487 1.92 1.143 1.92 2.219 0 1.209-.91 2.252-2.83 2.252-.798 0-1.62-.222-2.03-.477l.31-1.133zM290.15 204.191h-2.13v-1.144h5.647v1.144h-2.153v6.335h-1.364v-6.335zM295.231 208.407l-.644 2.119h-1.408l2.396-7.479h1.742l2.43 7.479h-1.476l-.677-2.119h-2.363zm2.142-1.032l-.588-1.842c-.145-.454-.267-.965-.377-1.397h-.022c-.111.433-.233.954-.355 1.397l-.576 1.842h1.918zM300.789 203.159c.522-.1 1.276-.166 2.063-.166 1.077 0 1.798.178 2.308.6.411.343.644.865.644 1.508 0 .966-.654 1.62-1.364 1.864v.034c.544.199.865.721 1.043 1.441.244.933.444 1.798.588 2.086h-1.397c-.111-.222-.3-.832-.499-1.765-.223-.976-.565-1.286-1.343-1.309h-.688v3.073h-1.354v-7.366zm1.354 3.295h.811c.921 0 1.486-.487 1.486-1.23 0-.811-.565-1.198-1.453-1.198-.433 0-.71.033-.844.066v2.362zM308.589 204.191h-2.13v-1.144h5.647v1.144h-2.153v6.335h-1.364v-6.335z"></path></g><g fill="#C6CBCB"><path class="og" d="M193.331 209.04a3.741 3.741 0 0 0 1.808.478c.865 0 1.354-.411 1.354-1.021 0-.565-.377-.898-1.32-1.242-1.243-.444-2.03-1.099-2.03-2.175 0-1.231 1.021-2.152 2.651-2.152.811 0 1.398.178 1.786.377l-.321 1.099a3.252 3.252 0 0 0-1.498-.354c-.865 0-1.231.454-1.231.898 0 .576.434.843 1.432 1.231 1.298.487 1.92 1.143 1.92 2.219 0 1.209-.91 2.252-2.83 2.252-.798 0-1.62-.222-2.03-.477l.309-1.133zM203.293 207.21h-2.817v2.195h3.15v1.121h-4.516v-7.479h4.35v1.121h-2.984v1.931h2.817v1.111zM204.824 203.048h1.365v6.336h3.073v1.143h-4.438v-7.479zM214.476 207.21h-2.817v2.195h3.15v1.121h-4.516v-7.479h4.35v1.121h-2.984v1.931h2.817v1.111zM221.366 210.315c-.322.155-1.032.333-1.942.333-2.373 0-3.816-1.486-3.816-3.772 0-2.463 1.72-3.949 4.006-3.949.898 0 1.531.188 1.809.332l-.288 1.088a3.683 3.683 0 0 0-1.466-.288c-1.52 0-2.617.954-2.617 2.751 0 1.653.953 2.696 2.606 2.696.543 0 1.121-.111 1.487-.267l.221 1.076zM224.185 204.191h-2.131v-1.144h5.647v1.144h-2.152v6.335h-1.364v-6.335z"></path></g><path class="og" fill="#D1D5D5" d="M115.542 192.925V175.46c0-.943-.765-1.707-1.706-1.707h-20.48c-.941 0-1.706.764-1.706 1.707v17.465s-.036.165 0 .464v.283c0 .524.243.989.616 1.302.271.437.653.93 1.195 1.472 2.134 2.134 7.254 8.107 10.134 8.107 2.881 0 8.001-5.974 10.135-8.107a8.21 8.21 0 0 0 1.195-1.472c.373-.312.616-.777.616-1.302v-.283c.037-.299.001-.464.001-.464zM82.339 226.128H64.874a1.707 1.707 0 0 1-1.707-1.707v-20.479c0-.941.764-1.707 1.707-1.707h17.465s.165-.035.465 0h.282a1.7 1.7 0 0 1 1.303.617c.436.27.929.653 1.471 1.195 2.134 2.133 8.107 7.254 8.107 10.134 0 2.881-5.974 8.001-8.107 10.135-.542.541-1.035.925-1.471 1.194a1.693 1.693 0 0 1-1.303.617h-.282c-.3.037-.465.001-.465.001z"></path><path class="og" fill="#586A73" d="M49.696 214.182l4.092 3.669 4.091 3.67v-14.677l-4.091 3.669z"></path><path class="og" fill="#D1D5D5" d="M124.854 226.128h17.465c.943 0 1.707-.765 1.707-1.707v-20.479c0-.941-.764-1.707-1.707-1.707h-17.465s-.165-.035-.465 0h-.282a1.7 1.7 0 0 0-1.303.617c-.436.27-.929.653-1.471 1.195-2.134 2.133-8.107 7.254-8.107 10.134 0 2.881 5.974 8.001 8.107 10.135.542.541 1.035.925 1.471 1.194.312.374.777.617 1.303.617h.282c.299.037.465.001.465.001zM115.542 235.438v17.466c0 .943-.765 1.706-1.706 1.706h-20.48a1.706 1.706 0 0 1-1.706-1.706v-17.466s-.036-.165 0-.464v-.282c0-.525.243-.99.616-1.303.271-.436.653-.93 1.195-1.471 2.134-2.134 7.254-8.107 10.134-8.107 2.881 0 8.001 5.974 10.135 8.107a8.207 8.207 0 0 1 1.195 1.471c.373.312.616.777.616 1.303v.282c.037.299.001.464.001.464z"></path><path class="og" fill="#DF584C" d="M444.942 222.99c-5.622 0-10.197-4.574-10.197-10.197 0-5.622 4.575-10.194 10.197-10.194s10.196 4.572 10.196 10.194c.001 5.623-4.574 10.197-10.196 10.197zm0-18.038c-4.324 0-7.843 3.518-7.843 7.841 0 4.325 3.519 7.843 7.843 7.843s7.842-3.518 7.842-7.843c0-4.323-3.517-7.841-7.842-7.841z"></path><path class="og" fill="#48B19B" d="M419.403 183.138h-20.976l10.487-18.165 10.489 18.165zm-17.129-2.221h13.281l-6.641-11.502-6.64 11.502z"></path><path class="og" fill="#EA8EBC" d="M377.922 221.096h-11.3a2.584 2.584 0 0 1-2.581-2.581v-11.3a2.584 2.584 0 0 1 2.581-2.581h11.3a2.584 2.584 0 0 1 2.581 2.581v11.3a2.584 2.584 0 0 1-2.581 2.581zm-11.3-14.25a.37.37 0 0 0-.368.369v11.3a.37.37 0 0 0 .368.368h11.3a.37.37 0 0 0 .368-.368v-11.3a.37.37 0 0 0-.368-.369h-11.3z"></path><path class="og" fill="#253744" d="M118.243 295.224s4.423 18.884 17.131 28.861l11.118-20.816-3.462-15.623-24.787 7.578zM393.757 295.224s-4.423 18.884-17.131 28.861l-11.118-20.816 3.462-15.623 24.787 7.578z"></path><g><path class="og" fill="#253744" d="M127.148 291.292c25.26-7.808 46.145-28.847 53.747-54.196-6.605.018-20.32 1.947-34.403 14.039-14.968 12.85-18.523 31.37-19.344 40.157z"></path></g><g><path class="og" fill="#253744" d="M384.852 291.292c-25.26-7.808-46.145-28.847-53.747-54.196 6.605.018 20.32 1.947 34.403 14.039 14.968 12.85 18.523 31.37 19.344 40.157z"></path></g><g><circle fill="#586A73" cx="182.076" cy="292.986" r="50.104"></circle><circle fill="#253744" cx="182.076" cy="292.986" r="40.134"></circle><circle fill="#2D404E" cx="182.076" cy="292.986" r="33.108"></circle></g><g><circle fill="#586A73" cx="329.924" cy="292.986" r="50.104"></circle><circle fill="#253744" cx="329.924" cy="292.986" r="40.134"></circle><circle fill="#2D404E" cx="329.924" cy="292.986" r="33.108"></circle></g><path class="og" fill="#586A73" d="M416.463 244.699l-2.121-2.121-5.599 5.599-5.598-5.599-2.122 2.121 5.599 5.599-5.599 5.598 2.122 2.122 5.598-5.599 5.599 5.599 2.121-2.122-5.599-5.598z"></path></svg>
