<svg xmlns="http://www.w3.org/2000/svg" width="100" height="100" viewBox="0 0 128 128"><path d="M55.6 60.5l28.8 10.6c-2 1.9-4.6 3.4-7.4 4.1-6.6 18.3-21.4 48.1-26.4 51.3-1.5 1-3.8 1.5-5.6 1.5-1.3 0-2.5-.3-3.6-.8-6.1-2.9-9.8-13.5-11-31.6-.4-6.6-2.1-10.7-5.1-12-4.2-1.9-10.5 1.9-12.6 3.5l-1.9-2.4c.4-.3 9-7 15.7-3.9 4.1 1.9 6.5 6.8 7 14.6 1 16.4 4.3 26.8 9.2 29 3.9 1.8 7.4-1.2 7.4-1.2s6.4-38.4 10.2-52.8c-2.6-2.6-4.3-6.1-4.7-9.9zm17-19.1c-9 0-16.4 6.9-17.1 15.8l31.1 11.4c2-2.8 3.2-6.3 3.2-10 0-9.5-7.7-17.2-17.2-17.2zm37.4 0h7.1s-2-.6-5.1-6.3c-3.1-5.7-5.1-12.4-5.1-12.4v23.8c-.9-.5-1.9-.8-2.9-.8-3.4 0-6.1 2.7-6.1 6.1 0 3.3 2.7 6.1 6.1 6.1 3.3 0 6.1-2.7 6.1-6.1 0-.4-.1-10.4-.1-10.4zm-72.7 0h7.1s-2-.6-5.1-6.3c-3.1-5.7-5.1-12.4-5.1-12.4v23.8c-.9-.5-1.9-.8-2.9-.8-3.4 0-6.1 2.7-6.1 6.1 0 3.3 2.7 6.1 6.1 6.1 3.3 0 6.1-2.7 6.1-6.1 0-.4-.1-10.4-.1-10.4zM71.5 0c-6.1 0-11.1 5-11.1 11.1s5 11.1 11.1 11.1 11.1-5 11.1-11.1S77.6 0 71.5 0z"></path></svg>
