<svg xmlns="http://www.w3.org/2000/svg" width="100" height="100" viewBox="0 0 128 128"><path d="M54.8 71.7l-24 1.4 3.6-14.4 20.4 13zM17.2 128l16.3-13.2-13.2.8-3.1 12.4zm6.2-24.7l-2 8.1 17.6-1 10.7-8.7-26.3 1.6zm3.3-13.4l-2.3 9.3L55 97.4l12.1-9.8-40.4 2.3zm34-14.5l-30.9 1.8-2.1 8.5 44.9-2.6.1-.1-12-7.6zm-9.2-14.2c.1-1.4 2-34.3-16-44.2l-2 3.6c15.7 8.7 13.9 40 13.9 40.4l4.1.2zm57.8-5l1.5-3.8c-11.9-4.6-42.1 15.5-45.5 17.8l2.3 3.4c8.7-6 33.3-20.7 41.7-17.4zM58.8 66.4c.1-.4 10.2-32.2 23.5-46.5l-3-2.8c-14 15-24.1 46.7-24.5 48l4 1.3zM43.2 49.1l-3.1-8.9-8.9 3.1 3.1 8.9 8.9-3.1zm36.8 29l-1.8-5.2 5.2-1.8 1.8 5.2-5.2 1.8zm-6.8-22l-1.8-5.2 5.2-1.8 1.8 5.2-5.2 1.8zM56.6 34.3L54.7 29l5.2-1.8 1.8 5.2-5.1 1.9zm7.6-27.2l-1.8-5.2L67.6 0l1.8 5.2-5.2 1.9zm32.7 36.8l-1.8-5.2 5.2-1.8 1.8 5.2-5.2 1.8z"></path></svg>
