<svg xmlns="http://www.w3.org/2000/svg" width="100" height="100" viewBox="0 0 128 128"><path id="icon-tada:4_4_" d="M109.7 1.5l-.6-.4C106-1 101.8-.1 99.7 2.9V3c-.1-.2-.3-.3-.5-.5-.9-.6-2.3-.4-2.9.6l-.7 1c-.6 1-.4 2.3.6 2.9l.6.3-2.1 3.1c-.1-.2-.3-.3-.5-.5-1-.6-2.3-.4-2.9.6l-.7 1.1c-.6 1-.4 2.3.6 2.9l.6.3-2.6 3.8c-1.2 1.7-1.4 3.8-.9 5.7L65.8 57.9c-5.5-2.5-14.6-4.9-18.9 4.4-6.3 13.7-6.4 15.5-16.7 19.4-10.3 3.9-19.2 16.6-12.7 29.6 3 6 9.1 9.7 10.8 10.7 1.5 1.2 7.2 5.4 13.9 5.9 14.5 1.1 23-11.9 22.7-22.9-.3-11 1.3-11.7 11.7-22.8 6.8-7.3 1.7-14.6-2.7-18.8l22.7-33.8c0-.1.1-.1.1-.2 1.7-.3 3.2-1.3 4.2-2.8l2.5-3.8c.9.5 2.1.2 2.7-.7l.7-1c.6-.9.4-2.1-.4-2.8l2-2.9c.9.5 2.1.2 2.7-.7l.7-1.1c.6-.9.4-2.1-.4-2.8 2.2-3 1.4-7.2-1.7-9.3zm-8.4 8.4l1 .6L61.5 71l-1.3-.5m2.9 1.6L54.4 85c-.3-.1-.6-.3-.9-.5-.3-.2-.5-.4-.8-.6l8.7-13c.3.1.6.3.8.5.4.3.7.5.9.7zm-11.7 1.5c2-2.9 5.6-4.1 8.8-3.1l-8.4 12.4c-2.1-2.6-2.4-6.4-.4-9.3zm3 11.4l.8.6L46.8 98l4.3 2.9c1.4.9 1.8 2.9.8 4.3-.5.7-1.2 1.1-2 1.3-.8.2-1.6 0-2.3-.5l-12.4-8.4c-1.4-.9-1.8-2.9-.9-4.3.5-.7 1.2-1.2 2-1.3.8-.2 1.6 0 2.3.5l4.4 3 8.6-12.7 1 1-8.5 12.5 1.8 1.1m18.6-15c-2 2.9-5.5 4.1-8.7 3.2l8.3-12.4c2.1 2.5 2.3 6.3.4 9.2zm39.6-70.6l1 .6-41 60.8-1-1" class="icon-tada"></path></svg>
